<svg width="287" height="48" viewBox="0 0 287 48" fill="none" xmlns="http://www.w3.org/2000/svg">
<g style="mix-blend-mode:luminosity">
<g clip-path="url(#clip0_5039_1052)">
<path d="M28.8692 0.600098H59.8692C64.5692 0.600098 68.3691 4.40007 68.3691 9.10013V38.9002C68.3691 43.6001 64.5692 47.4002 59.8691 47.4002H28.8692C24.1691 47.4001 20.3691 43.6001 20.3691 38.9001V9.10013C20.3691 4.40007 24.1691 0.600098 28.8692 0.600098Z" fill="#001834"/>
<path d="M31.1699 33.42V12.84C31.1699 12.7001 31.2299 12.62 31.3699 12.62C31.7099 12.62 32.0299 12.62 32.4899 12.6C32.9699 12.5801 33.4699 12.5801 34.0099 12.56C34.5499 12.5399 35.1299 12.54 35.7499 12.52C36.3699 12.5 36.9699 12.5 37.5699 12.5C39.2098 12.5 40.5699 12.7 41.6899 13.12C42.6899 13.46 43.6099 14.02 44.3699 14.7599C45.01 15.4 45.5099 16.18 45.8299 17.0399C46.1299 17.8799 46.2899 18.7399 46.2899 19.6399C46.2899 21.3599 45.8899 22.7799 45.0899 23.8999C44.29 25.0199 43.1699 25.8599 41.8699 26.3399C40.5099 26.8399 39.0099 27.0199 37.3699 27.0199C36.8899 27.0199 36.5699 27.0199 36.3699 26.9999C36.1699 26.98 35.8899 26.98 35.5099 26.98V33.4C35.5299 33.5399 35.4299 33.6599 35.2899 33.68C35.2699 33.68 35.2498 33.68 35.2099 33.68H31.4099C31.2499 33.68 31.1699 33.6 31.1699 33.42ZM35.53 16.4801V23.2001C35.81 23.22 36.07 23.2401 36.31 23.2401H37.37C38.751 23.2401 40.346 22.9155 41.3099 21.8202C42.1395 20.8774 42.1419 19.0078 41.47 17.9802C40.6723 16.7602 39.0773 16.4067 37.7099 16.4401C37.1899 16.4401 36.73 16.4401 36.3499 16.4601C35.95 16.44 35.6699 16.46 35.53 16.4801Z" fill="#00A9FF"/>
<path d="M58.7702 21.9799C58.1702 21.66 57.5302 21.4399 56.8502 21.3C56.1103 21.1399 55.3702 21.04 54.6103 21.04C54.2102 21.02 53.7902 21.08 53.4103 21.18C53.1503 21.24 52.9303 21.3799 52.7903 21.58C52.6903 21.74 52.6303 21.94 52.6303 22.12C52.6303 22.3 52.7102 22.48 52.8302 22.64C53.0102 22.8601 53.2502 23.0401 53.5102 23.18C53.9702 23.42 54.4502 23.6401 54.9302 23.84C56.0102 24.2 57.0502 24.7 58.0102 25.3C58.6702 25.72 59.2102 26.28 59.5902 26.96C59.9102 27.6001 60.0702 28.3 60.0502 29.02C60.0702 29.96 59.7902 30.9 59.2702 31.68C58.7102 32.4799 57.9302 33.1 57.0302 33.46C56.0503 33.88 54.8503 34.1 53.4103 34.1C52.4903 34.1 51.5903 34.0201 50.6903 33.8401C49.9903 33.7201 49.2903 33.5 48.6503 33.2C48.5103 33.1201 48.4103 32.98 48.4303 32.8201V29.3401C48.4303 29.2801 48.4502 29.2001 48.5102 29.1601C48.5702 29.12 48.6302 29.1401 48.6902 29.18C49.4702 29.6401 50.2903 29.96 51.1702 30.16C51.9302 30.36 52.7302 30.46 53.5302 30.46C54.2902 30.46 54.8302 30.36 55.1902 30.18C55.5102 30.04 55.7302 29.7 55.7302 29.34C55.7302 29.0599 55.5702 28.8 55.2502 28.54C54.9302 28.28 54.2702 27.98 53.2902 27.6C52.2702 27.24 51.3301 26.76 50.4502 26.16C49.8302 25.72 49.3102 25.14 48.9302 24.46C48.6103 23.82 48.4502 23.12 48.4702 22.42C48.4702 21.56 48.7102 20.74 49.1502 20C49.6501 19.2001 50.3902 18.56 51.2502 18.16C52.1902 17.68 53.3701 17.46 54.7902 17.46C55.6102 17.46 56.4502 17.52 57.2701 17.64C57.8701 17.7199 58.4502 17.88 58.9902 18.1C59.0702 18.12 59.1502 18.2 59.1902 18.28C59.2101 18.36 59.2302 18.44 59.2302 18.52V21.78C59.2302 21.8599 59.1901 21.94 59.1301 21.9799C58.9502 22.02 58.8502 22.02 58.7702 21.9799Z" fill="#00A9FF"/>
</g>
<path d="M94.3491 28.52H89.1091L88.2691 31H84.6891L89.7691 16.96H93.7291L98.8091 31H95.1891L94.3491 28.52ZM93.4691 25.88L91.7291 20.74L90.0091 25.88H93.4691ZM99.6752 25.4C99.6752 24.2533 99.8886 23.2467 100.315 22.38C100.755 21.5133 101.349 20.8467 102.095 20.38C102.842 19.9133 103.675 19.68 104.595 19.68C105.329 19.68 105.995 19.8333 106.595 20.14C107.209 20.4467 107.689 20.86 108.035 21.38V16.2H111.455V31H108.035V29.4C107.715 29.9333 107.255 30.36 106.655 30.68C106.069 31 105.382 31.16 104.595 31.16C103.675 31.16 102.842 30.9267 102.095 30.46C101.349 29.98 100.755 29.3067 100.315 28.44C99.8886 27.56 99.6752 26.5467 99.6752 25.4ZM108.035 25.42C108.035 24.5667 107.795 23.8933 107.315 23.4C106.849 22.9067 106.275 22.66 105.595 22.66C104.915 22.66 104.335 22.9067 103.855 23.4C103.389 23.88 103.155 24.5467 103.155 25.4C103.155 26.2533 103.389 26.9333 103.855 27.44C104.335 27.9333 104.915 28.18 105.595 28.18C106.275 28.18 106.849 27.9333 107.315 27.44C107.795 26.9467 108.035 26.2733 108.035 25.42ZM119.009 31.16C117.916 31.16 116.929 30.9267 116.049 30.46C115.183 29.9933 114.496 29.3267 113.989 28.46C113.496 27.5933 113.249 26.58 113.249 25.42C113.249 24.2733 113.503 23.2667 114.009 22.4C114.516 21.52 115.209 20.8467 116.089 20.38C116.969 19.9133 117.956 19.68 119.049 19.68C120.143 19.68 121.129 19.9133 122.009 20.38C122.889 20.8467 123.583 21.52 124.089 22.4C124.596 23.2667 124.849 24.2733 124.849 25.42C124.849 26.5667 124.589 27.58 124.069 28.46C123.563 29.3267 122.863 29.9933 121.969 30.46C121.089 30.9267 120.103 31.16 119.009 31.16ZM119.009 28.2C119.663 28.2 120.216 27.96 120.669 27.48C121.136 27 121.369 26.3133 121.369 25.42C121.369 24.5267 121.143 23.84 120.689 23.36C120.249 22.88 119.703 22.64 119.049 22.64C118.383 22.64 117.829 22.88 117.389 23.36C116.949 23.8267 116.729 24.5133 116.729 25.42C116.729 26.3133 116.943 27 117.369 27.48C117.809 27.96 118.356 28.2 119.009 28.2ZM130.084 21.42C130.404 20.9 130.864 20.48 131.464 20.16C132.064 19.84 132.75 19.68 133.524 19.68C134.444 19.68 135.277 19.9133 136.024 20.38C136.77 20.8467 137.357 21.5133 137.784 22.38C138.224 23.2467 138.444 24.2533 138.444 25.4C138.444 26.5467 138.224 27.56 137.784 28.44C137.357 29.3067 136.77 29.98 136.024 30.46C135.277 30.9267 134.444 31.16 133.524 31.16C132.737 31.16 132.05 31.0067 131.464 30.7C130.877 30.38 130.417 29.96 130.084 29.44V31H126.664V16.2H130.084V21.42ZM134.964 25.4C134.964 24.5467 134.724 23.88 134.244 23.4C133.777 22.9067 133.197 22.66 132.504 22.66C131.824 22.66 131.244 22.9067 130.764 23.4C130.297 23.8933 130.064 24.5667 130.064 25.42C130.064 26.2733 130.297 26.9467 130.764 27.44C131.244 27.9333 131.824 28.18 132.504 28.18C133.184 28.18 133.764 27.9333 134.244 27.44C134.724 26.9333 134.964 26.2533 134.964 25.4ZM150.758 25.24C150.758 25.56 150.738 25.8933 150.698 26.24H142.958C143.011 26.9333 143.231 27.4667 143.618 27.84C144.018 28.2 144.505 28.38 145.078 28.38C145.931 28.38 146.525 28.02 146.858 27.3H150.498C150.311 28.0333 149.971 28.6933 149.478 29.28C148.998 29.8667 148.391 30.3267 147.658 30.66C146.925 30.9933 146.105 31.16 145.198 31.16C144.105 31.16 143.131 30.9267 142.278 30.46C141.425 29.9933 140.758 29.3267 140.278 28.46C139.798 27.5933 139.558 26.58 139.558 25.42C139.558 24.26 139.791 23.2467 140.258 22.38C140.738 21.5133 141.405 20.8467 142.258 20.38C143.111 19.9133 144.091 19.68 145.198 19.68C146.278 19.68 147.238 19.9067 148.078 20.36C148.918 20.8133 149.571 21.46 150.038 22.3C150.518 23.14 150.758 24.12 150.758 25.24ZM147.258 24.34C147.258 23.7533 147.058 23.2867 146.658 22.94C146.258 22.5933 145.758 22.42 145.158 22.42C144.585 22.42 144.098 22.5867 143.698 22.92C143.311 23.2533 143.071 23.7267 142.978 24.34H147.258ZM167.501 21.48C167.501 22.2933 167.314 23.04 166.941 23.72C166.567 24.3867 165.994 24.9267 165.221 25.34C164.447 25.7533 163.487 25.96 162.341 25.96H160.221V31H156.801V16.96H162.341C163.461 16.96 164.407 17.1533 165.181 17.54C165.954 17.9267 166.534 18.46 166.921 19.14C167.307 19.82 167.501 20.6 167.501 21.48ZM162.081 23.24C162.734 23.24 163.221 23.0867 163.541 22.78C163.861 22.4733 164.021 22.04 164.021 21.48C164.021 20.92 163.861 20.4867 163.541 20.18C163.221 19.8733 162.734 19.72 162.081 19.72H160.221V23.24H162.081ZM176.141 19.72C177.421 19.72 178.448 20.1467 179.221 21C179.994 21.84 180.381 23 180.381 24.48V31H176.981V24.94C176.981 24.1933 176.788 23.6133 176.401 23.2C176.014 22.7867 175.494 22.58 174.841 22.58C174.188 22.58 173.668 22.7867 173.281 23.2C172.894 23.6133 172.701 24.1933 172.701 24.94V31H169.281V16.2H172.701V21.34C173.048 20.8467 173.521 20.4533 174.121 20.16C174.721 19.8667 175.394 19.72 176.141 19.72ZM187.838 31.16C186.744 31.16 185.758 30.9267 184.878 30.46C184.011 29.9933 183.324 29.3267 182.818 28.46C182.324 27.5933 182.078 26.58 182.078 25.42C182.078 24.2733 182.331 23.2667 182.838 22.4C183.344 21.52 184.038 20.8467 184.918 20.38C185.798 19.9133 186.784 19.68 187.878 19.68C188.971 19.68 189.958 19.9133 190.838 20.38C191.718 20.8467 192.411 21.52 192.918 22.4C193.424 23.2667 193.678 24.2733 193.678 25.42C193.678 26.5667 193.418 27.58 192.898 28.46C192.391 29.3267 191.691 29.9933 190.798 30.46C189.918 30.9267 188.931 31.16 187.838 31.16ZM187.838 28.2C188.491 28.2 189.044 27.96 189.498 27.48C189.964 27 190.198 26.3133 190.198 25.42C190.198 24.5267 189.971 23.84 189.518 23.36C189.078 22.88 188.531 22.64 187.878 22.64C187.211 22.64 186.658 22.88 186.218 23.36C185.778 23.8267 185.558 24.5133 185.558 25.42C185.558 26.3133 185.771 27 186.198 27.48C186.638 27.96 187.184 28.2 187.838 28.2ZM201.712 28.1V31H199.972C198.732 31 197.765 30.7 197.072 30.1C196.379 29.4867 196.032 28.4933 196.032 27.12V22.68H194.672V19.84H196.032V17.12H199.452V19.84H201.692V22.68H199.452V27.16C199.452 27.4933 199.532 27.7333 199.692 27.88C199.852 28.0267 200.119 28.1 200.492 28.1H201.712ZM208.697 31.16C207.604 31.16 206.617 30.9267 205.737 30.46C204.87 29.9933 204.184 29.3267 203.677 28.46C203.184 27.5933 202.937 26.58 202.937 25.42C202.937 24.2733 203.19 23.2667 203.697 22.4C204.204 21.52 204.897 20.8467 205.777 20.38C206.657 19.9133 207.644 19.68 208.737 19.68C209.83 19.68 210.817 19.9133 211.697 20.38C212.577 20.8467 213.27 21.52 213.777 22.4C214.284 23.2667 214.537 24.2733 214.537 25.42C214.537 26.5667 214.277 27.58 213.757 28.46C213.25 29.3267 212.55 29.9933 211.657 30.46C210.777 30.9267 209.79 31.16 208.697 31.16ZM208.697 28.2C209.35 28.2 209.904 27.96 210.357 27.48C210.824 27 211.057 26.3133 211.057 25.42C211.057 24.5267 210.83 23.84 210.377 23.36C209.937 22.88 209.39 22.64 208.737 22.64C208.07 22.64 207.517 22.88 207.077 23.36C206.637 23.8267 206.417 24.5133 206.417 25.42C206.417 26.3133 206.63 27 207.057 27.48C207.497 27.96 208.044 28.2 208.697 28.2ZM220.891 31.16C219.918 31.16 219.051 30.9933 218.291 30.66C217.531 30.3267 216.931 29.8733 216.491 29.3C216.051 28.7133 215.805 28.06 215.751 27.34H219.131C219.171 27.7267 219.351 28.04 219.671 28.28C219.991 28.52 220.385 28.64 220.851 28.64C221.278 28.64 221.605 28.56 221.831 28.4C222.071 28.2267 222.191 28.0067 222.191 27.74C222.191 27.42 222.025 27.1867 221.691 27.04C221.358 26.88 220.818 26.7067 220.071 26.52C219.271 26.3333 218.605 26.14 218.071 25.94C217.538 25.7267 217.078 25.4 216.691 24.96C216.305 24.5067 216.111 23.9 216.111 23.14C216.111 22.5 216.285 21.92 216.631 21.4C216.991 20.8667 217.511 20.4467 218.191 20.14C218.885 19.8333 219.705 19.68 220.651 19.68C222.051 19.68 223.151 20.0267 223.951 20.72C224.765 21.4133 225.231 22.3333 225.351 23.48H222.191C222.138 23.0933 221.965 22.7867 221.671 22.56C221.391 22.3333 221.018 22.22 220.551 22.22C220.151 22.22 219.845 22.3 219.631 22.46C219.418 22.6067 219.311 22.8133 219.311 23.08C219.311 23.4 219.478 23.64 219.811 23.8C220.158 23.96 220.691 24.12 221.411 24.28C222.238 24.4933 222.911 24.7067 223.431 24.92C223.951 25.12 224.405 25.4533 224.791 25.92C225.191 26.3733 225.398 26.9867 225.411 27.76C225.411 28.4133 225.225 29 224.851 29.52C224.491 30.0267 223.965 30.4267 223.271 30.72C222.591 31.0133 221.798 31.16 220.891 31.16ZM234.364 19.72C235.644 19.72 236.67 20.1467 237.444 21C238.217 21.84 238.604 23 238.604 24.48V31H235.204V24.94C235.204 24.1933 235.01 23.6133 234.624 23.2C234.237 22.7867 233.717 22.58 233.064 22.58C232.41 22.58 231.89 22.7867 231.504 23.2C231.117 23.6133 230.924 24.1933 230.924 24.94V31H227.504V16.2H230.924V21.34C231.27 20.8467 231.744 20.4533 232.344 20.16C232.944 19.8667 233.617 19.72 234.364 19.72ZM246.06 31.16C244.967 31.16 243.98 30.9267 243.1 30.46C242.234 29.9933 241.547 29.3267 241.04 28.46C240.547 27.5933 240.3 26.58 240.3 25.42C240.3 24.2733 240.554 23.2667 241.06 22.4C241.567 21.52 242.26 20.8467 243.14 20.38C244.02 19.9133 245.007 19.68 246.1 19.68C247.194 19.68 248.18 19.9133 249.06 20.38C249.94 20.8467 250.634 21.52 251.14 22.4C251.647 23.2667 251.9 24.2733 251.9 25.42C251.9 26.5667 251.64 27.58 251.12 28.46C250.614 29.3267 249.914 29.9933 249.02 30.46C248.14 30.9267 247.154 31.16 246.06 31.16ZM246.06 28.2C246.714 28.2 247.267 27.96 247.72 27.48C248.187 27 248.42 26.3133 248.42 25.42C248.42 24.5267 248.194 23.84 247.74 23.36C247.3 22.88 246.754 22.64 246.1 22.64C245.434 22.64 244.88 22.88 244.44 23.36C244 23.8267 243.78 24.5133 243.78 25.42C243.78 26.3133 243.994 27 244.42 27.48C244.86 27.96 245.407 28.2 246.06 28.2ZM257.135 21.42C257.468 20.9 257.928 20.48 258.515 20.16C259.101 19.84 259.788 19.68 260.575 19.68C261.495 19.68 262.328 19.9133 263.075 20.38C263.821 20.8467 264.408 21.5133 264.835 22.38C265.275 23.2467 265.495 24.2533 265.495 25.4C265.495 26.5467 265.275 27.56 264.835 28.44C264.408 29.3067 263.821 29.98 263.075 30.46C262.328 30.9267 261.495 31.16 260.575 31.16C259.801 31.16 259.115 31 258.515 30.68C257.928 30.36 257.468 29.9467 257.135 29.44V36.32H253.715V19.84H257.135V21.42ZM262.015 25.4C262.015 24.5467 261.775 23.88 261.295 23.4C260.828 22.9067 260.248 22.66 259.555 22.66C258.875 22.66 258.295 22.9067 257.815 23.4C257.348 23.8933 257.115 24.5667 257.115 25.42C257.115 26.2733 257.348 26.9467 257.815 27.44C258.295 27.9333 258.875 28.18 259.555 28.18C260.235 28.18 260.815 27.9333 261.295 27.44C261.775 26.9333 262.015 26.2533 262.015 25.4Z" fill="black"/>
</g>
<defs>
<clipPath id="clip0_5039_1052">
<rect width="48" height="48" fill="white" transform="translate(20.3691)"/>
</clipPath>
</defs>
</svg>
