<svg width="279" height="48" viewBox="0 0 279 48" fill="none" xmlns="http://www.w3.org/2000/svg">
<g style="mix-blend-mode:luminosity">
<g clip-path="url(#clip0_5039_1037)">
<path d="M28.8692 0.600098H59.8692C64.5692 0.600098 68.3691 4.40007 68.3691 9.10013V38.9002C68.3691 43.6001 64.5692 47.4002 59.8691 47.4002H28.8692C24.1691 47.4001 20.3691 43.6001 20.3691 38.9001V9.10013C20.3691 4.40007 24.1691 0.600098 28.8692 0.600098Z" fill="#390000"/>
<path d="M43.629 28.6801H36.189L34.6691 33.3801C34.629 33.5601 34.4691 33.6801 34.2891 33.6601H30.5291C30.309 33.6601 30.249 33.5401 30.309 33.3001L36.749 14.7601C36.809 14.5602 36.869 14.3401 36.949 14.1001C37.0289 13.6801 37.069 13.2402 37.069 12.8001C37.049 12.7001 37.129 12.6001 37.229 12.5801H37.289H42.409C42.569 12.5801 42.649 12.6401 42.6689 12.7401L49.969 33.3401C50.029 33.5601 49.969 33.66 49.769 33.66H45.589C45.449 33.68 45.3089 33.5801 45.269 33.44L43.629 28.6801ZM37.349 24.6201H42.429L39.869 16.2801L37.349 24.6201Z" fill="#FF9A00"/>
<path d="M54.3283 16.0001C53.6683 16.0201 53.0283 15.7601 52.5483 15.3001C52.0883 14.8001 51.8483 14.1401 51.8684 13.46C51.8484 12.7801 52.1083 12.14 52.5883 11.68C53.0683 11.22 53.7084 10.98 54.3684 10.98C55.1484 10.98 55.7484 11.22 56.1883 11.68C56.6283 12.16 56.8683 12.8 56.8484 13.46C56.8683 14.14 56.6283 14.8 56.1483 15.3001C55.6884 15.7801 55.0083 16.04 54.3283 16.0001Z" fill="#FF9A00"/>
<path d="M52.0898 33.3602V17.9602C52.0898 17.7602 52.1698 17.6802 52.3498 17.6802H56.3098C56.4898 17.6802 56.5698 17.7802 56.5698 17.9602V33.3602C56.5698 33.5803 56.4898 33.6802 56.3098 33.6802H52.3898C52.1898 33.6802 52.0898 33.5602 52.0898 33.3602Z" fill="#FF9A00"/>
</g>
<path d="M94.3491 28.52H89.1091L88.2691 31H84.6891L89.7691 16.96H93.7291L98.8091 31H95.1891L94.3491 28.52ZM93.4691 25.88L91.7291 20.74L90.0091 25.88H93.4691ZM99.6752 25.4C99.6752 24.2533 99.8886 23.2467 100.315 22.38C100.755 21.5133 101.349 20.8467 102.095 20.38C102.842 19.9133 103.675 19.68 104.595 19.68C105.329 19.68 105.995 19.8333 106.595 20.14C107.209 20.4467 107.689 20.86 108.035 21.38V16.2H111.455V31H108.035V29.4C107.715 29.9333 107.255 30.36 106.655 30.68C106.069 31 105.382 31.16 104.595 31.16C103.675 31.16 102.842 30.9267 102.095 30.46C101.349 29.98 100.755 29.3067 100.315 28.44C99.8886 27.56 99.6752 26.5467 99.6752 25.4ZM108.035 25.42C108.035 24.5667 107.795 23.8933 107.315 23.4C106.849 22.9067 106.275 22.66 105.595 22.66C104.915 22.66 104.335 22.9067 103.855 23.4C103.389 23.88 103.155 24.5467 103.155 25.4C103.155 26.2533 103.389 26.9333 103.855 27.44C104.335 27.9333 104.915 28.18 105.595 28.18C106.275 28.18 106.849 27.9333 107.315 27.44C107.795 26.9467 108.035 26.2733 108.035 25.42ZM119.009 31.16C117.916 31.16 116.929 30.9267 116.049 30.46C115.183 29.9933 114.496 29.3267 113.989 28.46C113.496 27.5933 113.249 26.58 113.249 25.42C113.249 24.2733 113.503 23.2667 114.009 22.4C114.516 21.52 115.209 20.8467 116.089 20.38C116.969 19.9133 117.956 19.68 119.049 19.68C120.143 19.68 121.129 19.9133 122.009 20.38C122.889 20.8467 123.583 21.52 124.089 22.4C124.596 23.2667 124.849 24.2733 124.849 25.42C124.849 26.5667 124.589 27.58 124.069 28.46C123.563 29.3267 122.863 29.9933 121.969 30.46C121.089 30.9267 120.103 31.16 119.009 31.16ZM119.009 28.2C119.663 28.2 120.216 27.96 120.669 27.48C121.136 27 121.369 26.3133 121.369 25.42C121.369 24.5267 121.143 23.84 120.689 23.36C120.249 22.88 119.703 22.64 119.049 22.64C118.383 22.64 117.829 22.88 117.389 23.36C116.949 23.8267 116.729 24.5133 116.729 25.42C116.729 26.3133 116.943 27 117.369 27.48C117.809 27.96 118.356 28.2 119.009 28.2ZM130.084 21.42C130.404 20.9 130.864 20.48 131.464 20.16C132.064 19.84 132.75 19.68 133.524 19.68C134.444 19.68 135.277 19.9133 136.024 20.38C136.77 20.8467 137.357 21.5133 137.784 22.38C138.224 23.2467 138.444 24.2533 138.444 25.4C138.444 26.5467 138.224 27.56 137.784 28.44C137.357 29.3067 136.77 29.98 136.024 30.46C135.277 30.9267 134.444 31.16 133.524 31.16C132.737 31.16 132.05 31.0067 131.464 30.7C130.877 30.38 130.417 29.96 130.084 29.44V31H126.664V16.2H130.084V21.42ZM134.964 25.4C134.964 24.5467 134.724 23.88 134.244 23.4C133.777 22.9067 133.197 22.66 132.504 22.66C131.824 22.66 131.244 22.9067 130.764 23.4C130.297 23.8933 130.064 24.5667 130.064 25.42C130.064 26.2733 130.297 26.9467 130.764 27.44C131.244 27.9333 131.824 28.18 132.504 28.18C133.184 28.18 133.764 27.9333 134.244 27.44C134.724 26.9333 134.964 26.2533 134.964 25.4ZM150.758 25.24C150.758 25.56 150.738 25.8933 150.698 26.24H142.958C143.011 26.9333 143.231 27.4667 143.618 27.84C144.018 28.2 144.505 28.38 145.078 28.38C145.931 28.38 146.525 28.02 146.858 27.3H150.498C150.311 28.0333 149.971 28.6933 149.478 29.28C148.998 29.8667 148.391 30.3267 147.658 30.66C146.925 30.9933 146.105 31.16 145.198 31.16C144.105 31.16 143.131 30.9267 142.278 30.46C141.425 29.9933 140.758 29.3267 140.278 28.46C139.798 27.5933 139.558 26.58 139.558 25.42C139.558 24.26 139.791 23.2467 140.258 22.38C140.738 21.5133 141.405 20.8467 142.258 20.38C143.111 19.9133 144.091 19.68 145.198 19.68C146.278 19.68 147.238 19.9067 148.078 20.36C148.918 20.8133 149.571 21.46 150.038 22.3C150.518 23.14 150.758 24.12 150.758 25.24ZM147.258 24.34C147.258 23.7533 147.058 23.2867 146.658 22.94C146.258 22.5933 145.758 22.42 145.158 22.42C144.585 22.42 144.098 22.5867 143.698 22.92C143.311 23.2533 143.071 23.7267 142.978 24.34H147.258ZM160.221 16.96V31H156.801V16.96H160.221ZM166.119 16.2V31H162.699V16.2H166.119ZM172.017 16.2V31H168.597V16.2H172.017ZM185.516 19.84V31H182.096V29.48C181.749 29.9733 181.276 30.3733 180.676 30.68C180.089 30.9733 179.436 31.12 178.716 31.12C177.863 31.12 177.109 30.9333 176.456 30.56C175.803 30.1733 175.296 29.62 174.936 28.9C174.576 28.18 174.396 27.3333 174.396 26.36V19.84H177.796V25.9C177.796 26.6467 177.989 27.2267 178.376 27.64C178.763 28.0533 179.283 28.26 179.936 28.26C180.603 28.26 181.129 28.0533 181.516 27.64C181.903 27.2267 182.096 26.6467 182.096 25.9V19.84H185.516ZM192.512 31.16C191.539 31.16 190.672 30.9933 189.912 30.66C189.152 30.3267 188.552 29.8733 188.112 29.3C187.672 28.7133 187.426 28.06 187.372 27.34H190.752C190.792 27.7267 190.972 28.04 191.292 28.28C191.612 28.52 192.006 28.64 192.472 28.64C192.899 28.64 193.226 28.56 193.452 28.4C193.692 28.2267 193.812 28.0067 193.812 27.74C193.812 27.42 193.646 27.1867 193.312 27.04C192.979 26.88 192.439 26.7067 191.692 26.52C190.892 26.3333 190.226 26.14 189.692 25.94C189.159 25.7267 188.699 25.4 188.312 24.96C187.926 24.5067 187.732 23.9 187.732 23.14C187.732 22.5 187.906 21.92 188.252 21.4C188.612 20.8667 189.132 20.4467 189.812 20.14C190.506 19.8333 191.326 19.68 192.272 19.68C193.672 19.68 194.772 20.0267 195.572 20.72C196.386 21.4133 196.852 22.3333 196.972 23.48H193.812C193.759 23.0933 193.586 22.7867 193.292 22.56C193.012 22.3333 192.639 22.22 192.172 22.22C191.772 22.22 191.466 22.3 191.252 22.46C191.039 22.6067 190.932 22.8133 190.932 23.08C190.932 23.4 191.099 23.64 191.432 23.8C191.779 23.96 192.312 24.12 193.032 24.28C193.859 24.4933 194.532 24.7067 195.052 24.92C195.572 25.12 196.026 25.4533 196.412 25.92C196.812 26.3733 197.019 26.9867 197.032 27.76C197.032 28.4133 196.846 29 196.472 29.52C196.112 30.0267 195.586 30.4267 194.892 30.72C194.212 31.0133 193.419 31.16 192.512 31.16ZM205.345 28.1V31H203.605C202.365 31 201.398 30.7 200.705 30.1C200.011 29.4867 199.665 28.4933 199.665 27.12V22.68H198.305V19.84H199.665V17.12H203.085V19.84H205.325V22.68H203.085V27.16C203.085 27.4933 203.165 27.7333 203.325 27.88C203.485 28.0267 203.751 28.1 204.125 28.1H205.345ZM210.67 21.7C211.07 21.0867 211.57 20.6067 212.17 20.26C212.77 19.9 213.436 19.72 214.17 19.72V23.34H213.23C212.376 23.34 211.736 23.5267 211.31 23.9C210.883 24.26 210.67 24.9 210.67 25.82V31H207.25V19.84H210.67V21.7ZM215.124 25.4C215.124 24.2533 215.338 23.2467 215.764 22.38C216.204 21.5133 216.798 20.8467 217.544 20.38C218.291 19.9133 219.124 19.68 220.044 19.68C220.831 19.68 221.518 19.84 222.104 20.16C222.704 20.48 223.164 20.9 223.484 21.42V19.84H226.904V31H223.484V29.42C223.151 29.94 222.684 30.36 222.084 30.68C221.498 31 220.811 31.16 220.024 31.16C219.118 31.16 218.291 30.9267 217.544 30.46C216.798 29.98 216.204 29.3067 215.764 28.44C215.338 27.56 215.124 26.5467 215.124 25.4ZM223.484 25.42C223.484 24.5667 223.244 23.8933 222.764 23.4C222.298 22.9067 221.724 22.66 221.044 22.66C220.364 22.66 219.784 22.9067 219.304 23.4C218.838 23.88 218.604 24.5467 218.604 25.4C218.604 26.2533 218.838 26.9333 219.304 27.44C219.784 27.9333 220.364 28.18 221.044 28.18C221.724 28.18 222.298 27.9333 222.764 27.44C223.244 26.9467 223.484 26.2733 223.484 25.42ZM235.599 28.1V31H233.859C232.619 31 231.652 30.7 230.959 30.1C230.265 29.4867 229.919 28.4933 229.919 27.12V22.68H228.559V19.84H229.919V17.12H233.339V19.84H235.579V22.68H233.339V27.16C233.339 27.4933 233.419 27.7333 233.579 27.88C233.739 28.0267 234.005 28.1 234.379 28.1H235.599ZM242.584 31.16C241.49 31.16 240.504 30.9267 239.624 30.46C238.757 29.9933 238.07 29.3267 237.564 28.46C237.07 27.5933 236.824 26.58 236.824 25.42C236.824 24.2733 237.077 23.2667 237.584 22.4C238.09 21.52 238.784 20.8467 239.664 20.38C240.544 19.9133 241.53 19.68 242.624 19.68C243.717 19.68 244.704 19.9133 245.584 20.38C246.464 20.8467 247.157 21.52 247.664 22.4C248.17 23.2667 248.424 24.2733 248.424 25.42C248.424 26.5667 248.164 27.58 247.644 28.46C247.137 29.3267 246.437 29.9933 245.544 30.46C244.664 30.9267 243.677 31.16 242.584 31.16ZM242.584 28.2C243.237 28.2 243.79 27.96 244.244 27.48C244.71 27 244.944 26.3133 244.944 25.42C244.944 24.5267 244.717 23.84 244.264 23.36C243.824 22.88 243.277 22.64 242.624 22.64C241.957 22.64 241.404 22.88 240.964 23.36C240.524 23.8267 240.304 24.5133 240.304 25.42C240.304 26.3133 240.517 27 240.944 27.48C241.384 27.96 241.93 28.2 242.584 28.2ZM253.658 21.7C254.058 21.0867 254.558 20.6067 255.158 20.26C255.758 19.9 256.425 19.72 257.158 19.72V23.34H256.218C255.365 23.34 254.725 23.5267 254.298 23.9C253.871 24.26 253.658 24.9 253.658 25.82V31H250.238V19.84H253.658V21.7Z" fill="black"/>
</g>
<defs>
<clipPath id="clip0_5039_1037">
<rect width="48" height="48" fill="white" transform="translate(20.3691)"/>
</clipPath>
</defs>
</svg>
