<svg width="178" height="44" viewBox="0 0 178 44" fill="none" xmlns="http://www.w3.org/2000/svg">
<g style="mix-blend-mode:luminosity" clip-path="url(#clip0_5039_1167)">
<mask id="mask0_5039_1167" style="mask-type:luminance" maskUnits="userSpaceOnUse" x="0" y="0" width="178" height="44">
<path d="M177.629 0.759766H0.628906V43.2399H177.629V0.759766Z" fill="white"/>
</mask>
<g mask="url(#mask0_5039_1167)">
<path d="M43.2859 0.759766H0.628906V43.4169H43.2859V0.759766Z" fill="#111111"/>
<path d="M22.6614 12.6667L18.2647 31.5102H11.0762C11.795 28.3262 12.779 25.2081 14.0179 22.1882C15.4502 18.9065 17.102 15.7251 18.9621 12.6655L22.6614 12.6667Z" fill="white"/>
<path d="M32.8333 12.6667L28.4366 31.5102H21.248C21.9669 28.3262 22.951 25.2081 24.1899 22.1882C25.6221 18.9065 27.2739 15.7251 29.134 12.6655L32.8333 12.6667Z" fill="white"/>
<path d="M56.7246 30.2606H59.6747L60.9962 26.0834H67.439L68.7842 30.2606H72.041L66.4715 13.3865H62.3651L56.7246 30.2606ZM64.2294 15.959L66.7074 23.7942H61.7279L64.2294 15.959ZM78.2478 30.473C78.9061 30.4876 79.5616 30.3837 80.183 30.1662V27.9006C79.7397 28.0728 79.266 28.1532 78.7907 28.1366C77.8938 28.1366 77.3747 27.641 77.3747 26.5554V20.0654H80.0886V17.9177H77.3747V15.2038H74.519V17.9177H72.867V20.0654H74.519V26.815C74.4637 27.3151 74.5227 27.8211 74.6916 28.295C74.8606 28.7689 75.1349 29.1983 75.494 29.5506C75.8532 29.9029 76.2877 30.169 76.7647 30.3288C77.2418 30.4886 77.7489 30.5379 78.2478 30.473ZM86.9562 30.473C87.6145 30.4876 88.27 30.3837 88.8914 30.1662V27.9006C88.4481 28.0728 87.9744 28.1532 87.4991 28.1366C86.6022 28.1366 86.0831 27.641 86.0831 26.5554V20.0654H88.797V17.9177H86.0831V15.2038H83.2274V17.9177H81.5754V20.0654H83.2274V26.815C83.1721 27.3151 83.2311 27.8211 83.4 28.295C83.569 28.7689 83.8433 29.1983 84.2024 29.5506C84.5616 29.9029 84.9961 30.169 85.4731 30.3288C85.9502 30.4886 86.4573 30.5379 86.9562 30.473ZM91.464 30.2606H94.3191V23.8414C94.3191 21.2218 95.8298 20.4194 98.3317 20.3957V17.729C97.4865 17.6827 96.6484 17.8981 95.9298 18.3457C95.212 18.7934 94.65 19.4516 94.3191 20.2306V17.9177H91.464V30.2606ZM102.296 15.8882C102.515 15.8944 102.733 15.8571 102.937 15.7784C103.142 15.6997 103.328 15.5811 103.487 15.4295C103.644 15.278 103.771 15.0966 103.858 14.8957C103.946 14.6949 103.992 14.4787 103.996 14.2598C103.996 14.0388 103.951 13.82 103.866 13.6164C103.78 13.4129 103.653 13.2286 103.495 13.0746C103.336 12.9206 103.149 12.7998 102.943 12.7197C102.737 12.6395 102.517 12.6014 102.296 12.6077C102.075 12.6014 101.856 12.6395 101.65 12.7197C101.443 12.7998 101.256 12.9206 101.097 13.0746C100.939 13.2286 100.813 13.4129 100.727 13.6164C100.642 13.82 100.597 14.0388 100.597 14.2598C100.6 14.4787 100.647 14.6949 100.734 14.8957C100.821 15.0966 100.948 15.278 101.106 15.4295C101.264 15.5811 101.45 15.6997 101.655 15.7784C101.859 15.8571 102.077 15.8944 102.296 15.8882ZM100.903 30.2606H103.759V17.9177H100.903V30.2606ZM114.12 30.4966C117.306 30.4966 119.595 28.0894 119.595 24.1246V23.9358C119.595 19.9474 117.211 17.6582 114.12 17.6582C113.312 17.6598 112.518 17.8664 111.813 18.2586C111.107 18.6506 110.512 19.2155 110.084 19.9001V12.2065H107.229V30.2606H110.084V28.2782C110.486 28.9844 111.077 29.5655 111.789 29.9571C112.501 30.3487 113.308 30.5354 114.12 30.4966ZM113.412 28.231C111.335 28.231 109.99 26.933 109.99 24.1718V23.983C109.99 21.2453 111.406 19.9001 113.388 19.9001C115.253 19.9001 116.669 21.2453 116.669 23.983V24.1718C116.669 26.815 115.512 28.231 113.412 28.231ZM126.298 30.4966C127.09 30.5465 127.879 30.3685 128.574 29.9837C129.268 29.599 129.838 29.0236 130.215 28.3254V30.2606H133.071V17.9177H130.215V25.2574C130.243 25.6459 130.189 26.0361 130.054 26.402C129.921 26.7679 129.711 27.1013 129.439 27.3801C129.167 27.659 128.838 27.8769 128.477 28.0194C128.114 28.162 127.725 28.2261 127.336 28.2074C125.683 28.2074 124.905 27.3578 124.905 25.4934V17.9177H122.05V25.8238C122.05 29.1042 123.867 30.4966 126.298 30.4966ZM140.646 30.473C141.305 30.4876 141.96 30.3837 142.582 30.1662V27.9006C142.138 28.0728 141.665 28.1532 141.189 28.1366C140.292 28.1366 139.773 27.641 139.773 26.5554V20.0654H142.487V17.9177H139.773V15.2038H136.918V17.9177H135.265V20.0654H136.918V26.815C136.862 27.3151 136.921 27.8211 137.09 28.295C137.259 28.7689 137.534 29.1983 137.892 29.5506C138.251 29.9029 138.686 30.169 139.163 30.3288C139.64 30.4886 140.147 30.5379 140.646 30.473ZM150.582 30.4966C153.744 30.4966 155.844 29.0806 156.246 26.4846H153.485C153.272 27.6882 152.375 28.3726 150.653 28.3726C148.529 28.3726 147.348 27.051 147.254 24.7146H156.293V23.8886C156.293 19.4753 153.532 17.6582 150.463 17.6582C149.632 17.6377 148.806 17.7905 148.036 18.1066C147.267 18.4227 146.571 18.8954 145.994 19.4946C145.417 20.0938 144.971 20.8064 144.684 21.5872C144.398 22.3681 144.276 23.2 144.328 24.0302V24.219C144.275 25.0551 144.4 25.8929 144.695 26.677C144.991 27.4611 145.449 28.1734 146.04 28.767C146.631 29.3605 147.342 29.8217 148.125 30.1198C148.909 30.418 149.746 30.5465 150.582 30.4966ZM147.301 22.803C147.327 21.9811 147.671 21.2012 148.262 20.6286C148.852 20.056 149.641 19.7355 150.463 19.735C152.233 19.735 153.319 20.6789 153.461 22.803H147.301ZM163.184 30.4966C166.347 30.4966 168.117 29.057 168.117 26.5554C168.117 23.9358 166.393 23.2278 163.491 22.7794C161.532 22.449 160.942 22.095 160.942 21.1982C160.942 20.3249 161.674 19.735 162.901 19.735C163.154 19.6938 163.414 19.7044 163.662 19.7659C163.912 19.8274 164.146 19.9387 164.351 20.093C164.555 20.2473 164.727 20.4415 164.855 20.6639C164.984 20.8862 165.065 21.1322 165.096 21.3869H167.739C167.432 18.6022 165.426 17.6582 162.901 17.6582C160.588 17.6582 158.275 18.8854 158.275 21.3634C158.275 23.6762 159.479 24.5966 162.736 25.1158C164.553 25.4226 165.379 25.8002 165.379 26.815C165.379 27.8534 164.694 28.3962 163.161 28.3962C161.485 28.3962 160.848 27.6646 160.706 26.4138H158.016C158.134 29.0334 159.998 30.4966 163.184 30.4966Z" fill="#111111"/>
</g>
</g>
<defs>
<clipPath id="clip0_5039_1167">
<rect width="177" height="42.4802" fill="white" transform="translate(0.630859 0.759766)"/>
</clipPath>
</defs>
</svg>
