<svg width="187" height="40" viewBox="0 0 187 40" fill="none" xmlns="http://www.w3.org/2000/svg">
<g style="mix-blend-mode:luminosity" clip-path="url(#clip0_5039_1145)">
<mask id="mask0_5039_1145" style="mask-type:luminance" maskUnits="userSpaceOnUse" x="0" y="0" width="187" height="40">
<path d="M186.422 0.245117H0.632812V39.7495H186.422V0.245117Z" fill="white"/>
</mask>
<g mask="url(#mask0_5039_1145)">
<path d="M38.9027 1.47963V38.515H1.86733V1.47963H38.9027ZM40.1372 0.245117H0.632812V39.7495H40.1372V0.245117Z" fill="#111111"/>
<path d="M35.1967 5.18262H22.8516V9.50341H35.1967V5.18262Z" fill="#2D40EA"/>
<path d="M22.8516 13.8247H35.1967V17.5282H27.1724V22.4663H33.3449V25.5526H27.1724V34.1941H22.8516V13.8247Z" fill="#111111"/>
<path d="M18.5326 29.8735H6.1875V34.1943H18.5326V29.8735Z" fill="#8600A1"/>
<path d="M10.5083 9.50341V21.2313H18.5326V25.5521H6.1875V5.18262H18.5326V9.50341H10.5083Z" fill="#111111"/>
<path d="M60.9149 30.2124C65.3221 30.2124 68.485 27.957 69.0294 23.4979H65.6592C65.2962 26.1163 63.4815 27.4126 60.9149 27.4126C57.4929 27.4126 55.4967 24.9497 55.4967 20.7758V20.5684C55.4967 16.4205 57.6225 13.8799 60.889 13.8799C63.5593 13.8799 64.9333 15.1502 65.3222 17.613H68.822C68.4072 13.2577 65.1147 11.1318 60.8631 11.1318C55.7041 11.1318 51.8672 15.0205 51.8672 20.5944V20.8018C51.8672 26.5052 55.1078 30.2124 60.9149 30.2124Z" fill="#111111"/>
<path d="M71.832 29.954H74.9689V10.1216H71.832V29.954Z" fill="#111111"/>
<path d="M80.4017 14.1656C81.4387 14.1656 82.2683 13.3878 82.2683 12.3767C82.2683 11.3398 81.4387 10.562 80.4017 10.562C79.3647 10.562 78.5352 11.3398 78.5352 12.3767C78.5352 13.3878 79.3647 14.1656 80.4017 14.1656ZM78.8722 29.9537H82.0091V16.3951H78.8722V29.9537Z" fill="#111111"/>
<path d="M91.7963 30.2119C95.2702 30.2119 97.5771 28.6565 98.0182 25.8047H94.9846C94.7517 27.1269 93.7665 27.8787 91.8736 27.8787C89.5404 27.8787 88.2442 26.4269 88.1405 23.8604H98.0701V22.953C98.0701 18.1051 95.0364 16.1089 91.6662 16.1089C87.8038 16.1089 84.9258 18.9088 84.9258 23.1086V23.316C84.9258 27.5935 87.8038 30.2119 91.7963 30.2119ZM88.1923 21.7605C88.5034 19.6606 89.7741 18.3903 91.6662 18.3903C93.611 18.3903 94.8035 19.4273 94.9591 21.7605H88.1923Z" fill="#111111"/>
<path d="M100.871 29.9527H104.008V21.9679C104.008 19.8161 105.434 18.7273 107.197 18.7273C109.063 18.7273 109.893 19.6606 109.893 21.7086V29.9527H113.03V21.4235C113.03 17.6903 111.112 16.1089 108.389 16.1089C106.16 16.1089 104.656 17.2236 104.008 18.5458V16.3941H100.871V29.9527Z" fill="#111111"/>
<path d="M121.255 30.1869C122.213 30.1869 122.887 30.0313 123.38 29.8499V27.3611C122.939 27.5426 122.473 27.6203 121.85 27.6203C120.865 27.6203 120.295 27.0759 120.295 25.8834V18.7541H123.277V16.3949H120.295V13.4136H117.158V16.3949H115.344V18.7541H117.158V26.1685C117.158 28.7351 118.558 30.1869 121.255 30.1869Z" fill="#111111"/>
<path d="M125.797 24.0168H132.019V21.4243H125.797V24.0168Z" fill="#111111"/>
<path d="M135.605 29.9537H139.053V22.3577H145.379V19.6875H139.053V14.1655H147.09V11.4175H135.605V29.9537Z" fill="#111111"/>
<path d="M151.187 14.1656C152.224 14.1656 153.053 13.3878 153.053 12.3767C153.053 11.3398 152.224 10.562 151.187 10.562C150.15 10.562 149.32 11.3398 149.32 12.3767C149.32 13.3878 150.15 14.1656 151.187 14.1656ZM149.657 29.9537H152.794V16.3951H149.657V29.9537Z" fill="#111111"/>
<path d="M156.615 29.954H159.753V22.9025C159.753 20.0248 161.412 19.1434 164.16 19.1175V16.188C161.878 16.2139 160.608 17.225 159.753 18.936V16.3954H156.615V29.954Z" fill="#111111"/>
<path d="M171.511 30.2119C174.985 30.2119 176.93 28.6305 176.93 25.8825C176.93 23.0049 175.037 22.2271 171.849 21.7346C169.696 21.3716 169.049 20.9827 169.049 19.9976C169.049 19.0384 169.852 18.3903 171.2 18.3903C172.652 18.3903 173.352 18.9606 173.611 20.205H176.515C176.178 17.1459 173.974 16.1089 171.2 16.1089C168.659 16.1089 166.119 17.457 166.119 20.1791C166.119 22.7197 167.441 23.7308 171.019 24.3011C173.015 24.6381 173.923 25.0529 173.923 26.1677C173.923 27.3084 173.17 27.9046 171.486 27.9046C169.645 27.9046 168.945 27.101 168.789 25.727H165.834C165.963 28.6046 168.012 30.2119 171.511 30.2119Z" fill="#111111"/>
<path d="M184.296 30.1869C185.255 30.1869 185.929 30.0313 186.421 29.8499V27.3611C185.981 27.5426 185.514 27.6203 184.892 27.6203C183.907 27.6203 183.337 27.0759 183.337 25.8834V18.7541H186.318V16.3949H183.337V13.4136H180.2V16.3949H178.385V18.7541H180.2V26.1685C180.2 28.7351 181.599 30.1869 184.296 30.1869Z" fill="#111111"/>
</g>
</g>
<defs>
<clipPath id="clip0_5039_1145">
<rect width="186" height="39.5044" fill="white" transform="translate(0.630859 0.248047)"/>
</clipPath>
</defs>
</svg>
