<svg width="145" height="48" viewBox="0 0 145 48" fill="none" xmlns="http://www.w3.org/2000/svg">
<g style="mix-blend-mode:luminosity">
<path d="M61.3715 9.43311L58.2735 44.1393L44.3476 48L30.46 44.1447L27.3652 9.43311H61.3715Z" fill="#004CE8"/>
<path d="M55.622 41.9295L58.2695 12.2715H44.3691V45.0492L55.622 41.9295Z" fill="#0065F4"/>
<path d="M34.4609 25.1455L34.8425 29.4027H44.3694L46.2006 27.2741L44.3694 25.1455H34.4609Z" fill="#EBEBEB"/>
<path d="M44.3685 16.5288H44.3538H33.6934L34.0804 20.7861H44.3685L46.1997 18.6574L44.3685 16.5288Z" fill="#EBEBEB"/>
<path d="M44.3679 40.6312L46.1991 38.3736L44.3679 36.2019L44.3492 36.2068L39.6079 34.9266L39.3048 31.5312H37.0009H35.0312L35.6277 38.2157L44.3483 40.6366L44.3679 40.6312Z" fill="#EBEBEB"/>
<path d="M35.3691 0H40.5254V2.15625H37.5254V4.3125H40.5254V6.46875H35.3691V0Z" fill="black"/>
<path d="M41.5566 0H46.7129V1.875H43.7129V2.25H46.7129V6.5625H41.5566V4.59375H44.5566V4.21875H41.5566V0Z" fill="black"/>
<path d="M47.7441 0H52.9004V1.875H49.9004V2.25H52.9004V6.5625H47.7441V4.59375H50.7441V4.21875H47.7441V0Z" fill="black"/>
<path d="M49.5958 29.4027L49.1017 34.9241L44.3535 36.2056V40.6347L53.0811 38.2159L53.1451 37.4967L54.1455 26.2887L54.2494 25.1456L55.018 16.5288H44.3535V20.7861H50.3524L49.965 25.1456H44.3535V29.4027H49.5958Z" fill="white"/>
<path d="M85.0291 23.96C85.0291 22.5733 85.3291 21.34 85.9291 20.26C86.5291 19.1667 87.3625 18.32 88.4291 17.72C89.5091 17.1067 90.7291 16.8 92.0891 16.8C93.7558 16.8 95.1825 17.24 96.3691 18.12C97.5558 19 98.3491 20.2 98.7491 21.72H94.9891C94.7091 21.1333 94.3091 20.6867 93.7891 20.38C93.2825 20.0733 92.7025 19.92 92.0491 19.92C90.9958 19.92 90.1425 20.2867 89.4891 21.02C88.8358 21.7533 88.5091 22.7333 88.5091 23.96C88.5091 25.1867 88.8358 26.1667 89.4891 26.9C90.1425 27.6333 90.9958 28 92.0491 28C92.7025 28 93.2825 27.8467 93.7891 27.54C94.3091 27.2333 94.7091 26.7867 94.9891 26.2H98.7491C98.3491 27.72 97.5558 28.92 96.3691 29.8C95.1825 30.6667 93.7558 31.1 92.0891 31.1C90.7291 31.1 89.5091 30.8 88.4291 30.2C87.3625 29.5867 86.5291 28.74 85.9291 27.66C85.3291 26.58 85.0291 25.3467 85.0291 23.96ZM105.924 31.14C104.897 31.14 103.977 30.9733 103.164 30.64C102.35 30.3067 101.697 29.8133 101.204 29.16C100.724 28.5067 100.47 27.72 100.444 26.8H104.084C104.137 27.32 104.317 27.72 104.624 28C104.93 28.2667 105.33 28.4 105.824 28.4C106.33 28.4 106.73 28.2867 107.024 28.06C107.317 27.82 107.464 27.4933 107.464 27.08C107.464 26.7333 107.344 26.4467 107.104 26.22C106.877 25.9933 106.59 25.8067 106.244 25.66C105.91 25.5133 105.43 25.3467 104.804 25.16C103.897 24.88 103.157 24.6 102.584 24.32C102.01 24.04 101.517 23.6267 101.104 23.08C100.69 22.5333 100.484 21.82 100.484 20.94C100.484 19.6333 100.957 18.6133 101.904 17.88C102.85 17.1333 104.084 16.76 105.604 16.76C107.15 16.76 108.397 17.1333 109.344 17.88C110.29 18.6133 110.797 19.64 110.864 20.96H107.164C107.137 20.5067 106.97 20.1533 106.664 19.9C106.357 19.6333 105.964 19.5 105.484 19.5C105.07 19.5 104.737 19.6133 104.484 19.84C104.23 20.0533 104.104 20.3667 104.104 20.78C104.104 21.2333 104.317 21.5867 104.744 21.84C105.17 22.0933 105.837 22.3667 106.744 22.66C107.65 22.9667 108.384 23.26 108.944 23.54C109.517 23.82 110.01 24.2267 110.424 24.76C110.837 25.2933 111.044 25.98 111.044 26.82C111.044 27.62 110.837 28.3467 110.424 29C110.024 29.6533 109.437 30.1733 108.664 30.56C107.89 30.9467 106.977 31.14 105.924 31.14ZM118.228 31.14C117.202 31.14 116.282 30.9733 115.468 30.64C114.655 30.3067 114.002 29.8133 113.508 29.16C113.028 28.5067 112.775 27.72 112.748 26.8H116.388C116.442 27.32 116.622 27.72 116.928 28C117.235 28.2667 117.635 28.4 118.128 28.4C118.635 28.4 119.035 28.2867 119.328 28.06C119.622 27.82 119.768 27.4933 119.768 27.08C119.768 26.7333 119.648 26.4467 119.408 26.22C119.182 25.9933 118.895 25.8067 118.548 25.66C118.215 25.5133 117.735 25.3467 117.108 25.16C116.202 24.88 115.462 24.6 114.888 24.32C114.315 24.04 113.822 23.6267 113.408 23.08C112.995 22.5333 112.788 21.82 112.788 20.94C112.788 19.6333 113.262 18.6133 114.208 17.88C115.155 17.1333 116.388 16.76 117.908 16.76C119.455 16.76 120.702 17.1333 121.648 17.88C122.595 18.6133 123.102 19.64 123.168 20.96H119.468C119.442 20.5067 119.275 20.1533 118.968 19.9C118.662 19.6333 118.268 19.5 117.788 19.5C117.375 19.5 117.042 19.6133 116.788 19.84C116.535 20.0533 116.408 20.3667 116.408 20.78C116.408 21.2333 116.622 21.5867 117.048 21.84C117.475 22.0933 118.142 22.3667 119.048 22.66C119.955 22.9667 120.688 23.26 121.248 23.54C121.822 23.82 122.315 24.2267 122.728 24.76C123.142 25.2933 123.348 25.98 123.348 26.82C123.348 27.62 123.142 28.3467 122.728 29C122.328 29.6533 121.742 30.1733 120.968 30.56C120.195 30.9467 119.282 31.14 118.228 31.14Z" fill="black"/>
</g>
</svg>
