<svg width="24" height="25" viewBox="0 0 24 25" fill="none" xmlns="http://www.w3.org/2000/svg">
<g clip-path="url(#clip0_6049_6673)">
<path d="M12.0273 12.2429C12.0273 10.0338 13.8182 8.24292 16.0273 8.24292C18.2365 8.24292 20.0273 10.0338 20.0273 12.2429C20.0273 14.4521 18.2364 16.2429 16.0273 16.2429C13.8182 16.2429 12.0273 14.452 12.0273 12.2429Z" fill="#00BCFF"/>
<path d="M4.02637 20.2428C4.02637 18.0337 5.81723 16.2429 8.02635 16.2429L10.158 15.1174L12.0263 16.2429V20.2428C12.0263 22.452 10.2355 24.2428 8.02635 24.2428C5.81723 24.2428 4.02637 22.452 4.02637 20.2428Z" fill="#00CF7F"/>
<path d="M12.0272 0.242676L9.85059 4.02408L12.0272 8.24264H15.9711C18.1802 8.24264 19.971 6.45179 19.971 4.24266C19.971 2.03354 18.1802 0.242676 15.9711 0.242676H12.0272Z" fill="#FF7361"/>
<path d="M3.9707 4.24266C3.9707 6.45178 5.76156 8.24264 7.97069 8.24264L10.0926 9.06221L12.0268 8.24264V0.242676H7.97064C5.76156 0.242676 3.9707 2.03354 3.9707 4.24266Z" fill="#FF4D12"/>
<path d="M4.02637 12.243C4.02637 14.4521 5.81723 16.2429 8.02635 16.2429H12.0263V8.24292H8.02635C5.81723 8.24292 4.02637 10.0338 4.02637 12.243Z" fill="#B659FF"/>
</g>
<defs>
<clipPath id="clip0_6049_6673">
<rect width="24" height="24" fill="white" transform="translate(0 0.242676)"/>
</clipPath>
</defs>
</svg>
