<svg width="227" height="42" viewBox="0 0 227 42" fill="none" xmlns="http://www.w3.org/2000/svg">
<g style="mix-blend-mode:luminosity" clip-path="url(#clip0_5039_1134)">
<path d="M197.861 31.5875V36.4896H193.748C189.36 36.3517 187.016 33.9821 187.016 29.5313V18.3354H184.145V14.0351H187.016V9.2207H193.084V13.9849H197.723V18.2727H193.084V28.9295C193.084 30.3713 193.372 31.5248 195.591 31.5248L197.861 31.5875Z" fill="#111111"/>
<path d="M159.967 25.3013V24.9753C159.901 23.5333 160.12 22.0925 160.613 20.7356C161.105 19.3786 161.861 18.1321 162.835 17.0676C163.81 16.0031 164.985 15.1414 166.294 14.532C167.603 13.9225 169.019 13.5773 170.46 13.5161C170.749 13.5161 171.05 13.5161 171.338 13.5161C177.068 13.5161 182.095 16.8511 182.095 24.7998V26.4923H166.173C166.336 30.1533 168.317 32.222 171.652 32.222C174.523 32.222 175.864 30.9682 176.253 29.1377H181.982C181.28 33.9145 177.469 36.5724 171.438 36.5724C164.819 36.5223 159.967 32.3348 159.967 25.3013ZM176.127 22.6559C175.914 19.3209 174.234 17.7162 171.313 17.7162C168.392 17.7162 166.712 19.5215 166.298 22.6559H176.127Z" fill="#111111"/>
<path d="M135.187 25.3013V24.9753C135.121 23.5354 135.34 22.0966 135.831 20.7412C136.322 19.3858 137.075 18.1404 138.047 17.0762C139.019 16.012 140.191 15.1497 141.497 14.5389C142.803 13.9281 144.216 13.5805 145.656 13.5161C145.945 13.5161 146.245 13.5161 146.534 13.5161C152.263 13.5161 157.304 16.8511 157.304 24.7998V26.4923H141.393C141.556 30.1533 143.537 32.222 146.872 32.222C149.743 32.222 151.085 30.9682 151.474 29.1377H157.203C156.489 33.9145 152.677 36.5724 146.647 36.5724C140.039 36.5223 135.187 32.3348 135.187 25.3013ZM151.348 22.6559C151.135 19.3209 149.455 17.7162 146.534 17.7162C143.613 17.7162 141.983 19.5717 141.519 22.6434L151.348 22.6559Z" fill="#111111"/>
<path d="M100.424 13.979H106.843L110.767 28.8484L115.068 13.979H120.083L123.969 28.8484L128.107 13.979H133.987L127.016 36.0699H120.998L117.237 22.2036L113.212 36.0699H107.119L100.424 13.979Z" fill="#111111"/>
<path d="M80.0215 29.1265H85.7511C86.0144 31.12 87.0049 32.2609 89.6378 32.2609C91.9949 32.2609 93.0856 31.3707 93.0856 29.8537C93.0856 28.3367 91.8319 27.6973 88.6223 27.2459C82.7421 26.3558 80.4728 24.6632 80.4728 20.3503C80.4728 15.7491 84.6855 13.4673 89.2491 13.4673C94.1513 13.4673 97.8499 15.2476 98.3765 20.3253H92.722C92.6861 19.9327 92.5724 19.5512 92.3877 19.2027C92.2038 18.8544 91.9522 18.5459 91.648 18.2953C91.3437 18.0446 90.9927 17.8568 90.6157 17.7425C90.2379 17.6283 89.8417 17.5899 89.4497 17.6297H89.2617C87.2807 17.6297 86.1273 18.5575 86.1273 19.9115C86.1273 21.2656 87.193 21.8548 90.4277 22.3187C95.9191 23.1462 98.9908 24.5378 98.9908 29.2644C98.9908 33.991 95.5179 36.5236 89.7005 36.5236C83.8831 36.5236 80.1845 33.9033 80.0215 29.1265Z" fill="#111111"/>
<path d="M55.6836 13.9797H61.7518V17.4777C62.4357 16.1937 63.4739 15.1332 64.743 14.422C66.012 13.7108 67.4585 13.3789 68.9107 13.4657C73.2111 13.4657 76.333 16.086 76.333 22.0664V36.1208H70.34V22.944C70.34 19.9475 69.174 18.5183 66.4659 18.5183C65.8935 18.4684 65.317 18.5321 64.7692 18.7057C64.2215 18.8793 63.7135 19.1593 63.2743 19.5298C62.8351 19.9003 62.4734 20.3538 62.21 20.8644C61.9466 21.375 61.7866 21.9326 61.7392 22.5052C61.7079 22.7717 61.7079 23.041 61.7392 23.3076V36.0707H55.6836V13.9797Z" fill="#111111"/>
<path d="M43.959 8.42416C43.9371 7.81915 44.0951 7.22121 44.4131 6.70606C44.7311 6.1909 45.1949 5.7817 45.7456 5.53025C46.2964 5.2788 46.9093 5.19641 47.5069 5.29352C48.1045 5.39062 48.6598 5.66286 49.1025 6.07576C49.5454 6.48866 49.8556 7.02365 49.9942 7.613C50.1327 8.20235 50.0933 8.81955 49.8809 9.38645C49.6684 9.95339 49.2925 10.4445 48.8008 10.7977C48.3091 11.1509 47.7236 11.3502 47.1185 11.3705H47.0057C46.6301 11.3942 46.2536 11.3436 45.8976 11.2215C45.5417 11.0995 45.2134 10.9082 44.9315 10.659C44.6496 10.4098 44.4197 10.1073 44.2549 9.76893C44.0903 9.43058 43.9939 9.06308 43.9716 8.68745C43.9611 8.6001 43.957 8.51212 43.959 8.42416ZM43.959 13.9782H50.0899V36.0692H43.9841L43.959 13.9782Z" fill="#111111"/>
<path d="M20.8633 5.88184H40.2464V11.2353H27.7088V19.2216H37.6385V24.3745H27.6963V36.0719H20.8633V5.88184Z" fill="#111111"/>
<path d="M9.16068 15.7597C9.16068 17.6528 9.16068 19.9597 6.55286 20.9C9.22336 21.8152 9.16068 23.7585 9.16068 25.7896V33.3121C9.16068 34.7413 9.7374 35.6064 10.7655 35.8196C10.9914 35.8958 11.2294 35.9298 11.4676 35.9199H13.9751V40.9348H9.8377C5.42448 40.9348 2.9922 38.4273 2.9922 33.776V24.8744C2.96089 24.4173 2.75939 23.9887 2.42746 23.673C2.09554 23.3574 1.65732 23.1776 1.19932 23.1693H0.121094V18.7687H1.19932C1.66646 18.7625 2.11329 18.5767 2.44711 18.2499C2.78093 17.9231 2.97613 17.4803 2.9922 17.0134V7.98646C2.9922 3.4103 5.37433 0.94043 9.8377 0.94043H14.0127V5.88018H11.5052C11.2667 5.88087 11.0298 5.91894 10.8031 5.99301C9.77502 6.2563 9.19829 7.10884 9.19829 8.5005L9.16068 15.7597Z" fill="#111111"/>
<path fill-rule="evenodd" clip-rule="evenodd" d="M217.436 14.3154H212.421L212.428 22.6863L204.062 22.6942V27.6887H212.433L212.442 36.047H217.436V27.6887H225.794V22.6737L217.436 22.6816V14.3154Z" fill="#111111"/>
</g>
<defs>
<clipPath id="clip0_5039_1134">
<rect width="226.512" height="40.1198" fill="white" transform="translate(0.119141 0.939941)"/>
</clipPath>
</defs>
</svg>
