<svg width="160" height="56" viewBox="0 0 160 56" fill="none" xmlns="http://www.w3.org/2000/svg">
<g style="mix-blend-mode:luminosity" clip-path="url(#clip0_5039_1065)">
<g clip-path="url(#clip1_5039_1065)">
<path d="M28.0383 24.678C26.4547 25.4229 22.2634 28.7762 21.4561 29.7697C20.6178 30.7632 20.3694 29.2109 21.2387 26.6339C21.9216 24.5537 23.6605 21.7283 26.579 19.3067C28.2865 17.9095 32.0434 15.8915 34.3408 14.7115C34.8066 14.4631 40.8299 11.9172 46.2012 10.6442C46.667 10.52 45.6424 11.4204 45.4871 11.9172C44.6798 14.2768 28.5659 24.3984 28.5659 24.3984L28.0383 24.678ZM50.7341 53.1487C51.0135 54.8253 50.7652 54.9495 49.0266 55.1669C47.2879 55.3842 46.0149 54.7321 45.5492 54.2976C45.0834 53.8627 44.9904 52.9004 45.4561 52.0311C45.7357 51.4721 46.0151 51.2859 46.1704 50.6028C46.3256 49.9509 46.4498 49.7956 46.5739 49.5473C46.698 49.3297 46.7292 49.1124 46.7601 47.5911C46.7912 46.0699 46.7601 43.2134 46.9155 42.0026C47.0708 40.7608 52.4421 42.5614 52.4421 42.5614C52.4421 42.5614 51.169 45.7283 50.8276 46.5045C50.486 47.2808 50.5171 48.7709 50.5171 49.0814C50.5171 49.3919 50.393 50.0128 50.2997 50.0439C50.2066 50.0748 50.6102 50.8821 50.4238 51.3479C50.2996 51.7826 50.7032 52.9004 50.7341 53.1487ZM52.7834 5.67657C52.597 4.49677 52.7834 2.16795 53.0317 1.79557C53.808 0.739843 57.9062 0.615766 58.7757 1.85761C59.1482 2.41641 59.1171 3.72045 59.0551 4.55881C58.9931 5.39702 58.7757 7.19782 58.7446 7.78787C58.7137 8.2226 54.2117 8.90548 53.2181 7.72568C52.9386 7.41533 52.7834 5.67657 52.7834 5.67657ZM61.9115 50.137C63.8054 51.5032 65.2646 51.7515 66.227 52.2483C67.1895 52.7452 66.9412 53.7077 65.3266 53.9871C64.0226 54.2354 61.9735 53.7386 60.6074 53.7386C59.2414 53.7386 56.1986 53.8939 55.3913 53.3351C54.46 52.6832 54.8634 51.4721 54.8634 51.4721C55.1119 50.7893 55.7327 49.2677 55.5465 48.0259C55.3602 46.784 55.1117 46.101 54.6461 44.9521C54.1804 43.8034 53.839 40.9781 54.2737 40.8228C54.7084 40.6675 54.584 40.8228 55.143 40.9469C55.7018 41.071 56.3228 41.2574 57.5337 41.2574C58.7446 41.2574 60.0796 41.071 60.5454 40.978C61.0111 40.8848 61.3836 40.7916 61.2283 41.7542C61.0731 42.7166 60.6074 44.5174 60.5763 45.9146C60.5454 47.3117 60.5454 48.9263 60.6385 49.2057C60.7315 49.4851 61.4147 49.7956 61.9115 50.137Z" fill="#010101"/>
<path d="M55.267 8.78137C51.8518 11.731 45.2385 12.5381 35.4275 16.326C32.9126 17.2885 26.2063 20.1759 24.5918 23.1876C30.0251 20.0518 32.0433 24.3674 32.4779 28.8072C32.8814 32.9676 34.9617 35.1411 40.3019 35.0167C45.7975 34.8927 47.474 38.0905 48.9953 41.8474C51.9448 27.4721 56.6642 24.6779 59.7066 22.2252C66.1648 16.978 58.2165 7.72564 55.267 8.78137Z" fill="#8AC640"/>
<path d="M55.2662 8.78125C47.0696 11.6376 38.966 12.3518 29.4344 18.2198C27.168 19.617 22.3866 22.7837 21.4551 28.8382C24.9323 24.9881 32.9737 20.1449 42.8159 17.0711C47.7836 15.5186 51.4163 14.4941 55.825 12.7865C55.5146 10.7993 55.5146 10.0231 55.2662 8.78125Z" fill="#8AC640"/>
<path d="M65.7288 25.7956C65.7288 25.7956 65.1389 27.8137 63.9591 28.4658C63.9591 28.4658 63.0898 28.7763 61.3512 27.8139C60.8544 27.5345 60.4819 26.572 60.5128 26.2614C60.5439 25.5162 61.0096 25.1747 61.0096 25.1747C61.0096 25.1747 61.5065 24.3364 62.0962 24.3675C62.6863 24.3984 63.6798 24.4915 63.9903 24.2121C64.2696 23.9016 65.791 24.7709 65.7288 25.7956ZM53.0613 6.26648C53.0613 6.26648 52.9372 7.85006 52.7198 8.84345C52.6888 9.02987 51.7574 9.12285 51.0742 9.4024C52.3783 13.1281 60.2334 13.097 61.258 11.2652C60.7613 10.9238 59.7677 10.3959 59.302 10.2097C58.8362 10.0232 58.8673 10.0543 58.8362 9.18504C58.8053 8.31558 58.7431 6.7012 58.6809 6.26648C58.6189 5.83175 53.8064 5.83175 53.0613 6.26648Z" fill="#010101"/>
<path d="M53.3722 6.26663C53.3722 6.26663 53.3722 7.16703 53.279 8.03633C53.2481 8.43997 53.217 8.68827 53.155 8.99877C53.1239 9.18519 54.2105 9.93012 54.521 11.5757C56.0113 14.8978 59.4578 13.2523 60.8859 11.6689C60.3891 11.3273 59.5818 10.8616 58.6505 10.4891C58.1847 10.3027 58.402 9.89917 58.3711 9.02987C58.34 8.16056 58.2158 6.88747 58.1537 6.4218C58.0914 5.95613 54.1174 5.8319 53.3722 6.26663Z" fill="#F0EFEF"/>
<path d="M53.0616 6.26648C53.0616 6.26648 53.0305 6.82543 52.9375 7.47737C53.341 7.88086 53.8688 8.43981 54.2726 8.78141C54.552 9.02987 55.2349 8.99877 55.8561 8.99877C56.4149 8.99877 56.9116 9.06081 57.129 8.93673C57.6259 8.68827 58.3399 8.06743 58.7435 7.60161C58.7126 7.0428 58.6815 6.51494 58.6506 6.26648C58.6192 5.83175 53.8067 5.83175 53.0616 6.26648Z" fill="#010101"/>
<path d="M55.8879 8.62576C55.5152 8.62576 55.0805 8.59482 54.7391 8.53263C54.5837 8.50169 54.4286 8.40855 54.3043 8.34636C54.087 8.19103 53.8696 8.00492 53.6214 7.8185C53.1245 7.44596 53.0936 7.2286 53.0936 7.13561C53.3109 5.17949 53.0314 3.53401 53.0314 3.53401C53.0314 3.53401 52.814 2.69565 53.9938 2.47829C55.1736 2.26092 55.8878 2.22998 55.8878 2.22998C55.8878 2.22998 56.633 2.22998 57.7817 2.47829C58.9615 2.69565 58.7441 3.53401 58.7441 3.53401C58.7441 3.53401 58.4647 5.17949 58.6821 7.13561C58.6821 7.2286 58.6511 7.44596 58.1542 7.8185C57.7195 8.129 57.3781 8.47044 57.0366 8.53263C56.695 8.59482 56.2603 8.62576 55.8879 8.62576Z" fill="#010101"/>
<path d="M55.8874 1.42285C53.8383 1.42285 53.4345 1.98166 52.8446 2.60265C52.7206 2.75783 52.8135 3.68932 53.0311 5.67639H53.3105C53.3105 5.67639 53.124 5.11743 53.1551 4.46549C53.1862 3.81355 53.3105 3.84465 53.2172 3.68932C53.0931 3.5029 52.8446 3.1924 53.4036 2.88206C53.9624 2.57156 54.8317 3.13036 55.8874 3.16146C56.943 3.13036 57.8434 2.57156 58.4022 2.88206C58.961 3.1924 58.7127 3.5029 58.5886 3.68932C58.4644 3.87559 58.6196 3.8134 58.6507 4.46549C58.6816 5.11743 58.4954 5.67639 58.4954 5.67639H58.7748C58.961 3.68932 59.0853 2.82002 58.9921 2.66469C58.4643 1.98166 57.9365 1.45379 55.8874 1.42285ZM65.7295 25.8885C65.7295 25.8885 65.1396 27.7825 63.9909 28.4344C63.7424 28.3103 63.7735 28.1241 63.5562 27.8445C63.494 27.7515 63.2766 27.6892 63.1836 27.5962C63.0905 27.5031 63.1216 27.3477 62.9663 27.2237C62.842 27.0994 62.7489 27.1926 62.6247 27.0994C62.5006 26.9753 62.4693 26.82 62.3764 26.727C62.3142 26.6648 62.0659 26.6339 62.0038 26.5717C61.8485 26.4164 60.4826 26.137 60.5446 25.8265C60.6687 25.3607 60.9172 25.0192 60.9172 25.0192C60.9172 25.0192 61.507 24.1499 62.0968 24.1809C62.6867 24.212 63.2457 24.3362 63.5562 24.0568C63.8978 23.7461 65.8228 24.895 65.7295 25.8885Z" fill="#010101"/>
<path d="M61.6925 12.1657C61.6925 12.1657 63.6484 11.6999 64.9836 12.973C66.3187 14.277 66.2254 15.8914 65.8219 16.8849C66.1634 17.2885 66.7844 18.4062 66.3187 19.7413C68.3678 21.4799 67.4674 24.1501 65.6357 25.9199C65.6357 25.9199 65.2009 24.3053 63.4623 24.2122C63.5244 23.5913 61.8478 23.0944 62.624 21.4799C61.4442 21.2005 61.4753 20.3932 61.289 19.3998C61.1337 18.4062 61.6925 12.1657 61.6925 12.1657Z" fill="#010101"/>
<path d="M60.9784 13.0348C60.9784 13.0348 63.2449 11.8861 64.58 13.1902C65.915 14.4942 65.5423 15.9223 65.1388 16.9158C65.4802 17.3193 66.2875 18.4683 65.7907 19.8342C65.6976 20.1447 65.0146 20.1447 64.5176 20.952C65.7595 20.2377 66.5358 20.4241 66.8152 21.3244C67.2499 22.7216 66.2873 24.3981 65.4491 25.3296C65.4491 25.2985 65.418 25.2674 65.418 25.2365C65.294 25.7023 65.1386 26.6026 64.2073 27.5961C63.7415 28.0929 63.3689 28.0308 62.8411 27.9066C62.2202 27.7513 62.0029 27.4717 61.1336 27.0062C60.6368 26.7268 60.9162 26.3852 60.9162 26.1058C60.9162 26.0438 60.9782 25.9505 61.0715 25.8264C61.1336 25.6711 61.3198 25.4229 61.5992 25.1434C61.5992 25.1434 62.0029 24.5846 62.5929 24.6155C63.1828 24.6466 63.8037 24.5225 63.959 24.3672C63.959 23.2805 62.7171 23.2494 63.1517 21.3866C63.1828 21.2935 63.3381 21.1381 63.8348 21.0761C63.0895 20.9208 62.7481 20.8897 62.2202 20.3931C61.8477 20.0516 61.5683 19.6169 61.475 19.0581C61.2889 18.0956 60.9784 13.0348 60.9784 13.0348Z" fill="#F0EFEF"/>
<path d="M54.4286 11.0792C54.2423 10.8307 53.2799 9.58887 51.448 9.0921C50.9201 8.93677 50.5787 9.3715 50.0509 9.682C49.8956 9.58886 49.2126 9.27837 48.84 9.49558C48.4675 9.71279 48.2192 9.93031 47.8465 10.0855C47.6601 9.99235 47.1635 9.99235 46.7598 10.1475C46.3562 10.2717 45.7352 10.5512 45.1453 11.3584C44.7728 12.6935 51.7274 11.6999 51.7274 11.6999L54.4286 11.0792Z" fill="#010101"/>
<path d="M54.49 11.0789C53.4963 10.7374 53.6516 9.58864 51.4472 9.40237C51.0124 9.37128 50.733 9.71272 50.4225 9.93009C50.5779 10.0854 50.733 10.3337 50.8262 10.582C50.5468 10.2717 50.05 9.86789 49.5531 9.77476C49.0874 9.68178 48.7769 10.0232 48.2801 10.2717C48.3731 10.3647 48.4664 10.52 48.5905 10.7064C48.1558 10.427 47.8454 10.3339 47.2555 10.5511C46.8519 10.6752 46.0757 11.0168 45.4858 11.8551C45.1133 13.1902 51.7575 11.6998 51.7575 11.6998L54.49 11.0789Z" fill="#8AC640"/>
<path d="M60.3278 11.5757C60.3278 11.5757 60.3278 11.2342 60.2967 10.9238C60.2967 10.8618 60.0484 10.7064 60.0484 10.6444L59.9863 10.5822C59.9863 10.5822 60.4831 10.3028 60.8556 10.4581C61.2591 10.5822 61.4765 11.1101 61.4765 11.1101C62.1906 10.8618 62.2526 11.1412 62.5942 11.5137C63.3395 11.3584 63.4325 11.6378 63.8983 12.321C63.8983 12.321 63.3395 12.2278 62.2528 12.414C61.1971 12.5691 60.3278 11.5447 60.3278 11.5757Z" fill="#010101"/>
<path d="M60.2019 11.4205C60.2019 11.4205 60.3881 11.2652 60.3259 11.2341C60.6674 11.0478 61.1332 10.8306 61.3506 11.4205C62.0647 11.1721 62.1578 11.5137 62.4993 11.8863C63.3686 11.4827 63.4306 11.9793 63.4928 12.1967C63.2134 12.1967 62.8099 12.2278 62.251 12.2898C61.1954 12.4452 60.1708 11.3894 60.2019 11.4205Z" fill="#8AC640"/>
<path d="M49.6472 10.6445C49.6472 10.6445 51.4169 11.2654 52.9072 11.1722C54.3975 11.0482 56.9434 10.9239 58.3094 11.7312C58.3094 11.7312 59.7066 11.2343 61.0106 11.5759C62.3148 11.9173 64.7054 14.1528 63.9914 16.5125C63.9292 16.6678 63.5256 16.9161 63.0599 17.0714C63.0599 17.0714 63.3083 18.127 62.8736 18.9963C62.4389 19.8346 61.4764 21.4492 61.4454 23.6846C61.4144 24.0571 61.3524 24.8333 61.2902 25.2058C58.8684 25.1128 55.1427 24.2123 51.4791 24.2745C51.51 23.871 51.5411 23.6225 51.5722 23.2189H51.6652C51.4789 22.1943 51.4169 21.6664 51.2305 20.8902C50.0507 20.1451 48.8087 19.2758 47.7532 17.6302C46.7286 15.9846 49.6472 10.6445 49.6472 10.6445ZM61.6316 27.4104C61.6316 27.4104 63.5567 34.3031 61.2902 37.1906C61.2902 37.1906 61.6316 38.5255 60.8555 39.9538C60.7312 40.5746 60.5759 41.1336 60.4829 41.7544C60.0793 44.3314 59.3961 45.4181 59.2098 49.5474L57.3468 49.5165C57.3468 49.5165 57.1295 46.5358 56.4775 44.9524C56.1051 44.0522 54.6456 42.8411 54.708 41.6304C54.77 40.6989 54.9563 39.9227 56.5399 38.6807C56.664 36.8801 54.8632 35.1722 55.1427 28.466L61.6316 27.4104Z" fill="#010101"/>
<path d="M61.0713 27.1308C61.5681 30.2977 62.7168 34.986 60.6366 37.2834C60.7593 37.866 60.7698 38.4666 60.6675 39.0531C60.6055 39.4256 60.4813 39.8293 60.3261 40.2638C60.0156 41.0091 59.8914 42.0957 59.7982 42.7477C59.3946 45.3246 59.3946 45.449 59.2083 49.5783L57.3453 49.5472C57.3453 49.5472 57.128 46.5666 56.476 44.9834C56.1036 44.083 55.3273 43.3068 55.2653 42.0959C55.2032 41.1645 55.8552 39.3017 57.4077 39.3637C57.3145 35.607 55.5758 36.352 55.1101 28.528L61.0713 27.1308ZM49.6457 10.6445C49.6457 10.6445 50.3287 10.8619 51.0738 10.9239C51.819 10.986 52.6263 10.9239 53.3402 10.8928C54.8305 10.7688 56.9418 10.6134 58.339 11.4207C58.339 11.4207 59.1152 11.1722 59.9535 11.2343C60.3261 11.2654 60.6988 11.5759 61.1334 11.7001C62.4994 12.0415 63.8035 14.308 63.2134 16.3573C63.1514 16.5126 62.7166 16.3573 62.2199 16.5126C62.3128 16.9473 62.3752 17.9409 61.8783 18.9964C61.3506 20.0522 60.6675 21.4182 60.7916 24.0263C57.5316 23.871 56.0724 23.6538 52.8433 23.4984C52.5639 22.3496 52.3775 21.2009 52.3466 20.611C52.7813 20.3936 53.0294 20.2075 53.3712 19.8348C52.4398 19.9901 52.0672 19.9279 51.5082 19.6174C50.9494 19.3069 49.9559 18.3134 49.4591 17.6615C49.3971 17.5993 49.0556 18.6238 48.2794 18.655C47.9999 18.2514 49.1797 17.1025 48.9623 16.6679C48.1863 15.0843 49.6457 10.6445 49.6457 10.6445Z" fill="#F0EFEF"/>
<path d="M61.3209 24.5534C61.3209 24.5534 61.383 25.6712 61.383 25.9506C61.383 26.2611 61.6314 27.1924 61.6624 27.6271C61.3209 28.217 59.8306 29.5522 57.1294 30.0489C54.4593 30.6077 50.9199 26.4164 50.9199 26.4164C51.0131 26.0128 51.3236 24.8328 51.5409 24.212C51.572 24.1499 51.6341 23.9946 51.6341 23.9326C51.9136 23.5289 61.3209 24.5534 61.3209 24.5534Z" fill="#010101"/>
<path d="M60.6372 24.6469C60.6372 25.423 60.7612 25.982 60.8545 26.4788C61.0097 27.3792 61.258 27.9691 61.258 28.559C61.258 30.3596 58.8984 30.0491 56.9112 30.1113C54.2411 30.6703 51.9746 26.4788 51.9746 26.4788C52.1609 25.7646 52.2851 24.9575 52.5645 24.2743C52.5955 23.9018 52.6576 23.4361 52.6886 23.2188C56.4765 23.2188 59.1466 23.4361 60.6991 23.5911C60.7612 23.9327 60.6992 24.5226 60.6372 24.6469Z" fill="#F0EFEF"/>
<path d="M57.6561 28.6519C57.6561 28.6519 56.0106 24.9882 51.0739 26.075C49.8943 29.3971 48.3107 33.2161 49.3353 37.3454C48.3107 38.7425 47.1309 39.5189 47.1309 42.0957C47.1309 44.6726 47.2551 45.1074 47.2551 45.1074L50.8876 45.2938C50.8876 45.2938 52.0674 43.7725 52.5331 42.1269C52.6573 41.6611 52.7816 40.8229 52.6884 39.8604C52.8125 39.6742 53.3404 39.2396 53.4026 38.4012C53.4026 38.4012 55.1723 37.4699 56.1969 35.2034C57.1595 33.1539 56.911 31.3842 57.6561 28.6519Z" fill="#010101"/>
<path d="M57.6575 28.652C57.5645 28.3106 56.3225 24.9574 51.7274 25.9508C49.0263 33.154 50.0198 36.1346 50.4233 37.4385C48.5914 39.767 47.7532 40.2638 48.1259 44.9832H50.5477C51.6653 43.2135 51.9138 42.5614 51.9758 40.2328C51.9758 40.1397 51.6344 40.4191 51.3859 40.7296C51.5723 39.7672 52.1 39.5809 52.5037 38.991C52.6899 38.7425 52.8451 38.37 52.8451 37.8732C55.0185 36.414 55.8257 34.5821 56.2914 32.6882C56.6641 31.3843 57.0987 29.2419 57.6575 28.652Z" fill="#F0EFEF"/>
<path d="M49.9889 23.6533C49.9889 23.6533 50.8273 23.6843 51.5725 23.9327C52.2866 24.181 52.2866 24.3362 52.566 24.6469C52.8454 24.9575 53.5285 25.423 53.4044 25.8887C53.3422 26.1372 53.187 26.1992 52.9697 26.4166C52.8765 26.5097 52.1933 27.2548 52.0382 27.3479C51.945 27.4099 51.8208 27.5032 51.7277 27.5653L51.262 27.8758C50.9515 28.0311 50.7341 28.1242 50.3927 28.0931C50.3927 28.0931 49.6165 28.062 49.1196 27.5343C49.1196 27.5343 49.0576 27.2859 49.1818 27.1618C49.1818 27.1618 48.5297 26.6028 48.3434 26.2303C48.157 25.8579 48.157 25.33 48.2814 25.0506C48.3434 24.7709 49.5542 23.9948 49.9889 23.6533ZM50.7652 53.8628L50.6721 54.6392C50.6721 54.6392 50.3927 54.9806 48.3125 54.9497C46.2012 54.9186 45.6424 54.2666 45.4561 53.925L45.332 53.1178C45.332 53.1178 45.7357 52.5279 45.8288 52.5279C46.5118 52.5899 48.8405 53.5214 50.455 53.7697C50.6099 53.7697 50.6408 53.8317 50.7652 53.8628ZM55.2671 52.2794C55.2671 52.6208 55.236 52.6208 55.236 52.9624C55.6085 53.2418 56.5402 53.3972 58.3097 53.3659C60.8867 53.3039 63.2774 54.1422 66.1958 53.6453L66.2269 53.0865L65.9475 53.0556L55.6085 52.2172L55.2671 52.2794Z" fill="#010101"/>
<path d="M57.5336 53.366H58.3097C59.9864 53.3039 61.5699 53.6765 63.2774 53.7696C64.1778 53.7385 65.2956 53.5211 65.2024 52.8692L56.3848 52.124C55.857 52.7139 56.2605 53.2106 57.5336 53.366ZM47.4119 40.2948C47.6913 40.4811 49.5853 41.5989 52.659 41.4436C52.5968 42.0335 52.6279 43.1823 51.2618 45.2003C50.5788 46.1939 49.9888 47.9326 49.8647 50.1371C49.8958 50.6338 50.1752 51.0684 49.8026 51.7205C49.9267 52.124 50.4235 52.9312 50.6719 53.428C50.9203 53.9249 51.0445 54.4837 49.3989 54.5148C47.7223 54.5458 45.0211 54.3595 45.3938 53.0556C45.5802 52.3726 46.1079 51.6585 46.1701 51.3789C46.2321 51.0995 46.2321 50.2613 46.7598 49.7023C47.2257 48.15 47.0703 46.6597 46.9774 45.2625C46.822 43.8032 46.7909 41.4747 47.4119 40.2948ZM50.2994 14.9908C52.5038 12.0412 50.6409 9.6817 47.1016 10.3957C45.6733 10.6751 44.2452 11.6688 44.1519 13.4694C43.6863 13.5315 42.6307 13.5935 42.1028 15.5185C41.6993 17.0088 41.482 17.2882 40.7677 18.0333C40.302 18.5612 40.7988 19.6478 41.1402 20.4242C42.2891 23.0943 45.8285 23.3426 48.2192 25.3607C49.0265 25.1434 49.8647 24.2431 50.1131 23.6532C48.095 21.2624 48.5296 20.331 47.7223 19.0892C48.5917 18.7785 50.5788 17.5678 50.2994 14.9908Z" fill="#010101"/>
<path d="M49.8638 14.8048C49.9878 14.6184 50.2052 14.2149 50.2985 14.0596C50.3296 14.0285 50.671 14.6184 50.7021 14.5875C51.5403 13.2212 51.7577 11.2342 50.7951 11.0479C50.5777 11.0168 50.1743 10.9238 49.8327 10.7994C49.2118 10.5821 48.653 10.5821 47.6593 10.7685C46.2933 11.0168 44.9272 12.0103 44.9272 13.4386C44.9272 13.5317 45.8895 13.8111 46.169 14.96C45.7032 14.3079 44.8959 13.5938 43.9335 14.2148C42.9089 14.8667 43.4367 16.357 42.0707 17.9094C41.6048 18.4372 41.667 19.0582 42.1637 20.3001C42.9709 22.2562 46.7899 23.3118 48.8701 25.1746C49.3669 24.9572 49.7083 24.4605 49.9568 24.0879C48.5596 22.6287 48.0006 21.2625 47.5971 20.269C47.1004 19.1203 46.5414 18.4683 45.4548 17.5987C46.0137 17.8161 46.4484 18.0334 46.6966 18.2197C46.976 18.406 47.3796 18.4371 47.7523 18.3128C49.0876 17.8475 49.8017 15.9845 49.8638 14.8048Z" fill="#F0EFEF"/>
<path d="M63.3689 15.3016C63.2757 16.4814 62.4064 15.8915 61.9408 15.6741C61.0093 15.2705 60.0778 14.9911 58.9911 14.9911C57.9044 14.9911 56.5073 15.0842 55.2965 15.3947C53.6199 15.8604 53.123 15.8294 52.3779 15.4567C51.6329 15.0531 50.329 14.0596 50.329 14.0596C50.329 14.0596 50.2979 14.3701 50.6084 14.7737C51.0119 15.2705 51.9124 15.8915 53.1232 16.2949C53.7131 16.4814 54.1789 16.357 54.7068 16.2329C57.47 15.5499 60.3884 15.4256 62.8412 16.9159C62.9654 16.978 63.4001 16.7917 63.5864 16.5123C63.8345 16.1088 63.3689 15.3016 63.3689 15.3016Z" fill="#010101"/>
<path d="M49.2422 27.1304C49.4905 27.2857 49.801 27.3788 50.1424 27.6582C50.1424 27.6582 49.863 27.6582 49.739 27.5342C49.5836 27.441 49.2731 27.1616 49.2422 27.1304Z" fill="#0A1825"/>
<path d="M58.2152 2.50972C58.122 2.23032 57.4388 1.7334 55.8555 1.7334C54.1479 1.7334 53.6511 2.26126 53.6202 2.54066C53.6202 2.6338 53.4959 3.62749 53.4648 4.03097C53.4648 4.03097 53.4648 4.52773 53.4958 5.27281C53.5269 5.76957 53.6511 6.04898 53.7132 6.70107C53.7752 7.38395 53.9616 7.81868 54.3031 8.37764C54.4584 8.47062 54.5825 8.56391 54.7378 8.595C55.3588 8.71908 56.4454 8.75018 57.0353 8.595C57.3768 8.50187 57.8115 7.91197 57.9047 7.38411C58.0287 6.73217 58.153 6.26634 58.1841 5.86286C58.2461 5.45938 58.2772 4.55883 58.3081 4.31037C58.4014 3.62749 58.2461 2.57176 58.2152 2.50972Z" fill="#F0EFEF"/>
<path d="M54.9555 40.8848C54.9555 40.8848 56.6011 41.5989 60.6684 40.9779C60.6684 40.9779 59.5197 46.7528 60.0476 49.6402C60.0476 49.6402 60.5753 50.3854 64.4874 51.8135C64.4874 51.8135 66.226 52.2482 66.1639 53.1177C66.1639 53.1177 66.226 53.3039 64.1148 53.2418C62.0037 53.1796 60.0165 52.807 58.6193 52.807C57.2221 52.807 55.7318 52.8691 55.4835 52.4656C55.2041 52.093 55.5456 51.1305 55.9492 50.5715C56.3841 49.9818 56.2597 49.5469 56.2288 48.4914C56.1353 45.7282 54.024 42.8718 54.9555 40.8848Z" fill="#010101"/>
<path d="M54.6135 41.413C54.3961 41.7235 54.6444 42.9031 54.9549 44.052C55.2654 45.2007 55.9486 45.8839 56.1038 47.7776C56.2589 49.6405 56.29 49.8889 55.7622 50.9755C55.2343 52.062 55.0791 53.0557 56.9109 53.0868C58.7426 53.1178 59.7363 53.0557 61.5991 53.3352C63.4621 53.6146 64.1141 53.7078 65.1387 53.5526C66.1633 53.3974 66.3805 53.0557 65.946 52.7453C65.5112 52.4348 63.7104 52.0934 62.9343 51.4722C62.189 50.9134 60.0779 49.9819 60.047 49.7336C59.9538 48.8952 59.9227 45.8526 60.0779 44.8591C60.2332 43.8654 60.4504 42.4373 60.5126 42.0647C60.5748 41.6922 60.8852 41.3195 60.3573 41.4437C59.8296 41.5678 57.8425 41.8474 56.3522 41.7542C54.8619 41.6613 54.7067 41.3197 54.6135 41.413Z" fill="#8AC640"/>
<path opacity="0.3" d="M55.6699 51.0066C56.1976 51.2549 56.9739 51.4414 57.5638 51.4414C57.5638 51.4414 57.3463 52.466 57.6879 53.0868C58.0293 53.7078 55.2041 53.3353 55.2041 53.3353L55.08 51.1309L55.6699 51.0066ZM63.8976 53.6767C64.3943 53.5214 64.7359 52.9626 64.3323 52.4349C63.8976 51.907 63.525 51.8139 64.0838 51.7829C64.6428 51.7519 66.6919 52.9937 66.6919 52.9937L65.6362 53.9561L63.8976 53.6767ZM54.521 42.6236C55.2352 42.8721 56.3218 42.9341 57.2533 42.903C58.1847 42.8721 59.5818 42.7477 60.4824 42.4374C61.3826 42.1269 61.0101 42.7788 61.0101 42.7788L60.5133 43.2446C60.5133 43.2446 59.3335 43.7103 57.4086 43.6793C55.1422 43.6483 54.459 43.3999 54.459 43.3999L54.521 42.6236ZM54.5831 44.1761C55.2973 44.4246 56.3839 44.4866 57.3154 44.4555C58.2467 44.4246 59.4887 44.4246 60.3891 44.083C60.7616 43.9589 60.5444 44.4866 60.5444 44.4866L60.3891 44.766C60.3891 44.766 59.1782 45.2007 57.2843 45.1695C55.0178 45.1386 54.6142 44.9521 54.6142 44.9521L54.5831 44.1761Z" fill="#010101"/>
<path d="M52.5332 22.4116C52.5332 22.629 54.955 23.8397 56.29 24.0882C57.6251 24.3365 60.4194 24.0882 60.854 23.9951L60.7918 24.4298C60.7918 24.4298 57.4698 24.9266 54.9239 24.2435C52.3779 23.5605 52.6574 23.4052 52.6574 23.4052L52.5332 22.4116Z" fill="#010101"/>
<path d="M47.3481 48.895C47.7206 49.0814 49.0557 49.4229 49.925 49.2366C50.0491 49.2055 49.925 47.0942 50.2666 46.1318C50.7634 44.7966 51.5707 43.71 51.9431 41.3505C50.639 41.2263 49.1489 40.8847 48.3726 40.6362C47.3792 43.679 47.7208 46.2869 47.3481 48.895ZM49.4284 50.8511C49.6458 50.9132 49.801 51.1615 49.8632 51.0065C49.9872 50.7269 49.6458 50.1992 49.6147 49.8267V49.7956C49.3353 49.5473 47.4414 49.5162 47.5656 49.6402C47.3482 50.0439 47.0068 49.9818 46.8827 50.7891C46.8207 51.1926 47.3174 50.8511 47.783 50.82C46.9447 51.3788 45.9823 52.0931 45.827 52.714C45.6407 53.5833 45.9512 53.8317 46.8827 54.2976C47.69 54.4838 48.6524 54.5149 49.3975 54.4838C50.2358 54.3285 50.3912 53.925 50.1427 53.3661C49.7699 52.5277 49.5216 51.441 49.4284 50.8511Z" fill="#F0EFEF"/>
<path d="M49.7712 10.52C50.7959 11.1099 52.2241 10.9547 52.7518 10.9237C52.8761 10.9237 54.1181 10.7063 54.1801 10.7372C54.3042 10.7683 54.3042 10.8615 54.3042 10.8615C54.3042 10.8615 53.8385 11.1098 52.7829 11.1718C51.7894 11.2338 50.6096 11.1718 49.9576 10.8615C49.1813 10.52 49.7712 10.52 49.7712 10.52ZM60.3276 11.1099C60.5138 11.234 61.7247 11.6998 62.2526 12.2586C62.7183 12.7555 62.47 12.7245 62.3767 12.6002C62.2526 12.4449 61.29 11.793 60.9175 11.6378C60.5449 11.4826 60.0791 11.2031 60.0791 11.141C60.0791 11.079 60.3276 11.1099 60.3276 11.1099Z" fill="#010101"/>
<path d="M49.6152 23.995C50.5156 23.933 51.4471 24.1504 52.037 24.7712C52.3475 25.0817 52.8442 25.4231 52.7822 25.7336C52.7822 25.8268 52.5958 26.0752 52.4408 26.2615C52.3476 26.3856 52.0682 26.665 51.9749 26.7583C51.8509 26.8514 51.4161 27.193 51.323 27.255C51.2299 27.3172 51.1056 27.4726 51.0125 27.5035C50.7022 27.6588 50.3606 27.5346 50.0501 27.3794C49.7397 27.2241 50.1122 27.193 49.7707 26.9447C48.9324 26.3548 48.4666 25.951 48.8082 24.8023C48.8392 24.5849 49.1806 24.3365 49.6152 23.995Z" fill="#F0EFEF"/>
<path opacity="0.4" d="M41.6978 16.8847C38.9035 18.0025 31.7934 21.542 29.7754 22.6287C31.452 23.6843 32.2281 26.2302 32.4766 28.8071C32.5075 29.0556 32.5386 29.273 32.5697 29.5213C32.6007 29.7386 32.6318 29.8938 32.6627 29.9871C32.6627 30.0182 32.6627 30.0802 32.6938 30.1112C34.5257 25.1125 41.0767 19.8344 41.3251 19.4307C41.4492 19.2445 41.1698 18.4372 41.6045 17.6612C42.1635 16.6674 43.2503 16.2326 41.6978 16.8847ZM48.342 40.3259C49.7702 37.4695 49.8013 34.7372 49.7702 31.5393C49.7702 30.2041 50.7326 28.3102 50.236 28.8381C48.373 30.9181 43.6849 34.8304 40.3006 35.0476C45.0509 34.8924 46.9138 37.2831 48.342 40.3259Z" fill="#010101"/>
<path d="M27.043 25.2678C28.8127 23.9948 37.9718 19.1204 40.1763 18.4373C42.3806 17.7231 41.6975 16.8848 41.6975 16.8848C41.6975 16.8848 32.7557 20.7347 27.4155 24.0569" fill="#010101"/>
<path opacity="0.4" d="M53.1239 16.2951C52.4098 16.0157 51.851 16.8541 52.0372 17.6613C52.2236 18.4686 53.9002 19.3688 53.8069 22.3185C53.7449 24.7403 53.217 25.7337 53.217 25.7337L52.0372 24.2435C52.0372 24.2435 51.851 20.8902 51.4473 20.3935C51.0438 19.8967 49.7708 18.9963 49.274 18.5306C48.7772 18.0648 49.8328 17.444 49.7708 16.5745C49.7087 15.7363 50.2986 14.0597 50.2986 14.0597L53.1239 16.2951ZM57.4396 29.5214C57.3776 31.8499 57.9054 35.2963 58.1227 36.942C58.34 38.5874 58.6194 38.7117 58.1227 39.4569C57.6259 40.171 56.974 41.3508 56.974 41.3508L54.8316 41.1644C54.8316 41.1644 56.5392 38.9911 56.6322 38.5874C56.7253 38.1839 55.7629 35.1102 55.7629 35.1102L57.4396 29.5214ZM53.3103 7.78801C53.745 8.7503 54.2728 9.18503 55.111 9.46458C55.6077 9.65085 57.5637 9.89931 58.34 9.02985C58.6815 8.62622 58.4641 7.53955 58.4641 7.53955L56.6944 8.96766L54.3037 8.53309L54.0243 7.81895L53.3103 7.78801Z" fill="#010101"/>
<path d="M53.4964 9.93018C54.3036 10.458 56.3218 10.9548 56.8806 11.0479C57.4394 11.172 58.3398 10.458 58.7745 10.2718C59.2404 10.0544 60.0476 9.93018 60.979 10.7685C61.0721 10.8617 60.7616 11.2653 60.7616 11.2653C60.7305 11.2342 60.5442 11.2342 60.2958 11.11C60.0475 10.9859 59.8301 10.8926 59.4576 10.9237C57.9051 11.11 57.6568 11.6378 56.2907 11.3272C54.9246 11.0165 54.583 10.7684 53.248 10.8304" fill="#8AC640"/>
<path d="M53.4964 9.93018C54.3036 10.458 56.3218 10.9548 56.8806 11.0479C57.4394 11.172 58.3398 10.458 58.7745 10.2718C59.2404 10.0544 60.0476 9.93018 60.979 10.7685C61.0721 10.8617 60.7616 11.2653 60.7616 11.2653C60.7305 11.2342 60.5442 11.2342 60.2958 11.11C60.0475 10.9859 59.8301 10.8926 59.4576 10.9237C57.9051 11.11 57.6568 11.6378 56.2907 11.3272C54.9246 11.0165 54.583 10.7684 53.248 10.8304" stroke="#010101" stroke-width="0.241753" stroke-miterlimit="10" stroke-linejoin="round"/>
<path d="M53.216 10.0234C54.2407 10.4582 56.2277 10.9238 56.7865 11.0481C57.3453 11.1723 58.2457 10.6133 58.6805 10.3339C59.4568 9.83717 60.4502 10.2408 60.916 10.7687C61.2263 11.1101 61.3507 11.3275 61.3507 11.4206C61.3507 11.5447 60.9782 11.4206 60.9782 11.4206C60.7608 11.3275 60.5124 11.2965 60.3262 11.1721C60.0778 11.0481 59.8293 10.8618 59.4569 10.8927C57.9045 11.0792 57.594 11.6069 56.259 11.2964C54.924 10.9859 54.5824 10.7065 53.1543 10.7995" fill="#8AC640"/>
<path d="M48.4053 39.0219C48.3432 38.9598 48.4673 38.8978 48.4053 38.8978C48.0018 38.8978 47.4428 38.5873 47.1322 38.1526C45.7972 36.2277 43.8411 34.9548 40.3017 35.0479C34.9924 35.172 32.8811 32.9988 32.4776 28.8384C32.2603 26.5719 31.6393 24.3675 30.3663 23.1255L29.6211 23.5913C31.0492 24.8332 31.515 26.8513 31.8255 29.6146C32.3223 33.775 35.6754 35.7 39.5875 35.762C43.6548 35.8241 45.114 36.6624 46.6353 38.7117C47.132 39.3636 47.691 39.581 48.1256 39.6741L48.4053 39.0219Z" fill="#010101"/>
<path opacity="0.4" d="M62.8117 19.0581C62.9049 19.5238 63.1532 20.4242 63.6499 20.8588C63.8675 21.0761 63.8984 21.1382 63.7121 21.1382C63.5257 21.1382 62.1596 21.0761 62.1596 21.0761L61.7871 20.4242L62.8117 19.0581Z" fill="#010101"/>
</g>
<path d="M94.9291 25.4C94.6758 24.9333 94.3091 24.58 93.8291 24.34C93.3625 24.0867 92.8091 23.96 92.1691 23.96C91.0625 23.96 90.1758 24.3267 89.5091 25.06C88.8425 25.78 88.5091 26.7467 88.5091 27.96C88.5091 29.2533 88.8558 30.2667 89.5491 31C90.2558 31.72 91.2225 32.08 92.4491 32.08C93.2891 32.08 93.9958 31.8667 94.5691 31.44C95.1558 31.0133 95.5825 30.4 95.8491 29.6H91.5091V27.08H98.9491V30.26C98.6958 31.1133 98.2625 31.9067 97.6491 32.64C97.0491 33.3733 96.2825 33.9667 95.3491 34.42C94.4158 34.8733 93.3625 35.1 92.1891 35.1C90.8025 35.1 89.5625 34.8 88.4691 34.2C87.3891 33.5867 86.5425 32.74 85.9291 31.66C85.3291 30.58 85.0291 29.3467 85.0291 27.96C85.0291 26.5733 85.3291 25.34 85.9291 24.26C86.5425 23.1667 87.3891 22.32 88.4691 21.72C89.5491 21.1067 90.7825 20.8 92.1691 20.8C93.8491 20.8 95.2625 21.2067 96.4091 22.02C97.5691 22.8333 98.3358 23.96 98.7091 25.4H94.9291ZM105.924 35.14C104.897 35.14 103.977 34.9733 103.164 34.64C102.35 34.3067 101.697 33.8133 101.204 33.16C100.724 32.5067 100.47 31.72 100.444 30.8H104.084C104.137 31.32 104.317 31.72 104.624 32C104.93 32.2667 105.33 32.4 105.824 32.4C106.33 32.4 106.73 32.2867 107.024 32.06C107.317 31.82 107.464 31.4933 107.464 31.08C107.464 30.7333 107.344 30.4467 107.104 30.22C106.877 29.9933 106.59 29.8067 106.244 29.66C105.91 29.5133 105.43 29.3467 104.804 29.16C103.897 28.88 103.157 28.6 102.584 28.32C102.01 28.04 101.517 27.6267 101.104 27.08C100.69 26.5333 100.484 25.82 100.484 24.94C100.484 23.6333 100.957 22.6133 101.904 21.88C102.85 21.1333 104.084 20.76 105.604 20.76C107.15 20.76 108.397 21.1333 109.344 21.88C110.29 22.6133 110.797 23.64 110.864 24.96H107.164C107.137 24.5067 106.97 24.1533 106.664 23.9C106.357 23.6333 105.964 23.5 105.484 23.5C105.07 23.5 104.737 23.6133 104.484 23.84C104.23 24.0533 104.104 24.3667 104.104 24.78C104.104 25.2333 104.317 25.5867 104.744 25.84C105.17 26.0933 105.837 26.3667 106.744 26.66C107.65 26.9667 108.384 27.26 108.944 27.54C109.517 27.82 110.01 28.2267 110.424 28.76C110.837 29.2933 111.044 29.98 111.044 30.82C111.044 31.62 110.837 32.3467 110.424 33C110.024 33.6533 109.437 34.1733 108.664 34.56C107.89 34.9467 106.977 35.14 105.924 35.14ZM121.888 32.52H116.648L115.808 35H112.228L117.308 20.96H121.268L126.348 35H122.728L121.888 32.52ZM121.008 29.88L119.268 24.74L117.548 29.88H121.008ZM138.594 25.48C138.594 26.2933 138.408 27.04 138.034 27.72C137.661 28.3867 137.088 28.9267 136.314 29.34C135.541 29.7533 134.581 29.96 133.434 29.96H131.314V35H127.894V20.96H133.434C134.554 20.96 135.501 21.1533 136.274 21.54C137.048 21.9267 137.628 22.46 138.014 23.14C138.401 23.82 138.594 24.6 138.594 25.48ZM133.174 27.24C133.828 27.24 134.314 27.0867 134.634 26.78C134.954 26.4733 135.114 26.04 135.114 25.48C135.114 24.92 134.954 24.4867 134.634 24.18C134.314 23.8733 133.828 23.72 133.174 23.72H131.314V27.24H133.174Z" fill="black"/>
</g>
<defs>
<clipPath id="clip0_5039_1065">
<rect width="159" height="55.6328" fill="white" transform="translate(0.369141 0.183594)"/>
</clipPath>
<clipPath id="clip1_5039_1065">
<rect width="48" height="55.6328" fill="white" transform="translate(20.3691 0.183594)"/>
</clipPath>
</defs>
</svg>
