<svg width="24" height="28" viewBox="0 0 24 28" fill="none" xmlns="http://www.w3.org/2000/svg">
<g clip-path="url(#clip0_6049_8662)">
<path d="M3.83459 12.2472C3.04279 12.6196 0.947119 14.2963 0.543486 14.7931C0.124305 15.2898 0.000151399 14.5137 0.434804 13.2252C0.776245 12.1851 1.6457 10.7724 3.10491 9.56153C3.95867 8.86295 5.83713 7.85394 6.98584 7.26396C7.21875 7.13973 10.2304 5.86679 12.916 5.23033C13.1489 5.16821 12.6366 5.61841 12.559 5.86679C12.1553 7.0466 4.09837 12.1074 4.09837 12.1074L3.83459 12.2472ZM15.1825 26.4826C15.3222 27.3208 15.198 27.383 14.3287 27.4916C13.4594 27.6003 12.8229 27.2743 12.5901 27.057C12.3571 26.8395 12.3106 26.3584 12.5435 25.9237C12.6833 25.6443 12.823 25.5511 12.9006 25.2096C12.9782 24.8836 13.0403 24.806 13.1024 24.6818C13.1644 24.5731 13.18 24.4644 13.1955 23.7038C13.2111 22.9431 13.1955 21.5149 13.2732 20.9095C13.3508 20.2886 16.0365 21.1889 16.0365 21.1889C16.0365 21.1889 15.3999 22.7723 15.2292 23.1604C15.0584 23.5486 15.074 24.2937 15.074 24.4489C15.074 24.6042 15.0119 24.9146 14.9653 24.9301C14.9187 24.9456 15.1205 25.3492 15.0273 25.5822C14.9652 25.7995 15.167 26.3584 15.1825 26.4826ZM16.2071 2.74649C16.1139 2.15659 16.2071 0.99218 16.3313 0.805988C16.7194 0.278125 18.7685 0.216086 19.2033 0.837007C19.3895 1.11641 19.374 1.76843 19.343 2.18761C19.312 2.60671 19.2033 3.50711 19.1877 3.80214C19.1723 4.0195 16.9213 4.36094 16.4245 3.77104C16.2847 3.61587 16.2071 2.74649 16.2071 2.74649ZM20.7712 24.9767C21.7181 25.6598 22.4477 25.784 22.929 26.0324C23.4102 26.2808 23.286 26.762 22.4788 26.9017C21.8267 27.0259 20.8022 26.7775 20.1191 26.7775C19.4361 26.7775 17.9147 26.8552 17.5111 26.5758C17.0454 26.2498 17.2472 25.6443 17.2472 25.6443C17.3714 25.3028 17.6818 24.5421 17.5887 23.9211C17.4955 23.3002 17.3713 22.9587 17.1385 22.3843C16.9056 21.8099 16.7349 20.3973 16.9523 20.3196C17.1696 20.2419 17.1074 20.3196 17.3869 20.3816C17.6663 20.4437 17.9768 20.5369 18.5823 20.5369C19.1877 20.5369 19.8552 20.4437 20.0881 20.3972C20.321 20.3506 20.5072 20.304 20.4296 20.7853C20.352 21.2665 20.1191 22.1669 20.1036 22.8655C20.0881 23.5641 20.0881 24.3713 20.1347 24.511C20.1812 24.6507 20.5228 24.806 20.7712 24.9767Z" fill="#010101"/>
<path d="M17.4489 4.29889C15.7413 5.77372 12.4347 6.17727 7.5292 8.07121C6.27173 8.55243 2.91859 9.99616 2.11133 11.502C4.828 9.93412 5.83708 12.0919 6.05437 14.3118C6.25611 16.392 7.29629 17.4788 9.96639 17.4166C12.7142 17.3545 13.5524 18.9534 14.3131 20.8319C15.7878 13.6443 18.1475 12.2472 19.6688 11.0208C22.8978 8.39718 18.9237 3.77102 17.4489 4.29889Z" fill="#8AC640"/>
<path d="M17.4485 4.29895C13.3502 5.72714 9.29843 6.0842 4.53265 9.01824C3.39942 9.71682 1.00872 11.3002 0.542969 14.3274C2.28158 12.4024 6.30228 9.98075 11.2234 8.44389C13.7072 7.66764 15.5236 7.1554 17.7279 6.30157C17.5728 5.30796 17.5728 4.91987 17.4485 4.29895Z" fill="#8AC640"/>
<path d="M22.6798 12.806C22.6798 12.806 22.3849 13.8151 21.795 14.1411C21.795 14.1411 21.3603 14.2964 20.491 13.8151C20.2426 13.6754 20.0564 13.1942 20.0718 13.0389C20.0874 12.6663 20.3202 12.4956 20.3202 12.4956C20.3202 12.4956 20.5687 12.0764 20.8635 12.0919C21.1586 12.1074 21.6553 12.154 21.8106 12.0143C21.9502 11.859 22.7109 12.2937 22.6798 12.806ZM16.3461 3.04144C16.3461 3.04144 16.284 3.83324 16.1754 4.32993C16.1598 4.42314 15.6941 4.46963 15.3525 4.60941C16.0046 6.47224 19.9321 6.4567 20.4444 5.54082C20.1961 5.3701 19.6993 5.10617 19.4665 5.01304C19.2335 4.91983 19.2491 4.93538 19.2335 4.50072C19.2181 4.066 19.187 3.25881 19.1559 3.04144C19.1249 2.82408 16.7186 2.82408 16.3461 3.04144Z" fill="#010101"/>
<path d="M16.5015 3.04152C16.5015 3.04152 16.5015 3.49172 16.4549 3.92637C16.4395 4.12819 16.4239 4.25234 16.3929 4.40759C16.3774 4.5008 16.9207 4.87326 17.0759 5.69607C17.8211 7.3571 19.5443 6.53436 20.2584 5.74264C20.01 5.57184 19.6063 5.33901 19.1407 5.15274C18.9078 5.05953 19.0164 4.85779 19.001 4.42314C18.9854 3.98848 18.9233 3.35194 18.8923 3.1191C18.8611 2.88627 16.8741 2.82415 16.5015 3.04152Z" fill="#F0EFEF"/>
<path d="M16.3462 3.04156C16.3462 3.04156 16.3307 3.32104 16.2842 3.64701C16.4859 3.84875 16.7499 4.12823 16.9517 4.29903C17.0914 4.42326 17.4329 4.40771 17.7435 4.40771C18.0229 4.40771 18.2712 4.43873 18.3799 4.37669C18.6284 4.25246 18.9854 3.94204 19.1872 3.70913C19.1717 3.42972 19.1562 3.16579 19.1407 3.04156C19.125 2.8242 16.7188 2.8242 16.3462 3.04156Z" fill="#010101"/>
<path d="M17.7594 4.22121C17.573 4.22121 17.3557 4.20574 17.185 4.17464C17.1073 4.15917 17.0297 4.1126 16.9676 4.08151C16.8589 4.00384 16.7502 3.91078 16.6261 3.81757C16.3777 3.63131 16.3622 3.52262 16.3622 3.47613C16.4709 2.49807 16.3311 1.67533 16.3311 1.67533C16.3311 1.67533 16.2224 1.25615 16.8123 1.14747C17.4022 1.03879 17.7593 1.02332 17.7593 1.02332C17.7593 1.02332 18.1319 1.02332 18.7063 1.14747C19.2962 1.25615 19.1875 1.67533 19.1875 1.67533C19.1875 1.67533 19.0478 2.49807 19.1565 3.47613C19.1565 3.52262 19.141 3.63131 18.8925 3.81757C18.6752 3.97282 18.5045 4.14354 18.3337 4.17464C18.1629 4.20574 17.9456 4.22121 17.7594 4.22121Z" fill="#010101"/>
<path d="M17.7591 0.619751C16.7346 0.619751 16.5327 0.899154 16.2378 1.20965C16.1757 1.28724 16.2222 1.75299 16.331 2.74652H16.4707C16.4707 2.74652 16.3775 2.46704 16.393 2.14107C16.4085 1.8151 16.4707 1.83065 16.424 1.75299C16.362 1.65978 16.2378 1.50453 16.5172 1.34935C16.7966 1.1941 17.2313 1.47351 17.7591 1.48906C18.2869 1.47351 18.7371 1.1941 19.0165 1.34935C19.2959 1.50453 19.1718 1.65978 19.1097 1.75299C19.0476 1.84612 19.1252 1.81503 19.1408 2.14107C19.1562 2.46704 19.0631 2.74652 19.0631 2.74652H19.2028C19.2959 1.75299 19.3581 1.31833 19.3115 1.24067C19.0476 0.899154 18.7837 0.635223 17.7591 0.619751ZM22.6802 12.8526C22.6802 12.8526 22.3852 13.7996 21.8109 14.1255C21.6866 14.0635 21.7022 13.9704 21.5935 13.8306C21.5624 13.7841 21.4537 13.7529 21.4072 13.7064C21.3607 13.6599 21.3762 13.5822 21.2986 13.5202C21.2364 13.458 21.1899 13.5046 21.1278 13.458C21.0657 13.396 21.0501 13.3183 21.0036 13.2718C20.9725 13.2407 20.8484 13.2253 20.8173 13.1942C20.7397 13.1165 20.0567 12.9768 20.0877 12.8216C20.1498 12.5887 20.274 12.4179 20.274 12.4179C20.274 12.4179 20.569 11.9833 20.8638 11.9988C21.1588 12.0143 21.4383 12.0764 21.5935 11.9367C21.7643 11.7814 22.7268 12.3558 22.6802 12.8526Z" fill="#010101"/>
<path d="M20.6617 5.99117C20.6617 5.99117 21.6397 5.75826 22.3072 6.39481C22.9748 7.04682 22.9281 7.85401 22.7264 8.35078C22.8971 8.5526 23.2076 9.1114 22.9748 9.77897C23.9993 10.6483 23.5491 11.9834 22.6333 12.8683C22.6333 12.8683 22.4159 12.061 21.5466 12.0144C21.5776 11.704 20.7393 11.4555 21.1274 10.6483C20.5375 10.5086 20.5531 10.1049 20.4599 9.60825C20.3823 9.1114 20.6617 5.99117 20.6617 5.99117Z" fill="#010101"/>
<path d="M20.3046 6.42562C20.3046 6.42562 21.4379 5.85127 22.1054 6.50328C22.7729 7.1553 22.5866 7.86935 22.3848 8.36612C22.5555 8.56786 22.9592 9.14237 22.7108 9.82533C22.6642 9.98058 22.3227 9.98058 22.0742 10.3842C22.6952 10.0271 23.0833 10.1203 23.223 10.5704C23.4404 11.269 22.9591 12.1073 22.54 12.573C22.54 12.5575 22.5245 12.5419 22.5245 12.5265C22.4624 12.7594 22.3847 13.2095 21.9191 13.7063C21.6862 13.9546 21.4999 13.9236 21.236 13.8615C20.9255 13.7838 20.8169 13.6441 20.3822 13.4113C20.1338 13.2716 20.2735 13.1008 20.2735 12.9611C20.2735 12.9301 20.3045 12.8834 20.3512 12.8214C20.3822 12.7437 20.4753 12.6197 20.615 12.4799C20.615 12.4799 20.8169 12.2005 21.1119 12.216C21.4068 12.2315 21.7173 12.1695 21.7949 12.0918C21.7949 11.5485 21.174 11.5329 21.3913 10.6015C21.4068 10.5549 21.4845 10.4773 21.7328 10.4462C21.3602 10.3686 21.1895 10.353 20.9255 10.1047C20.7393 9.93401 20.5996 9.71664 20.5529 9.43724C20.4599 8.95602 20.3046 6.42562 20.3046 6.42562Z" fill="#F0EFEF"/>
<path d="M17.0297 5.44779C16.9366 5.32356 16.4554 4.70264 15.5394 4.45425C15.2755 4.37659 15.1048 4.59395 14.8409 4.7492C14.7632 4.70264 14.4217 4.54739 14.2355 4.65599C14.0492 4.7646 13.925 4.87336 13.7387 4.95094C13.6455 4.90438 13.3972 4.90438 13.1953 4.98196C12.9935 5.04408 12.683 5.18378 12.3881 5.58741C12.2018 6.25498 15.6791 5.75813 15.6791 5.75813L17.0297 5.44779Z" fill="#010101"/>
<path d="M17.0604 5.44768C16.5636 5.27688 16.6412 4.70252 15.539 4.60939C15.3216 4.59384 15.1819 4.76456 15.0267 4.87325C15.1044 4.95091 15.1819 5.07506 15.2285 5.19922C15.0888 5.04404 14.8404 4.84215 14.592 4.79558C14.3591 4.74909 14.2039 4.91981 13.9555 5.04404C14.002 5.09053 14.0486 5.1682 14.1107 5.26141C13.8933 5.12171 13.7381 5.07514 13.4432 5.18374C13.2414 5.24578 12.8533 5.41658 12.5583 5.83576C12.3721 6.50332 15.6942 5.7581 15.6942 5.7581L17.0604 5.44768Z" fill="#8AC640"/>
<path d="M19.9793 5.69608C19.9793 5.69608 19.9793 5.52528 19.9638 5.37011C19.9638 5.33909 19.8396 5.26142 19.8396 5.2304L19.8086 5.19931C19.8086 5.19931 20.057 5.05961 20.2432 5.13727C20.445 5.19931 20.5537 5.46324 20.5537 5.46324C20.9107 5.33909 20.9418 5.47879 21.1126 5.66506C21.4852 5.58739 21.5317 5.7271 21.7646 6.06869C21.7646 6.06869 21.4852 6.02212 20.9418 6.11518C20.414 6.19277 19.9793 5.68053 19.9793 5.69608Z" fill="#010101"/>
<path d="M19.9164 5.61846C19.9164 5.61846 20.0095 5.5408 19.9784 5.52525C20.1491 5.43212 20.382 5.32351 20.4907 5.61846C20.8478 5.49423 20.8943 5.66503 21.0651 5.85138C21.4997 5.64956 21.5307 5.89787 21.5618 6.00655C21.4221 6.00655 21.2204 6.0221 20.9409 6.05312C20.4131 6.13078 19.9008 5.60292 19.9164 5.61846Z" fill="#8AC640"/>
<path d="M14.639 5.23047C14.639 5.23047 15.5239 5.54089 16.269 5.49432C17.0142 5.43229 18.2871 5.37017 18.9701 5.7738C18.9701 5.7738 19.6687 5.52534 20.3207 5.69614C20.9728 5.86686 22.1681 6.98463 21.8111 8.16443C21.78 8.24209 21.5782 8.36625 21.3454 8.44391C21.3454 8.44391 21.4696 8.97169 21.2522 9.40635C21.0349 9.82553 20.5537 10.6328 20.5381 11.7505C20.5226 11.9367 20.4916 12.3248 20.4605 12.5111C19.2496 12.4646 17.3868 12.0143 15.555 12.0454C15.5704 11.8437 15.586 11.7195 15.6015 11.5176H15.648C15.5549 11.0053 15.5239 10.7414 15.4307 10.3533C14.8408 9.98078 14.2198 9.54612 13.692 8.72331C13.1797 7.9005 14.639 5.23047 14.639 5.23047ZM20.6312 13.6134C20.6312 13.6134 21.5938 17.0597 20.4605 18.5035C20.4605 18.5035 20.6312 19.171 20.2432 19.8851C20.181 20.1955 20.1034 20.475 20.0569 20.7854C19.8551 22.0739 19.5135 22.6172 19.4203 24.6819L18.4888 24.6664C18.4888 24.6664 18.3802 23.1761 18.0542 22.3844C17.868 21.9343 17.1382 21.3288 17.1694 20.7234C17.2004 20.2576 17.2936 19.8696 18.0854 19.2486C18.1474 18.3482 17.247 17.4943 17.3868 14.1412L20.6312 13.6134Z" fill="#010101"/>
<path d="M20.3511 13.4736C20.5995 15.0571 21.1738 17.4012 20.1337 18.5499C20.1951 18.8412 20.2003 19.1415 20.1492 19.4348C20.1182 19.621 20.0561 19.8228 19.9785 20.0401C19.8232 20.4127 19.7611 20.9561 19.7145 21.282C19.5127 22.5705 19.5127 22.6327 19.4196 24.6974L18.4881 24.6818C18.4881 24.6818 18.3794 23.1915 18.0534 22.3999C17.8672 21.9497 17.4791 21.5616 17.4481 20.9561C17.417 20.4905 17.743 19.5591 18.5193 19.5901C18.4727 17.7117 17.6033 18.0842 17.3705 14.1722L20.3511 13.4736ZM14.6383 5.23047C14.6383 5.23047 14.9798 5.33915 15.3523 5.37017C15.7249 5.40119 16.1286 5.37017 16.4856 5.35462C17.2307 5.29258 18.2864 5.21492 18.9849 5.61855C18.9849 5.61855 19.373 5.49432 19.7922 5.52534C19.9785 5.54089 20.1648 5.69614 20.3821 5.75826C21.0651 5.92898 21.7172 7.06221 21.4221 8.08684C21.3911 8.1645 21.1737 8.08684 20.9254 8.16451C20.9719 8.38187 21.003 8.87864 20.7546 9.40642C20.4907 9.93429 20.1492 10.6173 20.2112 11.9214C18.5812 11.8437 17.8516 11.7351 16.2371 11.6574C16.0974 11.083 16.0042 10.5086 15.9887 10.2137C16.2061 10.105 16.3302 10.0119 16.501 9.8256C16.0354 9.90327 15.849 9.87217 15.5695 9.71692C15.2901 9.56167 14.7934 9.06491 14.545 8.73894C14.514 8.70784 14.3432 9.22008 13.9551 9.2357C13.8154 9.03389 14.4053 8.45946 14.2966 8.24217C13.9086 7.45037 14.6383 5.23047 14.6383 5.23047Z" fill="#F0EFEF"/>
<path d="M20.4759 12.1849C20.4759 12.1849 20.5069 12.7438 20.5069 12.8835C20.5069 13.0387 20.6311 13.5044 20.6466 13.7218C20.4759 14.0167 19.7307 14.6843 18.3801 14.9327C17.0451 15.2121 15.2754 13.1164 15.2754 13.1164C15.322 12.9146 15.4772 12.3246 15.5859 12.0142C15.6014 11.9832 15.6325 11.9055 15.6325 11.8745C15.7722 11.6727 20.4759 12.1849 20.4759 12.1849Z" fill="#010101"/>
<path d="M20.134 12.2316C20.134 12.6197 20.1961 12.8992 20.2427 13.1476C20.3203 13.5978 20.4444 13.8927 20.4444 14.1877C20.4444 15.088 19.2646 14.9328 18.271 14.9639C16.936 15.2433 15.8027 13.1476 15.8027 13.1476C15.8959 12.7905 15.958 12.387 16.0977 12.0454C16.1132 11.8591 16.1443 11.6263 16.1597 11.5176C18.0537 11.5176 19.3887 11.6263 20.165 11.7038C20.1961 11.8746 20.165 12.1695 20.134 12.2316Z" fill="#F0EFEF"/>
<path d="M18.6435 14.2341C18.6435 14.2341 17.8207 12.4023 15.3524 12.9457C14.7626 14.6067 13.9708 16.5162 14.4831 18.5809C13.9708 19.2795 13.3809 19.6676 13.3809 20.956C13.3809 22.2445 13.443 22.4619 13.443 22.4619L15.2592 22.5551C15.2592 22.5551 15.8491 21.7945 16.082 20.9717C16.1441 20.7387 16.2062 20.3196 16.1596 19.8384C16.2217 19.7453 16.4856 19.528 16.5167 19.1088C16.5167 19.1088 17.4016 18.6432 17.9139 17.5099C18.3952 16.4851 18.2709 15.6003 18.6435 14.2341Z" fill="#010101"/>
<path d="M18.6442 14.2342C18.5977 14.0635 17.9767 12.3869 15.6791 12.8836C14.3286 16.4852 14.8253 17.9755 15.0271 18.6275C14.1111 19.7917 13.692 20.0401 13.8784 22.3998H15.0893C15.6481 21.5149 15.7723 21.1889 15.8033 20.0246C15.8033 19.9781 15.6326 20.1178 15.5084 20.273C15.6016 19.7918 15.8654 19.6987 16.0673 19.4037C16.1604 19.2795 16.238 19.0932 16.238 18.8448C17.3247 18.1152 17.7283 17.1993 17.9611 16.2523C18.1475 15.6004 18.3648 14.5292 18.6442 14.2342Z" fill="#F0EFEF"/>
<path d="M14.8099 11.7349C14.8099 11.7349 15.2291 11.7503 15.6017 11.8746C15.9587 11.9987 15.9587 12.0763 16.0984 12.2316C16.2381 12.387 16.5797 12.6197 16.5176 12.8526C16.4865 12.9768 16.4089 13.0078 16.3003 13.1165C16.2537 13.1631 15.9121 13.5356 15.8345 13.5822C15.7879 13.6132 15.7258 13.6598 15.6793 13.6908L15.4464 13.8461C15.2912 13.9237 15.1825 13.9703 15.0118 13.9548C15.0118 13.9548 14.6237 13.9392 14.3752 13.6754C14.3752 13.6754 14.3442 13.5511 14.4063 13.4891C14.4063 13.4891 14.0803 13.2096 13.9871 13.0233C13.8939 12.8372 13.8939 12.5732 13.9561 12.4335C13.9871 12.2937 14.5925 11.9056 14.8099 11.7349ZM15.198 26.8396L15.1515 27.2278C15.1515 27.2278 15.0118 27.3985 13.9717 27.383C12.916 27.3675 12.6366 27.0415 12.5435 26.8707L12.4814 26.4671C12.4814 26.4671 12.6833 26.1721 12.7298 26.1721C13.0713 26.2032 14.2357 26.6689 15.0429 26.7931C15.1204 26.7931 15.1358 26.8241 15.198 26.8396ZM17.449 26.0479C17.449 26.2186 17.4334 26.2186 17.4334 26.3894C17.6197 26.5291 18.0855 26.6068 18.9703 26.5912C20.2588 26.5601 21.4541 26.9793 22.9133 26.7309L22.9289 26.4515L22.7892 26.436L17.6197 26.0168L17.449 26.0479Z" fill="#010101"/>
<path d="M18.5822 26.5912H18.9703C19.8087 26.5602 20.6004 26.7464 21.4541 26.793C21.9043 26.7775 22.4632 26.6688 22.4166 26.3428L18.0079 25.9702C17.7439 26.2651 17.9457 26.5135 18.5822 26.5912ZM13.5214 20.0556C13.6611 20.1488 14.6081 20.7076 16.1449 20.63C16.1138 20.9249 16.1294 21.4994 15.4464 22.5084C15.1048 23.0051 14.8098 23.8745 14.7478 24.9767C14.7633 25.2251 14.903 25.4424 14.7168 25.7685C14.7788 25.9702 15.0272 26.3738 15.1514 26.6222C15.2756 26.8707 15.3377 27.1501 14.5149 27.1656C13.6766 27.1811 12.326 27.088 12.5123 26.436C12.6055 26.0945 12.8694 25.7374 12.9005 25.5977C12.9315 25.458 12.9315 25.0388 13.1954 24.7594C13.4283 23.9832 13.3506 23.238 13.3041 22.5395C13.2264 21.8098 13.2109 20.6455 13.5214 20.0556ZM14.9651 7.40361C16.0674 5.92878 15.1359 4.74905 13.3662 5.10604C12.6521 5.24574 11.938 5.74259 11.8914 6.64291C11.6586 6.67393 11.1308 6.70495 10.8668 7.66747C10.6651 8.41262 10.5564 8.55232 10.1993 8.92486C9.96644 9.18879 10.2148 9.73212 10.3855 10.1203C10.96 11.4553 12.7297 11.5795 13.925 12.5886C14.3287 12.4799 14.7478 12.0298 14.872 11.7348C13.8629 10.5394 14.0802 10.0737 13.6766 9.45279C14.1113 9.29747 15.1048 8.6921 14.9651 7.40361Z" fill="#010101"/>
<path d="M14.7473 7.31061C14.8094 7.2174 14.918 7.01566 14.9647 6.938C14.9802 6.92245 15.1509 7.2174 15.1665 7.20193C15.5856 6.51882 15.6943 5.52529 15.213 5.43215C15.1043 5.4166 14.9026 5.37011 14.7318 5.30792C14.4213 5.19924 14.1419 5.19924 13.6451 5.29245C12.9621 5.4166 12.279 5.91337 12.279 6.6275C12.279 6.67407 12.7602 6.81377 12.8999 7.3882C12.667 7.06216 12.2634 6.70509 11.7822 7.01559C11.2699 7.34156 11.5338 8.08671 10.8508 8.86288C10.6179 9.12681 10.6489 9.43731 10.8973 10.0582C11.3009 11.0363 13.2104 11.5641 14.2505 12.4955C14.4989 12.3868 14.6696 12.1384 14.7938 11.9522C14.0952 11.2226 13.8157 10.5394 13.614 10.0427C13.3656 9.46833 13.0861 9.14236 12.5428 8.70755C12.8223 8.81624 13.0396 8.92492 13.1637 9.01805C13.3034 9.11119 13.5052 9.12673 13.6916 9.06462C14.3592 8.83194 14.7163 7.90044 14.7473 7.31061Z" fill="#F0EFEF"/>
<path d="M21.4999 7.55899C21.4533 8.14889 21.0186 7.85394 20.7858 7.74525C20.3201 7.54344 19.8543 7.40374 19.311 7.40374C18.7676 7.40374 18.0691 7.4503 17.4637 7.60555C16.6254 7.83839 16.3769 7.82292 16.0044 7.63657C15.6319 7.43476 14.9799 6.93799 14.9799 6.93799C14.9799 6.93799 14.9644 7.09324 15.1196 7.29505C15.3214 7.54344 15.7716 7.85394 16.377 8.05568C16.672 8.14889 16.9049 8.0867 17.1688 8.02466C18.5504 7.68314 20.0096 7.62102 21.236 8.36617C21.2981 8.39719 21.5155 8.30406 21.6086 8.16436C21.7327 7.96262 21.4999 7.55899 21.4999 7.55899Z" fill="#010101"/>
<path d="M14.4365 13.4734C14.5607 13.5511 14.7159 13.5976 14.8866 13.7373C14.8866 13.7373 14.7469 13.7373 14.6849 13.6753C14.6072 13.6287 14.452 13.489 14.4365 13.4734Z" fill="#0A1825"/>
<path d="M18.923 1.16306C18.8764 1.02336 18.5348 0.774902 17.7432 0.774902C16.8894 0.774902 16.641 1.03883 16.6255 1.17854C16.6255 1.2251 16.5634 1.72195 16.5479 1.92369C16.5479 1.92369 16.5479 2.17207 16.5633 2.54461C16.5789 2.79299 16.641 2.93269 16.672 3.25874C16.703 3.60018 16.7962 3.81754 16.967 4.09702C17.0446 4.14351 17.1067 4.19016 17.1843 4.20571C17.4948 4.26774 18.0382 4.28329 18.3331 4.20571C18.5038 4.15914 18.7212 3.86419 18.7678 3.60026C18.8298 3.27429 18.8919 3.04137 18.9075 2.83963C18.9385 2.63789 18.954 2.18762 18.9695 2.06339C19.0161 1.72195 18.9385 1.19408 18.923 1.16306Z" fill="#F0EFEF"/>
<path d="M17.2932 20.3507C17.2932 20.3507 18.116 20.7078 20.1496 20.3973C20.1496 20.3973 19.5753 23.2847 19.8392 24.7284C19.8392 24.7284 20.1031 25.101 22.0591 25.8151C22.0591 25.8151 22.9284 26.0324 22.8974 26.4672C22.8974 26.4672 22.9284 26.5603 21.8728 26.5292C20.8173 26.4981 19.8237 26.3118 19.1251 26.3118C18.4265 26.3118 17.6813 26.3429 17.5572 26.1411C17.4175 25.9548 17.5882 25.4736 17.79 25.1941C18.0075 24.8992 17.9453 24.6818 17.9298 24.154C17.8831 22.7724 16.8274 21.3442 17.2932 20.3507Z" fill="#010101"/>
<path d="M17.1222 20.6147C17.0135 20.7699 17.1376 21.3598 17.2929 21.9342C17.4481 22.5085 17.7897 22.8501 17.8673 23.797C17.9449 24.7284 17.9604 24.8527 17.6965 25.3959C17.4326 25.9392 17.355 26.436 18.2709 26.4516C19.1867 26.4671 19.6836 26.436 20.615 26.5758C21.5465 26.7155 21.8725 26.7621 22.3848 26.6845C22.8971 26.6069 23.0057 26.436 22.7884 26.2809C22.5711 26.1256 21.6707 25.9549 21.2826 25.6443C20.91 25.3649 19.8544 24.8992 19.8389 24.775C19.7923 24.3558 19.7768 22.8345 19.8544 22.3377C19.932 21.8409 20.0406 21.1268 20.0717 20.9406C20.1028 20.7543 20.258 20.568 19.9941 20.6301C19.7302 20.6921 18.7367 20.8319 17.9915 20.7853C17.2464 20.7388 17.1688 20.568 17.1222 20.6147Z" fill="#8AC640"/>
<path opacity="0.3" d="M17.6504 25.4115C17.9142 25.5357 18.3024 25.6289 18.5973 25.6289C18.5973 25.6289 18.4886 26.1412 18.6594 26.4516C18.8301 26.7621 17.4175 26.5758 17.4175 26.5758L17.3554 25.4736L17.6504 25.4115ZM21.7642 26.7466C22.0126 26.6689 22.1834 26.3895 21.9816 26.1256C21.7642 25.8617 21.5779 25.8151 21.8573 25.7997C22.1368 25.7841 23.1614 26.405 23.1614 26.405L22.6335 26.8863L21.7642 26.7466ZM17.0759 21.22C17.433 21.3442 17.9763 21.3753 18.4421 21.3597C18.9078 21.3442 19.6063 21.2821 20.0566 21.1269C20.5067 20.9716 20.3205 21.2976 20.3205 21.2976L20.0721 21.5305C20.0721 21.5305 19.4822 21.7633 18.5198 21.7479C17.3865 21.7323 17.0449 21.6082 17.0449 21.6082L17.0759 21.22ZM17.107 21.9963C17.4641 22.1205 18.0074 22.1515 18.4731 22.136C18.9388 22.1205 19.5598 22.1205 20.01 21.9497C20.1962 21.8877 20.0876 22.1515 20.0876 22.1515L20.01 22.2912C20.01 22.2912 19.4045 22.5086 18.4576 22.493C17.3243 22.4775 17.1225 22.3843 17.1225 22.3843L17.107 21.9963Z" fill="#010101"/>
<path d="M16.082 11.114C16.082 11.2227 17.2929 11.8281 17.9604 11.9523C18.628 12.0765 20.0251 11.9523 20.2424 11.9057L20.2113 12.1231C20.2113 12.1231 18.5503 12.3715 17.2774 12.03C16.0044 11.6884 16.1441 11.6108 16.1441 11.6108L16.082 11.114Z" fill="#010101"/>
<path d="M13.4895 24.3557C13.6757 24.4489 14.3433 24.6196 14.778 24.5265C14.84 24.511 14.778 23.4553 14.9487 22.9741C15.1971 22.3065 15.6008 21.7632 15.787 20.5835C15.1349 20.5213 14.3899 20.3505 14.0017 20.2263C13.505 21.7477 13.6758 23.0517 13.4895 24.3557ZM14.5296 25.3338C14.6383 25.3648 14.7159 25.4889 14.747 25.4114C14.809 25.2717 14.6383 25.0078 14.6228 24.8215V24.806C14.4831 24.6818 13.5361 24.6663 13.5982 24.7283C13.4895 24.9301 13.3188 24.8991 13.2568 25.3027C13.2258 25.5045 13.4741 25.3338 13.7069 25.3182C13.2878 25.5976 12.8066 25.9548 12.7289 26.2652C12.6358 26.6998 12.791 26.8241 13.2568 27.057C13.6604 27.1501 14.1416 27.1657 14.5142 27.1501C14.9334 27.0725 15.011 26.8707 14.8868 26.5912C14.7004 26.1721 14.5762 25.6287 14.5296 25.3338Z" fill="#F0EFEF"/>
<path d="M14.701 5.16821C15.2134 5.46316 15.9275 5.38558 16.1913 5.37003C16.2535 5.37003 16.8745 5.26135 16.9055 5.27682C16.9675 5.29237 16.9675 5.33893 16.9675 5.33893C16.9675 5.33893 16.7347 5.46309 16.2069 5.49411C15.7101 5.52513 15.1202 5.49411 14.7943 5.33893C14.4061 5.16821 14.701 5.16821 14.701 5.16821ZM19.9792 5.46316C20.0723 5.5252 20.6778 5.75811 20.9417 6.03752C21.1746 6.28598 21.0504 6.27043 21.0038 6.20831C20.9417 6.13065 20.4604 5.80468 20.2742 5.72709C20.0879 5.64951 19.855 5.50973 19.855 5.47871C19.855 5.44769 19.9792 5.46316 19.9792 5.46316Z" fill="#010101"/>
<path d="M14.623 11.9056C15.0732 11.8746 15.539 11.9833 15.8339 12.2937C15.9892 12.4489 16.2376 12.6197 16.2065 12.7749C16.2065 12.8215 16.1133 12.9457 16.0358 13.0388C15.9892 13.1009 15.8495 13.2406 15.8029 13.2872C15.7409 13.3338 15.5235 13.5046 15.4769 13.5356C15.4304 13.5667 15.3682 13.6444 15.3217 13.6598C15.1665 13.7375 14.9957 13.6754 14.8405 13.5978C14.6853 13.5201 14.8716 13.5046 14.7008 13.3804C14.2817 13.0855 14.0487 12.8836 14.2195 12.3092C14.235 12.2005 14.4057 12.0763 14.623 11.9056Z" fill="#F0EFEF"/>
<path opacity="0.4" d="M10.6643 8.35056C9.26716 8.90944 5.71213 10.6792 4.70312 11.2226C5.54141 11.7503 5.9295 13.0233 6.05373 14.3118C6.0692 14.436 6.08474 14.5447 6.10029 14.6688C6.11576 14.7775 6.13131 14.8551 6.14678 14.9017C6.14678 14.9173 6.14678 14.9483 6.16233 14.9638C7.07828 12.4645 10.3538 9.82539 10.478 9.62357C10.54 9.53044 10.4003 9.12681 10.6177 8.7388C10.8972 8.24188 11.4406 8.02451 10.6643 8.35056ZM13.9865 20.0712C14.7005 18.643 14.7161 17.2768 14.7005 15.6778C14.7005 15.0103 15.1817 14.0633 14.9334 14.3272C14.0019 15.3673 11.6579 17.3234 9.96575 17.432C12.3409 17.3544 13.2723 18.5498 13.9865 20.0712Z" fill="#010101"/>
<path d="M3.33691 12.5421C4.22177 11.9056 8.80135 9.46843 9.90357 9.12683C11.0057 8.76977 10.6642 8.35059 10.6642 8.35059C10.6642 8.35059 6.19329 10.2755 3.52318 11.9366" fill="#010101"/>
<path opacity="0.4" d="M16.3774 8.05575C16.0203 7.91605 15.7409 8.33523 15.834 8.73886C15.9273 9.14249 16.7655 9.59262 16.7189 11.0674C16.6879 12.2783 16.4239 12.775 16.4239 12.775L15.834 12.03C15.834 12.03 15.7409 10.3533 15.5391 10.1049C15.3374 9.85655 14.7008 9.40635 14.4524 9.17351C14.204 8.9406 14.7318 8.63018 14.7008 8.19545C14.6698 7.77635 14.9647 6.93806 14.9647 6.93806L16.3774 8.05575ZM18.5352 14.6689C18.5042 15.8332 18.7682 17.5564 18.8768 18.3792C18.9854 19.2019 19.1251 19.264 18.8768 19.6366C18.6284 19.9937 18.3024 20.5836 18.3024 20.5836L17.2312 20.4904C17.2312 20.4904 18.085 19.4037 18.1315 19.2019C18.1781 19.0002 17.6969 17.4633 17.6969 17.4633L18.5352 14.6689ZM16.4706 3.80221C16.688 4.28335 16.9518 4.50072 17.3709 4.64049C17.6193 4.73363 18.5973 4.85786 18.9854 4.42313C19.1562 4.22131 19.0475 3.67798 19.0475 3.67798L18.1626 4.39203L16.9673 4.17475L16.8276 3.81768L16.4706 3.80221Z" fill="#010101"/>
<path d="M16.5636 4.87329C16.9672 5.13722 17.9763 5.38561 18.2557 5.43217C18.5351 5.49421 18.9853 5.13722 19.2027 5.04409C19.4356 4.93541 19.8392 4.87329 20.3049 5.29247C20.3515 5.33904 20.1962 5.54085 20.1962 5.54085C20.1807 5.52531 20.0875 5.52531 19.9633 5.46319C19.8392 5.40115 19.7305 5.35451 19.5442 5.37006C18.768 5.46319 18.6438 5.72712 17.9608 5.5718C17.2777 5.41647 17.1069 5.2924 16.4395 5.32341" fill="#8AC640"/>
<path d="M16.5636 4.87329C16.9672 5.13722 17.9763 5.38561 18.2557 5.43217C18.5351 5.49421 18.9853 5.13722 19.2027 5.04409C19.4356 4.93541 19.8392 4.87329 20.3049 5.29247C20.3515 5.33904 20.1962 5.54085 20.1962 5.54085C20.1807 5.52531 20.0875 5.52531 19.9633 5.46319C19.8392 5.40115 19.7305 5.35451 19.5442 5.37006C18.768 5.46319 18.6438 5.72712 17.9608 5.5718C17.2777 5.41647 17.1069 5.2924 16.4395 5.32341" stroke="#010101" stroke-width="0.120876" stroke-miterlimit="10" stroke-linejoin="round"/>
<path d="M16.4234 4.91992C16.9358 5.13729 17.9293 5.37012 18.2087 5.43224C18.4881 5.49435 18.9383 5.21487 19.1557 5.07517C19.5438 4.82679 20.0405 5.0286 20.2734 5.29254C20.4286 5.46326 20.4908 5.57194 20.4908 5.61851C20.4908 5.68054 20.3045 5.61851 20.3045 5.61851C20.1958 5.57194 20.0716 5.55647 19.9786 5.49428C19.8543 5.43224 19.7301 5.3391 19.5439 5.35457C18.7677 5.44778 18.6124 5.71164 17.9449 5.55639C17.2774 5.40114 17.1066 5.26144 16.3926 5.30793" fill="#8AC640"/>
<path d="M14.0181 19.4191C13.987 19.3881 14.0491 19.3571 14.0181 19.3571C13.8163 19.3571 13.5368 19.2019 13.3815 18.9845C12.714 18.0221 11.736 17.3856 9.96626 17.4322C7.31163 17.4942 6.25598 16.4076 6.05424 14.3274C5.94556 13.1942 5.63506 12.0919 4.99859 11.4709L4.62598 11.7039C5.34003 12.3248 5.57294 13.3339 5.72819 14.7155C5.97658 16.7957 7.65315 17.7582 9.6092 17.7892C11.6428 17.8202 12.3724 18.2394 13.1331 19.264C13.3814 19.59 13.6609 19.6987 13.8782 19.7453L14.0181 19.4191Z" fill="#010101"/>
<path opacity="0.4" d="M21.2213 9.43726C21.2679 9.67009 21.392 10.1203 21.6404 10.3376C21.7492 10.4463 21.7646 10.4773 21.6715 10.4773C21.5783 10.4773 20.8953 10.4463 20.8953 10.4463L20.709 10.1203L21.2213 9.43726Z" fill="#010101"/>
</g>
<defs>
<clipPath id="clip0_6049_8662">
<rect width="24" height="27.8164" fill="white"/>
</clipPath>
</defs>
</svg>
