<svg width="24" height="24" viewBox="0 0 24 24" fill="none" xmlns="http://www.w3.org/2000/svg">
<g clip-path="url(#clip0_6050_8723)">
<path d="M14.0868 23.0171L9.9209 18.9548L18.8677 9.81848L23.1809 14.0458L14.0868 23.0171Z" fill="#8AB4F8"/>
<path d="M14.1048 5.05666L9.95386 0.818481L0.8775 9.80894C-0.2925 10.9789 -0.2925 12.8758 0.8775 14.0471L9.8175 23.0458L14.0448 19.0912L7.23341 11.928L14.1048 5.05666Z" fill="#4285F4"/>
<path d="M23.1208 9.87852L14.1208 0.878523C12.9494 -0.292841 11.0499 -0.292841 9.87852 0.878523C8.70716 2.04989 8.70716 3.94943 9.87852 5.1208L18.8785 14.1208C20.0499 15.2922 21.9494 15.2922 23.1208 14.1208C24.2922 12.9494 24.2922 11.0499 23.1208 9.87852Z" fill="#8AB4F8"/>
<path d="M11.9308 24.0004C13.55 24.0004 14.8627 22.6877 14.8627 21.0685C14.8627 19.4493 13.55 18.1367 11.9308 18.1367C10.3116 18.1367 8.99902 19.4493 8.99902 21.0685C8.99902 22.6877 10.3116 24.0004 11.9308 24.0004Z" fill="#246FDB"/>
</g>
<defs>
<clipPath id="clip0_6050_8723">
<rect width="24" height="24" fill="white"/>
</clipPath>
</defs>
</svg>
