<svg width="160" height="48" viewBox="0 0 160 48" fill="none" xmlns="http://www.w3.org/2000/svg">
<g style="mix-blend-mode:luminosity">
<path d="M30.5312 0H32.6875V2.1375H34.675V0H36.8313V6.46875H34.675V4.3125H32.7063V6.46875H30.5312V0ZM39.6812 2.15625H37.7781V0H43.75V2.15625H41.8375V6.46875H39.6812V2.15625ZM44.6969 0H46.9563L48.3438 2.27812L49.7313 0H51.9906V6.46875H49.8344V3.2625L48.325 5.5875L46.8156 3.2625V6.46875H44.6969V0ZM53.0594 0H55.2156V4.33125H58.2719V6.46875H53.0594V0Z" fill="black"/>
<path d="M30.457 44.1562L27.3633 9.43115H61.3758L58.282 44.1374L44.3414 47.9999" fill="#FF4C1E"/>
<path d="M44.3691 45.0469V12.2812H58.2723L55.6191 41.9062L44.3691 45.0469Z" fill="#FF651E"/>
<path d="M33.6816 16.5283H44.3691L45.9583 18.6564L44.3691 20.7846H38.3504L38.7441 25.1439H44.3691L45.9583 27.3517L44.3691 29.3908H34.8441L33.6816 16.5283ZM35.0316 31.5283H39.3066L39.6066 34.9314L44.3691 36.2064L46.1623 38.3308L44.3691 40.6502L35.6316 38.2127L35.0316 31.5283Z" fill="#EBEBEB"/>
<path d="M55.0203 16.5283H44.3516V20.7846H54.6266L55.0203 16.5283ZM54.2422 25.1439H44.3516V29.4002H49.6016L49.1047 34.9314L44.3516 36.2064V40.6314L53.0703 38.2127L54.2422 25.1439Z" fill="white"/>
<path d="M97.7691 16.96V31H94.3491V25.22H89.0291V31H85.6091V16.96H89.0291V22.46H94.3491V16.96H97.7691ZM110.338 16.96V19.7H106.618V31H103.198V19.7H99.478V16.96H110.338ZM127.954 16.96V31H124.534V22.58L121.394 31H118.634L115.474 22.56V31H112.054V16.96H116.094L120.034 26.68L123.934 16.96H127.954ZM133.834 28.36H138.314V31H130.414V16.96H133.834V28.36Z" fill="black"/>
</g>
</svg>
