<svg width="24" height="24" viewBox="0 0 24 24" fill="none" xmlns="http://www.w3.org/2000/svg">
<g clip-path="url(#clip0_4881_2964)">
<path d="M12.0004 23.1004C18.1308 23.1004 23.1004 18.1308 23.1004 12.0004C23.1004 5.87003 18.1308 0.900391 12.0004 0.900391C5.87003 0.900391 0.900391 5.87003 0.900391 12.0004C0.900391 18.1308 5.87003 23.1004 12.0004 23.1004Z" fill="white"/>
<path d="M12.0004 23.1004C18.1308 23.1004 23.1004 18.1308 23.1004 12.0004C23.1004 5.87003 18.1308 0.900391 12.0004 0.900391C5.87003 0.900391 0.900391 5.87003 0.900391 12.0004C0.900391 18.1308 5.87003 23.1004 12.0004 23.1004Z" stroke="#5E72E4" stroke-width="1.8"/>
<path fill-rule="evenodd" clip-rule="evenodd" d="M5.70117 20.7008H18.3012C16.9214 19.7153 15.8865 19.0892 15.1966 18.8226C14.5067 18.5559 13.4719 18.382 12.092 18.3008C10.6719 18.382 9.6068 18.5559 8.89669 18.8226C8.18657 19.0892 7.1214 19.7153 5.70117 20.7008Z" fill="#5E72E4" stroke="#5E72E4" stroke-width="0.3"/>
<path fill-rule="evenodd" clip-rule="evenodd" d="M5.70117 20.7006H18.3012C16.9214 21.6861 15.8865 22.3121 15.1966 22.5788C14.5067 22.8455 13.4719 23.0194 12.092 23.1006C10.6719 23.0194 9.6068 22.8455 8.89669 22.5788C8.18657 22.3121 7.1214 21.6861 5.70117 20.7006Z" fill="#5E72E4" stroke="#5E72E4" stroke-width="0.3"/>
<path d="M12.1504 14.4004C13.393 14.4004 14.4004 13.393 14.4004 12.1504C14.4004 10.9078 13.393 9.90039 12.1504 9.90039C10.9078 9.90039 9.90039 10.9078 9.90039 12.1504C9.90039 13.393 10.9078 14.4004 12.1504 14.4004Z" fill="#5E72E4"/>
<path fill-rule="evenodd" clip-rule="evenodd" d="M11.4004 10.6067L16.8004 7.2002L13.8397 12.9002L11.4004 10.6067Z" fill="#5E72E4" stroke="#5E72E4" stroke-width="0.9" stroke-linejoin="round"/>
<path d="M12.1504 3.90039V5.10039" stroke="#5E72E4" stroke-width="1.5" stroke-linecap="round"/>
<path d="M6.47266 6.47266L7.32714 7.3575" stroke="#5E72E4" stroke-width="1.5" stroke-linecap="round"/>
<path d="M3.75 12H4.95" stroke="#5E72E4" stroke-width="1.5" stroke-linecap="round"/>
<path d="M19.0508 12H20.2508" stroke="#5E72E4" stroke-width="1.5" stroke-linecap="round"/>
</g>
<defs>
<clipPath id="clip0_4881_2964">
<rect width="24" height="24" fill="white"/>
</clipPath>
</defs>
</svg>
