<svg width="217" height="48" viewBox="0 0 217 48" fill="none" xmlns="http://www.w3.org/2000/svg">
<g style="mix-blend-mode:luminosity">
<g clip-path="url(#clip0_5039_1022)">
<path d="M20.3691 0H68.3691V48H20.3691V0Z" fill="#FFDF00"/>
<path d="M52.6132 37.5C53.58 39.0786 54.838 40.239 57.0627 40.239C58.9317 40.239 60.1256 39.3048 60.1256 38.0142C60.1256 36.4675 58.8989 35.9197 56.8418 35.0199L55.7142 34.536C52.4592 33.1494 50.297 31.4122 50.297 27.7398C50.297 24.357 52.8746 21.7817 56.9027 21.7817C59.7705 21.7817 61.8323 22.7798 63.3179 25.3932L59.8056 27.6484C59.0323 26.2618 58.198 25.7155 56.9027 25.7155C55.5816 25.7155 54.7442 26.5536 54.7442 27.6484C54.7442 29.0016 55.5823 29.5494 57.5175 30.3875L58.6452 30.8705C62.4776 32.514 64.6413 34.1894 64.6413 37.9562C64.6413 42.0172 61.4512 44.242 57.167 44.242C52.9781 44.242 50.2718 42.2458 48.9476 39.6294L52.6132 37.5ZM36.6794 37.8908C37.388 39.148 38.0326 40.2108 39.5823 40.2108C41.0642 40.2108 41.9991 39.631 41.9991 37.3766V22.0394H46.5096V37.4374C46.5096 42.1079 43.7713 44.2336 39.7743 44.2336C36.1629 44.2336 34.0715 42.3646 33.0078 40.1136L36.6794 37.8908Z" fill="black"/>
</g>
<path d="M94.4091 16.96V26.52C94.4091 28 93.9891 29.14 93.1491 29.94C92.3225 30.74 91.2025 31.14 89.7891 31.14C88.3091 31.14 87.1225 30.72 86.2291 29.88C85.3358 29.04 84.8891 27.8467 84.8891 26.3H88.2891C88.2891 26.8867 88.4091 27.3333 88.6491 27.64C88.8891 27.9333 89.2358 28.08 89.6891 28.08C90.1025 28.08 90.4225 27.9467 90.6491 27.68C90.8758 27.4133 90.9891 27.0267 90.9891 26.52V16.96H94.4091ZM96.4916 25.4C96.4916 24.2533 96.705 23.2467 97.1316 22.38C97.5716 21.5133 98.165 20.8467 98.9116 20.38C99.6583 19.9133 100.492 19.68 101.412 19.68C102.198 19.68 102.885 19.84 103.472 20.16C104.072 20.48 104.532 20.9 104.852 21.42V19.84H108.272V31H104.852V29.42C104.518 29.94 104.052 30.36 103.452 30.68C102.865 31 102.178 31.16 101.392 31.16C100.485 31.16 99.6583 30.9267 98.9116 30.46C98.165 29.98 97.5716 29.3067 97.1316 28.44C96.705 27.56 96.4916 26.5467 96.4916 25.4ZM104.852 25.42C104.852 24.5667 104.612 23.8933 104.132 23.4C103.665 22.9067 103.092 22.66 102.412 22.66C101.732 22.66 101.152 22.9067 100.672 23.4C100.205 23.88 99.9716 24.5467 99.9716 25.4C99.9716 26.2533 100.205 26.9333 100.672 27.44C101.152 27.9333 101.732 28.18 102.412 28.18C103.092 28.18 103.665 27.9333 104.132 27.44C104.612 26.9467 104.852 26.2733 104.852 25.42ZM115.766 27.8L118.186 19.84H121.826L117.866 31H113.646L109.686 19.84H113.346L115.766 27.8ZM122.585 25.4C122.585 24.2533 122.799 23.2467 123.225 22.38C123.665 21.5133 124.259 20.8467 125.005 20.38C125.752 19.9133 126.585 19.68 127.505 19.68C128.292 19.68 128.979 19.84 129.565 20.16C130.165 20.48 130.625 20.9 130.945 21.42V19.84H134.365V31H130.945V29.42C130.612 29.94 130.145 30.36 129.545 30.68C128.959 31 128.272 31.16 127.485 31.16C126.579 31.16 125.752 30.9267 125.005 30.46C124.259 29.98 123.665 29.3067 123.225 28.44C122.799 27.56 122.585 26.5467 122.585 25.4ZM130.945 25.42C130.945 24.5667 130.705 23.8933 130.225 23.4C129.759 22.9067 129.185 22.66 128.505 22.66C127.825 22.66 127.245 22.9067 126.765 23.4C126.299 23.88 126.065 24.5467 126.065 25.4C126.065 26.2533 126.299 26.9333 126.765 27.44C127.245 27.9333 127.825 28.18 128.505 28.18C129.185 28.18 129.759 27.9333 130.225 27.44C130.705 26.9467 130.945 26.2733 130.945 25.42ZM141.92 31.14C140.893 31.14 139.973 30.9733 139.16 30.64C138.346 30.3067 137.693 29.8133 137.2 29.16C136.72 28.5067 136.466 27.72 136.44 26.8H140.08C140.133 27.32 140.313 27.72 140.62 28C140.926 28.2667 141.326 28.4 141.82 28.4C142.326 28.4 142.726 28.2867 143.02 28.06C143.313 27.82 143.46 27.4933 143.46 27.08C143.46 26.7333 143.34 26.4467 143.1 26.22C142.873 25.9933 142.586 25.8067 142.24 25.66C141.906 25.5133 141.426 25.3467 140.8 25.16C139.893 24.88 139.153 24.6 138.58 24.32C138.006 24.04 137.513 23.6267 137.1 23.08C136.686 22.5333 136.48 21.82 136.48 20.94C136.48 19.6333 136.953 18.6133 137.9 17.88C138.846 17.1333 140.08 16.76 141.6 16.76C143.146 16.76 144.393 17.1333 145.34 17.88C146.286 18.6133 146.793 19.64 146.86 20.96H143.16C143.133 20.5067 142.966 20.1533 142.66 19.9C142.353 19.6333 141.96 19.5 141.48 19.5C141.066 19.5 140.733 19.6133 140.48 19.84C140.226 20.0533 140.1 20.3667 140.1 20.78C140.1 21.2333 140.313 21.5867 140.74 21.84C141.166 22.0933 141.833 22.3667 142.74 22.66C143.646 22.9667 144.38 23.26 144.94 23.54C145.513 23.82 146.006 24.2267 146.42 24.76C146.833 25.2933 147.04 25.98 147.04 26.82C147.04 27.62 146.833 28.3467 146.42 29C146.02 29.6533 145.433 30.1733 144.66 30.56C143.886 30.9467 142.973 31.14 141.92 31.14ZM148.464 25.42C148.464 24.26 148.698 23.2467 149.164 22.38C149.644 21.5133 150.304 20.8467 151.144 20.38C151.998 19.9133 152.971 19.68 154.064 19.68C155.464 19.68 156.631 20.0467 157.564 20.78C158.511 21.5133 159.131 22.5467 159.424 23.88H155.784C155.478 23.0267 154.884 22.6 154.004 22.6C153.378 22.6 152.878 22.8467 152.504 23.34C152.131 23.82 151.944 24.5133 151.944 25.42C151.944 26.3267 152.131 27.0267 152.504 27.52C152.878 28 153.378 28.24 154.004 28.24C154.884 28.24 155.478 27.8133 155.784 26.96H159.424C159.131 28.2667 158.511 29.2933 157.564 30.04C156.618 30.7867 155.451 31.16 154.064 31.16C152.971 31.16 151.998 30.9267 151.144 30.46C150.304 29.9933 149.644 29.3267 149.164 28.46C148.698 27.5933 148.464 26.58 148.464 25.42ZM164.674 21.7C165.074 21.0867 165.574 20.6067 166.174 20.26C166.774 19.9 167.44 19.72 168.174 19.72V23.34H167.234C166.38 23.34 165.74 23.5267 165.314 23.9C164.887 24.26 164.674 24.9 164.674 25.82V31H161.254V19.84H164.674V21.7ZM171.528 18.68C170.928 18.68 170.435 18.5067 170.048 18.16C169.675 17.8 169.488 17.36 169.488 16.84C169.488 16.3067 169.675 15.8667 170.048 15.52C170.435 15.16 170.928 14.98 171.528 14.98C172.115 14.98 172.595 15.16 172.968 15.52C173.355 15.8667 173.548 16.3067 173.548 16.84C173.548 17.36 173.355 17.8 172.968 18.16C172.595 18.5067 172.115 18.68 171.528 18.68ZM173.228 19.84V31H169.808V19.84H173.228ZM179.127 21.42C179.46 20.9 179.92 20.48 180.507 20.16C181.093 19.84 181.78 19.68 182.567 19.68C183.487 19.68 184.32 19.9133 185.067 20.38C185.813 20.8467 186.4 21.5133 186.827 22.38C187.267 23.2467 187.487 24.2533 187.487 25.4C187.487 26.5467 187.267 27.56 186.827 28.44C186.4 29.3067 185.813 29.98 185.067 30.46C184.32 30.9267 183.487 31.16 182.567 31.16C181.793 31.16 181.107 31 180.507 30.68C179.92 30.36 179.46 29.9467 179.127 29.44V36.32H175.707V19.84H179.127V21.42ZM184.007 25.4C184.007 24.5467 183.767 23.88 183.287 23.4C182.82 22.9067 182.24 22.66 181.547 22.66C180.867 22.66 180.287 22.9067 179.807 23.4C179.34 23.8933 179.107 24.5667 179.107 25.42C179.107 26.2733 179.34 26.9467 179.807 27.44C180.287 27.9333 180.867 28.18 181.547 28.18C182.227 28.18 182.807 27.9333 183.287 27.44C183.767 26.9333 184.007 26.2533 184.007 25.4ZM195.501 28.1V31H193.761C192.521 31 191.554 30.7 190.861 30.1C190.168 29.4867 189.821 28.4933 189.821 27.12V22.68H188.461V19.84H189.821V17.12H193.241V19.84H195.481V22.68H193.241V27.16C193.241 27.4933 193.321 27.7333 193.481 27.88C193.641 28.0267 193.908 28.1 194.281 28.1H195.501Z" fill="black"/>
</g>
<defs>
<clipPath id="clip0_5039_1022">
<rect width="48" height="48" fill="white" transform="translate(20.3691)"/>
</clipPath>
</defs>
</svg>
