<svg width="24" height="24" viewBox="0 0 24 24" fill="none" xmlns="http://www.w3.org/2000/svg">
<g clip-path="url(#clip0_4879_1651)">
<path d="M0 0H24V24H0V0Z" fill="#FFDF00"/>
<path d="M16.121 18.7497C16.6045 19.5391 17.2334 20.1192 18.3458 20.1192C19.2803 20.1192 19.8772 19.6522 19.8772 19.0068C19.8772 18.2335 19.2639 17.9596 18.2353 17.5097L17.6715 17.2678C16.0441 16.5745 14.963 15.7059 14.963 13.8697C14.963 12.1782 16.2517 10.8906 18.2658 10.8906C19.6997 10.8906 20.7306 11.3897 21.4734 12.6963L19.7173 13.824C19.3306 13.1306 18.9134 12.8575 18.2658 12.8575C17.6053 12.8575 17.1866 13.2766 17.1866 13.824C17.1866 14.5006 17.6056 14.7745 18.5732 15.1935L19.137 15.435C21.0532 16.2567 22.1351 17.0944 22.1351 18.9779C22.1351 21.0084 20.54 22.1207 18.398 22.1207C16.3035 22.1207 14.9503 21.1226 14.2882 19.8145L16.121 18.7497ZM8.15417 18.9452C8.50845 19.5737 8.83077 20.1052 9.60561 20.1052C10.3466 20.1052 10.814 19.8153 10.814 18.688V11.0194H13.0693V18.7185C13.0693 21.0537 11.7001 22.1166 9.70161 22.1166C7.89589 22.1166 6.8502 21.1821 6.31836 20.0566L8.15417 18.9452Z" fill="black"/>
</g>
<defs>
<clipPath id="clip0_4879_1651">
<rect width="24" height="24" fill="white"/>
</clipPath>
</defs>
</svg>
