<svg width="196" height="53" viewBox="0 0 196 53" fill="none" xmlns="http://www.w3.org/2000/svg">
<g clip-path="url(#clip0_5633_1537)">
<path d="M31.2564 17.4277C30.5443 16.124 29.5255 15.1161 28.1999 14.4259C26.8743 13.7358 25.3186 13.3852 23.5219 13.3852C20.4215 13.3852 17.9347 14.404 16.0722 16.4417C14.2098 18.4794 13.2677 21.1964 13.2677 24.5926C13.2677 27.9888 14.2427 31.0453 16.2037 33.083C18.1647 35.1207 20.8598 36.1396 24.2998 36.1396C27.7398 36.1396 28.6381 35.537 30.2705 34.3429C31.8919 33.1488 33.086 31.4288 33.831 29.1829H21.6705V22.1276H42.5186V31.0344C41.8065 33.4226 40.6014 35.6466 38.9033 37.7062C37.2052 39.7658 35.047 41.4201 32.4287 42.6909C29.8103 43.9618 26.8633 44.5972 23.5767 44.5972C20.2901 44.5972 16.2256 43.7426 13.18 42.0446C10.1344 40.3465 7.76803 37.9801 6.05899 34.9564C4.3609 31.9327 3.51733 28.4817 3.51733 24.5926C3.51733 20.7034 4.3609 17.2415 6.06995 14.1959C7.76803 11.1503 10.1344 8.78391 13.1581 7.07486C16.1818 5.38773 19.6327 4.5332 23.5219 4.5332C27.4111 4.5332 32.1986 5.67257 35.4305 7.95129C38.6623 10.23 40.7986 13.3852 41.8503 17.4277H31.2564Z" fill="#727597"/>
<path d="M31.3331 17.4939C30.621 16.1902 29.6021 15.1823 28.2765 14.4921C26.9509 13.8019 25.3953 13.4514 23.5986 13.4514C20.4982 13.4514 18.0113 14.4702 16.1489 16.5079C14.2865 18.5456 13.3443 21.2626 13.3443 24.6588C13.3443 28.0549 14.3193 31.1115 16.2804 33.1492C18.2414 35.1869 20.9364 36.2058 24.3764 36.2058C27.8164 36.2058 28.7148 35.6032 30.3471 34.4091C31.9685 33.2149 33.1627 31.4949 33.9076 29.2491H21.7471V22.1938H42.5953V31.1005C41.8832 33.4888 40.6781 35.7128 38.98 37.7724C37.2819 39.832 35.1237 41.4863 32.5053 42.7571C29.887 44.0279 26.94 44.6633 23.6534 44.6633C20.3667 44.6633 16.3023 43.8088 13.2567 42.1107C10.2111 40.4126 7.84469 38.0463 6.13565 35.0226C4.44852 32.0098 3.59399 28.5479 3.59399 24.6697C3.59399 20.7915 4.43756 17.3186 6.14661 14.273C7.84469 11.2274 10.2111 8.86105 13.2348 7.15201C16.2585 5.45392 19.7204 4.61035 23.5986 4.61035C27.4768 4.61035 32.2753 5.74971 35.5071 8.02844C38.739 10.3072 40.8753 13.4623 41.927 17.5049H31.3331V17.4939Z" fill="#727597"/>
<path d="M31.4207 17.5708C30.7086 16.2671 29.6898 15.2592 28.3642 14.569C27.0386 13.8788 25.4829 13.5282 23.6862 13.5282C20.5858 13.5282 18.099 14.5471 16.2365 16.5848C14.3741 18.6225 13.432 21.3395 13.432 24.7356C13.432 28.1318 14.407 31.1884 16.368 33.2261C18.329 35.2638 21.0241 36.2826 24.4641 36.2826C27.9041 36.2826 28.8024 35.6801 30.4348 34.486C32.0562 33.2918 33.2503 31.5718 33.9953 29.326H21.8348V22.2707H42.6829V31.1774C41.9708 33.5657 40.7657 35.7897 39.0676 37.8493C37.3695 39.9089 35.2113 41.5632 32.593 42.834C29.9746 44.1048 27.0276 44.7402 23.741 44.7402C20.4544 44.7402 16.3899 43.8857 13.3443 42.1876C10.2987 40.4895 7.93234 38.1232 6.2233 35.0995C4.52521 32.0867 3.68164 28.6248 3.68164 24.7356C3.68164 20.8465 4.52521 17.3846 6.23425 14.3389C7.93234 11.2933 10.2987 8.92697 13.3224 7.21793C16.3461 5.53079 19.7971 4.67627 23.6862 4.67627C27.5754 4.67627 32.3629 5.81563 35.5948 8.09436C38.8266 10.3731 40.9629 13.5282 42.0146 17.5708H31.4207Z" fill="#727597"/>
<path d="M31.4974 17.6465C30.7853 16.3428 29.7664 15.3349 28.4408 14.6447C27.1152 13.9545 25.5595 13.6039 23.7629 13.6039C20.6625 13.6039 18.1756 14.6228 16.3132 16.6605C14.4508 18.6982 13.5086 21.4151 13.5086 24.8113C13.5086 28.2075 14.4836 31.2641 16.4446 33.3018C18.4057 35.3395 21.1007 36.3583 24.5407 36.3583C27.9807 36.3583 28.879 35.7558 30.5114 34.5616C32.1328 33.3675 33.3269 31.6475 34.0719 29.4016H21.9114V22.3464H42.7595V31.2531C42.0474 33.6414 40.8424 35.8653 39.1443 37.925C37.4462 39.9846 35.288 41.6388 32.6696 42.9097C30.0513 44.1805 27.1043 44.8159 23.8176 44.8159C20.531 44.8159 16.4666 43.9614 13.4209 42.2633C10.3753 40.5652 8.00897 38.1988 6.29993 35.1751C4.60184 32.1515 3.74731 28.6895 3.74731 24.8113C3.74731 20.9331 4.59088 17.4602 6.29993 14.4146C7.99802 11.369 10.3644 9.00266 13.3881 7.29361C16.4227 5.60648 19.8737 4.75195 23.7629 4.75195C27.652 4.75195 32.4395 5.89132 35.6714 8.17004C38.9032 10.4488 41.0395 13.6039 42.0913 17.6465H31.4974Z" fill="#727597"/>
<path d="M31.5742 17.7122C30.8621 16.4085 29.8432 15.4006 28.5176 14.7104C27.192 14.0202 25.6363 13.6696 23.8396 13.6696C20.7393 13.6696 18.2524 14.6885 16.39 16.7262C14.5275 18.7639 13.5854 21.4808 13.5854 24.877C13.5854 28.2732 14.5604 31.3298 16.5214 33.3675C18.4824 35.4052 21.1775 36.424 24.6175 36.424C28.0575 36.424 28.9558 35.8215 30.5882 34.6273C32.2096 33.4332 33.4037 31.7132 34.1487 29.4673H21.9882V22.4121H42.8363V31.3188C42.1242 33.7071 40.9191 35.931 39.221 37.9906C37.523 40.0503 35.3647 41.7045 32.7464 42.9754C30.128 44.2462 27.181 44.8816 23.8944 44.8816C20.6078 44.8816 16.5433 44.0271 13.4977 42.329C10.4521 40.6309 8.08575 38.2645 6.37671 35.2408C4.67862 32.2171 3.8241 28.7552 3.8241 24.877C3.8241 20.9988 4.66766 17.5259 6.37671 14.4803C8.0748 11.4347 10.4412 9.06836 13.4649 7.35931C16.4995 5.67218 19.9614 4.82861 23.8506 4.82861C27.7398 4.82861 32.5273 5.96798 35.7591 8.2467C38.991 10.5254 41.1273 13.6806 42.179 17.7231H31.5851L31.5742 17.7122Z" fill="#727597"/>
<path d="M31.6618 17.7895C30.9497 16.4859 29.9309 15.478 28.6053 14.7878C27.2797 14.0976 25.724 13.747 23.9273 13.747C20.8269 13.747 18.3401 14.7659 16.4776 16.8036C14.6152 18.8413 13.673 21.5582 13.673 24.9544C13.673 28.3506 14.6481 31.4071 16.6091 33.4448C18.5701 35.4825 21.2652 36.5014 24.7052 36.5014C28.1451 36.5014 29.0435 35.8989 30.6758 34.7047C32.2973 33.5106 33.4914 31.7906 34.2364 29.5447H22.0758V22.4894H42.924V31.3962C42.2119 33.7845 41.0068 36.0084 39.3087 38.068C37.6106 40.1276 35.4524 41.7819 32.8341 43.0527C30.2157 44.3236 27.2687 44.959 23.9821 44.959C20.6955 44.959 16.631 44.1045 13.5854 42.4064C10.5398 40.7083 8.17343 38.3419 6.46439 35.3182C4.75534 32.2945 3.92273 28.8436 3.92273 24.9544C3.92273 21.0652 4.7663 17.6033 6.47534 14.5577C8.17343 11.5121 10.5398 9.14572 13.5635 7.43668C16.5872 5.74954 20.0381 4.89502 23.9273 4.89502C27.8165 4.89502 32.604 6.03438 35.8358 8.31311C39.0677 10.5918 41.204 13.747 42.2557 17.7895H31.6618Z" fill="#727597"/>
<path d="M31.7386 17.8654C31.0265 16.5617 30.0076 15.5538 28.682 14.8637C27.3564 14.1735 25.8008 13.8229 24.0041 13.8229C20.9037 13.8229 18.4168 14.8417 16.5544 16.8795C14.692 18.9172 13.7498 21.6341 13.7498 25.0303C13.7498 28.4265 14.7248 31.483 16.6859 33.5207C18.6469 35.5584 21.3419 36.5773 24.7819 36.5773C28.2219 36.5773 29.1202 35.9747 30.7526 34.7806C32.374 33.5865 33.5681 31.8665 34.3131 29.6206H22.1526V22.5653H43.0008V31.4721C42.2887 33.8603 41.0836 36.0843 39.3855 38.1439C37.6874 40.2035 35.5292 41.8578 32.9108 43.1286C30.2925 44.3995 27.3455 45.0349 24.0588 45.0349C20.7722 45.0349 16.7078 44.1803 13.6622 42.4823C10.6166 40.7842 8.25018 38.4178 6.54114 35.3941C4.84305 32.3704 3.98853 28.9085 3.98853 25.0303C3.98853 21.1521 4.83209 17.6792 6.54114 14.6336C8.23923 11.588 10.6056 9.22162 13.6293 7.51257C16.653 5.81448 20.1039 4.95996 23.9931 4.95996C27.8823 4.95996 32.6698 6.09932 35.9017 8.37805C39.1335 10.6568 41.2698 13.8119 42.3215 17.8545H31.7276L31.7386 17.8654Z" fill="#727597"/>
<path d="M31.826 17.9309C31.1139 16.6272 30.095 15.6193 28.7694 14.9291C27.4438 14.2389 25.8882 13.8883 24.0915 13.8883C20.9911 13.8883 18.5042 14.9072 16.6418 16.9449C14.7794 18.9826 13.8372 21.6995 13.8372 25.0957C13.8372 28.4919 14.8122 31.5485 16.7733 33.5862C18.7343 35.6239 21.4293 36.6427 24.8693 36.6427C28.3093 36.6427 29.2076 36.0402 30.84 34.846C32.4614 33.6519 33.6555 31.9319 34.4005 29.686H22.24V22.6307H43.0882V31.5375C42.3761 33.9258 41.171 36.1497 39.4729 38.2093C37.7748 40.269 35.6166 41.9232 32.9982 43.1941C30.3799 44.4649 27.4329 45.1003 24.1462 45.1003C20.8596 45.1003 16.7952 44.2458 13.7496 42.5477C10.704 40.8496 8.33758 38.4832 6.62854 35.4595C4.93045 32.4358 4.07593 28.9739 4.07593 25.0957C4.07593 21.2175 4.91949 17.7446 6.62854 14.699C8.32663 11.6534 10.693 9.28705 13.7167 7.578C16.7404 5.87991 20.1913 5.02539 24.0805 5.02539C27.9697 5.02539 32.7572 6.16475 35.989 8.44348C39.2209 10.7222 41.3572 13.8774 42.4089 17.9199H31.815L31.826 17.9309Z" fill="#727597"/>
<path d="M31.9028 18.0085C31.1907 16.7048 30.1719 15.6969 28.8462 15.0067C27.5206 14.3165 25.965 13.966 24.1683 13.966C21.0679 13.966 18.581 14.9848 16.7186 17.0225C14.8562 19.0602 13.914 21.7772 13.914 25.1733C13.914 28.5695 14.889 31.6261 16.8501 33.6638C18.8111 35.7015 21.5061 36.7204 24.9461 36.7204C28.3861 36.7204 29.2845 36.1178 30.9168 34.9237C32.5382 33.7295 33.7324 32.0095 34.4773 29.7637H22.3168V22.7084H43.165V31.6151C42.4529 34.0034 41.2478 36.2274 39.5497 38.287C37.8516 40.3466 35.6934 42.0009 33.075 43.2717C30.4567 44.5425 27.5097 45.1779 24.2231 45.1779C20.9364 45.1779 16.872 44.3234 13.8264 42.6253C10.7808 40.9272 8.4144 38.5609 6.70535 35.5372C4.99631 32.5135 4.1637 29.0625 4.1637 25.1733C4.1637 21.2842 5.00726 17.8223 6.71631 14.7767C8.4144 11.7311 10.7808 9.36468 13.8045 7.65564C16.8282 5.95755 20.2791 5.10303 24.1683 5.10303C28.0575 5.10303 32.845 6.24239 36.0768 8.52112C39.3087 10.7998 41.445 13.955 42.4967 17.9976H31.9028V18.0085Z" fill="#727597"/>
<path d="M31.9794 18.0852C31.2673 16.7815 30.2485 15.7736 28.9229 15.0834C27.5973 14.3932 26.0416 14.0426 24.2449 14.0426C21.1445 14.0426 18.6577 15.0615 16.7952 17.0992C14.9328 19.1369 13.9906 21.8538 13.9906 25.25C13.9906 28.6462 14.9657 31.7027 16.9267 33.7405C18.8877 35.7782 21.5827 36.797 25.0227 36.797C28.4627 36.797 29.3611 36.1945 30.9934 35.0003C32.6149 33.8062 33.809 32.0862 34.554 29.8403H22.3934V22.785H43.2416V31.6918C42.5295 34.0801 41.3244 36.304 39.6263 38.3636C37.9282 40.4233 35.77 42.0775 33.1517 43.3484C30.5333 44.6192 27.5863 45.2546 24.2997 45.2546C21.0131 45.2546 16.9486 44.4001 13.903 42.702C10.8574 41.0039 8.49103 38.6375 6.78198 35.6138C5.08389 32.5901 4.22937 29.1282 4.22937 25.25C4.22937 21.3718 5.07294 17.8989 6.78198 14.8533C8.48007 11.8077 10.8464 9.44134 13.8701 7.7323C16.8938 6.03421 20.3448 5.17969 24.234 5.17969C28.1231 5.17969 32.9106 6.31905 36.1425 8.59778C39.3743 10.8765 41.5106 14.0317 42.5624 18.0742H31.9685L31.9794 18.0852Z" fill="#727597"/>
<path d="M32.0672 18.1506C31.3551 16.8469 30.3362 15.839 29.0106 15.1488C27.685 14.4586 26.1294 14.108 24.3327 14.108C21.2323 14.108 18.7454 15.1269 16.883 17.1646C15.0206 19.2023 14.0784 21.9193 14.0784 25.3154C14.0784 28.7116 15.0534 31.7682 17.0145 33.8059C18.9755 35.8436 21.6705 36.8624 25.1105 36.8624C28.5505 36.8624 29.4489 36.2599 31.0812 35.0658C32.7026 33.8716 33.8968 32.1516 34.6417 29.9058H22.4812V22.8505H43.3294V31.7572C42.6173 34.1455 41.4122 36.3695 39.7141 38.4291C38.016 40.4887 35.8578 42.143 33.2394 43.4138C30.6211 44.6846 27.6741 45.32 24.3875 45.32C21.1008 45.32 17.0364 44.4655 13.9908 42.7674C10.9452 41.0693 8.57879 38.703 6.86975 35.6793C5.17166 32.6556 4.31714 29.1937 4.31714 25.3154C4.31714 21.4372 5.16071 17.9644 6.86975 14.9187C8.56784 11.8731 10.9342 9.50677 13.9579 7.79773C16.9816 6.09964 20.4326 5.24512 24.3217 5.24512C28.2109 5.24512 32.9984 6.38448 36.2303 8.66321C39.4621 10.9419 41.5984 14.0971 42.6501 18.1396H32.0562L32.0672 18.1506Z" fill="#727597"/>
<path d="M32.1439 18.2277C31.4318 16.9241 30.4129 15.9162 29.0873 15.226C27.7617 14.5358 26.206 14.1852 24.4093 14.1852C21.309 14.1852 18.8221 15.2041 16.9597 17.2418C15.0972 19.2795 14.1551 21.9964 14.1551 25.3926C14.1551 28.7888 15.1301 31.8453 17.0911 33.883C19.0521 35.9207 21.7472 36.9396 25.1872 36.9396C28.6272 36.9396 29.5255 36.337 31.1579 35.1429C32.7793 33.9488 33.9734 32.2288 34.7184 29.9829H22.5579V22.9276H43.406V31.8344C42.6939 34.2227 41.4888 36.4466 39.7907 38.5062C38.0927 40.5658 35.9344 42.2201 33.3161 43.4909C30.6978 44.7618 27.7507 45.3972 24.4641 45.3972C21.1775 45.3972 17.113 44.5427 14.0674 42.8446C11.0218 41.1465 8.65546 38.7801 6.94641 35.7564C5.24832 32.7327 4.3938 29.2708 4.3938 25.3926C4.3938 21.5144 5.23737 18.0415 6.94641 14.9959C8.6445 11.9503 11.0109 9.58392 14.0346 7.87488C17.0583 6.17679 20.5092 5.32227 24.3984 5.32227C28.2876 5.32227 33.0751 6.46163 36.3069 8.74036C39.5388 11.0191 41.6751 14.1742 42.7268 18.2168H32.1329L32.1439 18.2277Z" fill="#727597"/>
<path d="M32.2205 18.3044C31.5084 17.0007 30.4896 15.9928 29.164 15.3026C27.8384 14.6124 26.2827 14.2619 24.486 14.2619C21.3856 14.2619 18.8987 15.2807 17.0363 17.3184C15.1739 19.3561 14.2317 22.0731 14.2317 25.4692C14.2317 28.8654 15.2068 31.922 17.1678 33.9597C19.1288 35.9974 21.8238 37.0163 25.2638 37.0163C28.7038 37.0163 29.6022 36.4137 31.2345 35.2196C32.8559 34.0254 34.0501 32.3054 34.795 30.0596H22.6345V23.0043H43.4827V31.911C42.7706 34.2993 41.5655 36.5233 39.8674 38.5829C38.1693 40.6425 36.0111 42.2968 33.3928 43.5676C30.7744 44.8384 27.8274 45.4738 24.5408 45.4738C21.2542 45.4738 17.1897 44.6193 14.1441 42.9212C11.0985 41.2231 8.73212 38.8568 7.02307 35.8331C5.31403 32.8094 4.47046 29.3475 4.47046 25.4692C4.47046 21.591 5.31403 18.1182 7.02307 15.0726C8.72116 12.027 11.0875 9.66058 14.1112 7.95154C17.1349 6.25345 20.5859 5.39893 24.475 5.39893C28.3642 5.39893 33.1517 6.53829 36.3836 8.81702C39.6154 11.0957 41.7517 14.2509 42.8035 18.2934H32.2096L32.2205 18.3044Z" fill="#727597"/>
<path d="M32.3082 18.3703C31.5961 17.0666 30.5772 16.0587 29.2516 15.3685C27.926 14.6783 26.3703 14.3278 24.5736 14.3278C21.4733 14.3278 18.9864 15.3466 17.124 17.3843C15.2615 19.422 14.3194 22.139 14.3194 25.5352C14.3194 28.9313 15.2944 31.9879 17.2554 34.0256C19.2165 36.0633 21.9115 37.0822 25.3515 37.0822C28.7915 37.0822 29.6898 36.4796 31.3222 35.2855C32.9436 34.0913 34.1377 32.3713 34.8827 30.1255H22.7222V23.0702H43.5703V31.977C42.8582 34.3652 41.6531 36.5892 39.9551 38.6488C38.257 40.7084 36.0987 42.3627 33.4804 43.6335C30.8621 44.9043 27.9151 45.5398 24.6284 45.5398C21.3418 45.5398 17.2773 44.6852 14.2317 42.9871C11.1861 41.2891 8.81976 38.9227 7.11072 35.899C5.41263 32.8753 4.55811 29.4134 4.55811 25.5352C4.55811 21.6569 5.40167 18.1841 7.11072 15.1385C8.80881 12.0929 11.1752 9.7265 14.1989 8.01746C17.2226 6.31937 20.6735 5.46484 24.5627 5.46484C28.4519 5.46484 33.2394 6.60421 36.4712 8.88293C39.7031 11.1617 41.8394 14.3168 42.8911 18.3594H32.2972L32.3082 18.3703Z" fill="#727597"/>
<path d="M32.3848 18.446C31.6727 17.1423 30.6539 16.1344 29.3283 15.4442C28.0027 14.754 26.447 14.4035 24.6503 14.4035C21.5499 14.4035 19.063 15.4223 17.2006 17.46C15.3382 19.4977 14.396 22.2147 14.396 25.6108C14.396 29.007 15.3711 32.0636 17.3321 34.1013C19.2931 36.139 21.9881 37.1579 25.4281 37.1579C28.8681 37.1579 29.7665 36.5553 31.3988 35.3612C33.0202 34.167 34.2144 32.447 34.9594 30.2012H22.7988V23.1459H43.647V32.0526C42.9349 34.4409 41.7298 36.6649 40.0317 38.7245C38.3336 40.7841 36.1754 42.4384 33.5571 43.7092C30.9387 44.98 27.9917 45.6154 24.7051 45.6154C21.4185 45.6154 17.354 44.7609 14.3084 43.0628C11.2628 41.3647 8.89642 38.9984 7.18738 35.9747C5.48929 32.951 4.63477 29.4891 4.63477 25.6108C4.63477 21.7326 5.47833 18.2598 7.18738 15.2142C8.88547 12.1686 11.2518 9.80218 14.2755 8.09314C17.2992 6.39505 20.7502 5.54053 24.6394 5.54053C28.5285 5.54053 33.316 6.67989 36.5479 8.95862C39.7797 11.2373 41.916 14.3925 42.9678 18.4351H32.3739L32.3848 18.446Z" fill="#727597"/>
<path d="M32.4725 18.5232C31.7604 17.2195 30.7415 16.2116 29.4159 15.5214C28.0903 14.8312 26.5346 14.4806 24.738 14.4806C21.6376 14.4806 19.1507 15.4995 17.2883 17.5372C15.4259 19.5749 14.4837 22.2918 14.4837 25.688C14.4837 29.0842 15.4587 32.1407 17.4197 34.1784C19.3808 36.2162 22.0758 37.235 25.5158 37.235C28.9558 37.235 29.8541 36.6325 31.4865 35.4383C33.1079 34.2442 34.302 32.5242 35.047 30.2783H22.8865V23.223H43.7346V32.1298C43.0225 34.5181 41.8174 36.742 40.1194 38.8016C38.4213 40.8612 36.2631 42.5155 33.6447 43.7863C31.0264 45.0572 28.0794 45.6926 24.7927 45.6926C21.5061 45.6926 17.4416 44.8381 14.396 43.14C11.3504 41.4419 8.98407 39.0755 7.27502 36.0518C5.56598 33.0281 4.72241 29.5662 4.72241 25.688C4.72241 21.8098 5.56598 18.3369 7.27502 15.2913C8.97311 12.2457 11.3395 9.87933 14.3632 8.17029C17.3869 6.4722 20.8378 5.61768 24.727 5.61768C28.6162 5.61768 33.4037 6.75704 36.6355 9.03577C39.8674 11.3145 42.0037 14.4697 43.0554 18.5122H32.4615L32.4725 18.5232Z" fill="#727597"/>
<path d="M32.5493 18.5886C31.8372 17.2849 30.8183 16.277 29.4927 15.5868C28.1671 14.8966 26.6114 14.546 24.8147 14.546C21.7144 14.546 19.2275 15.5649 17.3651 17.6026C15.5026 19.6403 14.5605 22.3572 14.5605 25.7534C14.5605 29.1496 15.5355 32.2062 17.4965 34.2439C19.4575 36.2816 22.1526 37.3004 25.5926 37.3004C29.0326 37.3004 29.9309 36.6979 31.5633 35.5037C33.1847 34.3096 34.3788 32.5896 35.1238 30.3437H22.9633V23.2885H43.8114V32.1952C43.0993 34.5835 41.8942 36.8074 40.1961 38.8671C38.498 40.9267 36.3398 42.5809 33.7215 43.8518C31.1031 45.1226 28.1561 45.758 24.8695 45.758C21.5829 45.758 17.5184 44.9035 14.4728 43.2054C11.4272 41.5073 9.06085 39.1409 7.35181 36.1173C5.64276 33.0936 4.79919 29.6316 4.79919 25.7534C4.79919 21.8752 5.64276 18.4023 7.35181 15.3567C9.0499 12.3111 11.4163 9.94476 14.44 8.23572C17.4637 6.53763 20.9146 5.68311 24.8038 5.68311C28.693 5.68311 33.4805 6.82247 36.7123 9.1012C39.9442 11.3799 42.0805 14.5351 43.1322 18.5776H32.5383L32.5493 18.5886Z" fill="#727597"/>
<path d="M32.6259 18.6652C31.9138 17.3616 30.895 16.3537 29.5694 15.6635C28.2438 14.9733 26.6881 14.6227 24.8914 14.6227C21.791 14.6227 19.3041 15.6416 17.4417 17.6793C15.5793 19.717 14.6371 22.4339 14.6371 25.8301C14.6371 29.2263 15.6122 32.2828 17.5732 34.3205C19.5342 36.3582 22.2292 37.3771 25.6692 37.3771C29.1092 37.3771 30.0076 36.7745 31.6399 35.5804C33.2613 34.3863 34.4555 32.6663 35.2004 30.4204H23.0399V23.3651H43.8881V32.2719C43.176 34.6602 41.9709 36.8841 40.2728 38.9437C38.5747 41.0033 36.4165 42.6576 33.7981 43.9284C31.1798 45.1993 28.2328 45.8347 24.9462 45.8347C21.6596 45.8347 17.5951 44.9802 14.5495 43.2821C11.5039 41.584 9.13751 39.2176 7.42847 36.1939C5.73038 33.1702 4.87585 29.7083 4.87585 25.8301C4.87585 21.9519 5.71942 18.479 7.42847 15.4334C9.12656 12.3878 11.4929 10.0214 14.5166 8.31238C17.5403 6.61429 20.9913 5.75977 24.8804 5.75977C28.7696 5.75977 33.5571 6.89913 36.789 9.17786C40.0208 11.4566 42.1571 14.6117 43.2089 18.6543H32.615L32.6259 18.6652Z" fill="#727597"/>
<path d="M32.7134 18.7424C32.0013 17.4387 30.9825 16.4308 29.6569 15.7406C28.3313 15.0504 26.7756 14.6998 24.9789 14.6998C21.8785 14.6998 19.3917 15.7187 17.5292 17.7564C15.6668 19.7941 14.7247 22.5111 14.7247 25.9072C14.7247 29.3034 15.6997 32.36 17.6607 34.3977C19.6217 36.4354 22.3168 37.4542 25.7568 37.4542C29.1968 37.4542 30.0951 36.8517 31.7275 35.6576C33.3489 34.4634 34.543 32.7434 35.288 30.4976H23.1275V23.4423H43.9756V32.349C43.2635 34.7373 42.0584 36.9613 40.3603 39.0209C38.6622 41.0805 36.504 42.7348 33.8857 44.0056C31.2673 45.2764 28.3203 45.9118 25.0337 45.9118C21.7471 45.9118 17.6826 45.0573 14.637 43.3592C11.5914 41.6611 9.22504 39.2948 7.51599 36.2711C5.80695 33.2474 4.96338 29.7855 4.96338 25.9072C4.96338 22.029 5.80695 18.5562 7.51599 15.5105C9.21408 12.4649 11.5804 10.0986 14.6041 8.38953C17.6278 6.69144 21.0788 5.83691 24.968 5.83691C28.8571 5.83691 33.6447 6.97628 36.8765 9.255C40.1083 11.5337 42.2447 14.6889 43.2964 18.7314H32.7025L32.7134 18.7424Z" fill="#727597"/>
<path d="M32.7902 18.8083C32.0781 17.5046 31.0593 16.4967 29.7337 15.8065C28.4081 15.1163 26.8524 14.7658 25.0557 14.7658C21.9553 14.7658 19.4684 15.7846 17.606 17.8223C15.7436 19.86 14.8014 22.577 14.8014 25.9732C14.8014 29.3693 15.7765 32.4259 17.7375 34.4636C19.6985 36.5013 22.3935 37.5202 25.8335 37.5202C29.2735 37.5202 30.1719 36.9176 31.8042 35.7235C33.4256 34.5293 34.6198 32.8093 35.3648 30.5635H23.2042V23.5082H44.0524V32.4149C43.3403 34.8032 42.1352 37.0272 40.4371 39.0868C38.739 41.1464 36.5808 42.8007 33.9625 44.0715C31.3441 45.3423 28.3971 45.9777 25.1105 45.9777C21.8239 45.9777 17.7594 45.1232 14.7138 43.4251C11.6682 41.727 9.30182 39.3607 7.59277 36.337C5.88373 33.3133 5.04016 29.8514 5.04016 25.9732C5.04016 22.0949 5.88373 18.6221 7.59277 15.5765C9.29086 12.5309 11.6572 10.1645 14.6809 8.45544C17.7046 6.75735 21.1556 5.90283 25.0448 5.90283C28.9339 5.90283 33.7214 7.0422 36.9533 9.32092C40.1851 11.5996 42.3214 14.7548 43.3732 18.7974H32.7793L32.7902 18.8083Z" fill="#727597"/>
<path d="M32.8669 18.8855C32.1548 17.5818 31.1359 16.5739 29.8103 15.8837C28.4847 15.1935 26.9291 14.8429 25.1324 14.8429C22.032 14.8429 19.5451 15.8618 17.6827 17.8995C15.8203 19.9372 14.8781 22.6541 14.8781 26.0503C14.8781 29.4465 15.8531 32.503 17.8141 34.5407C19.7752 36.5785 22.4702 37.5973 25.9102 37.5973C29.3502 37.5973 30.2485 36.9948 31.8809 35.8006C33.5023 34.6065 34.6964 32.8865 35.4414 30.6406H23.2809V23.5853H44.1291V32.4921C43.417 34.8804 42.2119 37.1043 40.5138 39.1639C38.8157 41.2236 36.6575 42.8778 34.0391 44.1487C31.4208 45.4195 28.4738 46.0549 25.1871 46.0549C21.9005 46.0549 17.8361 45.2004 14.7905 43.5023C11.7448 41.8042 9.37848 39.4378 7.66943 36.4141C5.96039 33.3904 5.11682 29.9285 5.11682 26.0503C5.11682 22.1721 5.96039 18.6992 7.66943 15.6536C9.36752 12.608 11.7339 10.2416 14.7576 8.53259C17.7813 6.8345 21.2322 5.97998 25.1214 5.97998C29.0106 5.97998 33.7981 7.11934 37.0299 9.39807C40.2618 11.6768 42.3981 14.832 43.4498 18.8745H32.8559L32.8669 18.8855Z" fill="#727597"/>
<path d="M32.9545 18.9621C32.2424 17.6584 31.2236 16.6505 29.898 15.9603C28.5724 15.2701 27.0167 14.9196 25.22 14.9196C22.1196 14.9196 19.6327 15.9384 17.7703 17.9761C15.9079 20.0138 14.9657 22.7308 14.9657 26.127C14.9657 29.5231 15.9408 32.5797 17.9018 34.6174C19.8628 36.6551 22.5578 37.674 25.9978 37.674C29.4378 37.674 30.3362 37.0714 31.9685 35.8773C33.59 34.6831 34.7841 32.9631 35.5291 30.7173H23.3685V23.662H44.2167V32.5687C43.5046 34.957 42.2995 37.181 40.6014 39.2406C38.9033 41.3002 36.7451 42.9545 34.1268 44.2253C31.5084 45.4961 28.5614 46.1316 25.2748 46.1316C21.9882 46.1316 17.9237 45.277 14.8781 43.5789C11.8325 41.8809 9.46612 39.5145 7.75708 36.4908C6.04803 33.4671 5.20447 30.0052 5.20447 26.127C5.20447 22.2487 6.04803 18.7759 7.75708 15.7303C9.45517 12.6847 11.8215 10.3183 14.8452 8.60925C17.8689 6.91116 21.3199 6.05664 25.2091 6.05664C29.0982 6.05664 33.8857 7.196 37.1176 9.47473C40.3494 11.7535 42.4857 14.9086 43.5375 18.9512H32.9436L32.9545 18.9621Z" fill="#727597"/>
<path d="M33.0312 19.0261C32.3191 17.7224 31.3002 16.7145 29.9746 16.0243C28.649 15.3341 27.0934 14.9835 25.2967 14.9835C22.1963 14.9835 19.7094 16.0024 17.847 18.0401C15.9846 20.0778 15.0424 22.7947 15.0424 26.1909C15.0424 29.5871 16.0174 32.6437 17.9785 34.6814C19.9395 36.7191 22.6345 37.7379 26.0745 37.7379C29.5145 37.7379 30.4128 37.1354 32.0452 35.9412C33.6666 34.7471 34.8607 33.0271 35.6057 30.7812H23.4452V23.726H44.2934V32.6327C43.5813 35.021 42.3762 37.2449 40.6781 39.3046C38.98 41.3642 36.8218 43.0184 34.2034 44.2893C31.5851 45.5601 28.6381 46.1955 25.3514 46.1955C22.0648 46.1955 18.0004 45.341 14.9548 43.6429C11.9092 41.9448 9.54278 39.5784 7.83374 36.5548C6.12469 33.5311 5.28113 30.0691 5.28113 26.1909C5.28113 22.3127 6.12469 18.8398 7.83374 15.7942C9.53183 12.7486 11.8982 10.3823 14.9219 8.67322C17.9456 6.97513 21.3965 6.12061 25.2857 6.12061C29.1749 6.12061 33.9624 7.25997 37.1943 9.5387C40.4261 11.8174 42.5624 14.9726 43.6141 19.0151H33.0202L33.0312 19.0261Z" fill="#727597"/>
<path d="M33.1188 19.1032C32.4067 17.7995 31.3879 16.7916 30.0623 16.1015C28.7367 15.4113 27.181 15.0607 25.3843 15.0607C22.2839 15.0607 19.7971 16.0795 17.9346 18.1172C16.0722 20.155 15.13 22.8719 15.13 26.2681C15.13 29.6643 16.1051 32.7208 18.0661 34.7585C20.0271 36.7962 22.7222 37.8151 26.1622 37.8151C29.6022 37.8151 30.5005 37.2125 32.1329 36.0184C33.7543 34.8243 34.9484 33.1043 35.6934 30.8584H23.5329V23.8031H44.381V32.7099C43.6689 35.0981 42.4638 37.3221 40.7657 39.3817C39.0676 41.4413 36.9094 43.0956 34.2911 44.3664C31.6727 45.6373 28.7257 46.2727 25.4391 46.2727C22.1525 46.2727 18.088 45.4181 15.0424 43.7201C11.9968 42.022 9.63043 39.6556 7.92139 36.6319C6.2233 33.6082 5.36877 30.1463 5.36877 26.2681C5.36877 22.3899 6.21234 18.917 7.92139 15.8714C9.61948 12.8258 11.9858 10.4594 15.0095 8.75037C18.0332 7.05228 21.4842 6.19775 25.3734 6.19775C29.2625 6.19775 34.0501 7.33712 37.2819 9.61584C40.5137 11.8946 42.6501 15.0497 43.7018 19.0923H33.1079L33.1188 19.1032Z" fill="#727597"/>
<path d="M33.1955 19.1809C32.4834 17.8772 31.4645 16.8693 30.1389 16.1791C28.8133 15.4889 27.2577 15.1383 25.461 15.1383C22.3606 15.1383 19.8737 16.1572 18.0113 18.1949C16.1489 20.2326 15.2067 22.9495 15.2067 26.3457C15.2067 29.7419 16.1817 32.7985 18.1428 34.8362C20.1038 36.8739 22.7988 37.8927 26.2388 37.8927C29.6788 37.8927 30.5772 37.2902 32.2095 36.096C33.8309 34.9019 35.0251 33.1819 35.77 30.936H23.6095V23.8807H44.4577V32.7875C43.7456 35.1758 42.5405 37.3997 40.8424 39.4593C39.1443 41.519 36.9861 43.1732 34.3677 44.4441C31.7494 45.7149 28.8024 46.3503 25.5158 46.3503C22.2291 46.3503 18.1647 45.4958 15.1191 43.7977C12.0735 42.0996 9.70709 39.7332 7.99805 36.7095C6.289 33.6858 5.44543 30.2239 5.44543 26.3457C5.44543 22.4675 6.289 18.9946 7.99805 15.949C9.69614 12.9034 12.0625 10.537 15.0862 8.828C18.1099 7.12991 21.5608 6.27539 25.45 6.27539C29.3392 6.27539 34.1267 7.41475 37.3586 9.69348C40.5904 11.9722 42.7267 15.1274 43.7784 19.1699H33.1845L33.1955 19.1809Z" fill="#727597"/>
<path d="M33.2723 19.2463C32.5602 17.9426 31.5413 16.9347 30.2157 16.2445C28.8901 15.5543 27.3344 15.2038 25.5378 15.2038C22.4374 15.2038 19.9505 16.2226 18.0881 18.2603C16.2257 20.298 15.2835 23.015 15.2835 26.4111C15.2835 29.8073 16.2585 32.8639 18.2195 34.9016C20.1806 36.9393 22.8756 37.9582 26.3156 37.9582C29.7556 37.9582 30.6539 37.3556 32.2863 36.1615C33.9077 34.9673 35.1018 33.2473 35.8468 31.0015H23.6863V23.9462H44.5345V32.8529C43.8223 35.2412 42.6173 37.4652 40.9192 39.5248C39.2211 41.5844 37.0629 43.2387 34.4445 44.5095C31.8262 45.7803 28.8792 46.4157 25.5925 46.4157C22.3059 46.4157 18.2415 45.5612 15.1958 43.8631C12.1502 42.165 9.78387 39.7987 8.07483 36.775C6.36578 33.7513 5.52222 30.2894 5.52222 26.4111C5.52222 22.5329 6.36578 19.0601 8.07483 16.0145C9.77292 12.9688 12.1393 10.6025 15.163 8.89343C18.1867 7.19534 21.6376 6.34082 25.5268 6.34082C29.416 6.34082 34.2035 7.48018 37.4353 9.75891C40.6672 12.0376 42.8035 15.1928 43.8552 19.2353H33.2613L33.2723 19.2463Z" fill="#727597"/>
<path d="M33.3599 19.3225C32.6478 18.0188 31.629 17.0109 30.3034 16.3207C28.9778 15.6305 27.4221 15.2799 25.6254 15.2799C22.525 15.2799 20.0381 16.2988 18.1757 18.3365C16.3133 20.3742 15.3711 23.0911 15.3711 26.4873C15.3711 29.8835 16.3462 32.9401 18.3072 34.9778C20.2682 37.0155 22.9632 38.0343 26.4032 38.0343C29.8432 38.0343 30.7416 37.4318 32.3739 36.2376C33.9953 35.0435 35.1895 33.3235 35.9345 31.0776H23.7739V24.0223H44.6221V32.9291C43.91 35.3174 42.7049 37.5413 41.0068 39.6009C39.3087 41.6606 37.1505 43.3148 34.5322 44.5857C31.9138 45.8565 28.9668 46.4919 25.6802 46.4919C22.3936 46.4919 18.3291 45.6374 15.2835 43.9393C12.2379 42.2412 9.87152 39.8748 8.16248 36.8511C6.45343 33.8274 5.60986 30.3655 5.60986 26.4873C5.60986 22.6091 6.45343 19.1362 8.16248 16.0906C9.86056 13.045 12.2269 10.6786 15.2506 8.9696C18.2743 7.27151 21.7253 6.41699 25.6145 6.41699C29.5036 6.41699 34.2911 7.55636 37.523 9.83508C40.7548 12.1138 42.8911 15.269 43.9429 19.3115H33.349L33.3599 19.3225Z" fill="#727597"/>
<path d="M33.4366 19.4001C32.7245 18.0964 31.7056 17.0885 30.38 16.3983C29.0544 15.7081 27.4988 15.3576 25.7021 15.3576C22.6017 15.3576 20.1148 16.3764 18.2524 18.4141C16.39 20.4518 15.4478 23.1688 15.4478 26.565C15.4478 29.9611 16.4228 33.0177 18.3838 35.0554C20.3449 37.0931 23.0399 38.112 26.4799 38.112C29.9199 38.112 30.8182 37.5094 32.4506 36.3153C34.072 35.1211 35.2661 33.4011 36.0111 31.1553H23.8506V24.1H44.6988V33.0067C43.9867 35.395 42.7816 37.619 41.0835 39.6786C39.3854 41.7382 37.2272 43.3925 34.6088 44.6633C31.9905 45.9341 29.0435 46.5695 25.7568 46.5695C22.4702 46.5695 18.4058 45.715 15.3602 44.0169C12.3145 42.3188 9.94818 39.9525 8.23914 36.9288C6.53009 33.9051 5.68652 30.4432 5.68652 26.565C5.68652 22.6867 6.53009 19.2139 8.23914 16.1683C9.93722 13.1227 12.3036 10.7563 15.3273 9.04724C18.351 7.34915 21.8019 6.49463 25.6911 6.49463C29.5803 6.49463 34.3678 7.63399 37.5996 9.91272C40.8315 12.1914 42.9678 15.3466 44.0195 19.3892H33.4256L33.4366 19.4001Z" fill="#727597"/>
<path d="M33.5241 19.4651C32.812 18.1614 31.7932 17.1535 30.4676 16.4633C29.1419 15.7731 27.5863 15.4225 25.7896 15.4225C22.6892 15.4225 20.2023 16.4414 18.3399 18.4791C16.4775 20.5168 15.5353 23.2337 15.5353 26.6299C15.5353 30.0261 16.5104 33.0826 18.4714 35.1203C20.4324 37.1581 23.1274 38.1769 26.5674 38.1769C30.0074 38.1769 30.9058 37.5744 32.5381 36.3802C34.1595 35.1861 35.3537 33.4661 36.0986 31.2202H23.9381V24.1649H44.7863V33.0717C44.0742 35.46 42.8691 37.6839 41.171 39.7435C39.4729 41.8031 37.3147 43.4574 34.6963 44.7282C32.078 45.9991 29.131 46.6345 25.8444 46.6345C22.5577 46.6345 18.4933 45.78 15.4477 44.0819C12.4021 42.3838 10.0357 40.0174 8.32666 36.9937C6.61761 33.97 5.77405 30.5081 5.77405 26.6299C5.77405 22.7517 6.61761 19.2788 8.32666 16.2332C10.0247 13.1876 12.3911 10.8212 15.4148 9.11218C18.4385 7.41409 21.8895 6.55957 25.7786 6.55957C29.6678 6.55957 34.4553 7.69893 37.6872 9.97766C40.919 12.2564 43.0553 15.4115 44.107 19.4541H33.5132L33.5241 19.4651Z" fill="#727597"/>
<path d="M33.6009 19.5427C32.8888 18.239 31.8699 17.2311 30.5443 16.5409C29.2187 15.8507 27.6631 15.5001 25.8664 15.5001C22.766 15.5001 20.2791 16.519 18.4167 18.5567C16.5543 20.5944 15.6121 23.3113 15.6121 26.7075C15.6121 30.1037 16.5871 33.1603 18.5482 35.198C20.5092 37.2357 23.2042 38.2545 26.6442 38.2545C30.0842 38.2545 30.9826 37.652 32.6149 36.4578C34.2363 35.2637 35.4305 33.5437 36.1754 31.2978H24.0149V24.2426H44.8631V33.1493C44.151 35.5376 42.9459 37.7615 41.2478 39.8212C39.5497 41.8808 37.3915 43.535 34.7731 44.8059C32.1548 46.0767 29.2078 46.7121 25.9212 46.7121C22.6345 46.7121 18.5701 45.8576 15.5245 44.1595C12.4789 42.4614 10.1125 40.095 8.40344 37.0714C6.6944 34.0477 5.85083 30.5857 5.85083 26.7075C5.85083 22.8293 6.6944 19.3564 8.40344 16.3108C10.1015 13.2652 12.4679 10.8989 15.4916 9.18982C18.5153 7.49173 21.9662 6.63721 25.8554 6.63721C29.7446 6.63721 34.5321 7.77657 37.764 10.0553C40.9958 12.334 43.1321 15.4892 44.1838 19.5317H33.5899L33.6009 19.5427Z" fill="#727597"/>
<path d="M33.6776 19.6189C32.9655 18.3152 31.9466 17.3073 30.621 16.6171C29.2954 15.9269 27.7397 15.5763 25.943 15.5763C22.8427 15.5763 20.3558 16.5952 18.4934 18.6329C16.6309 20.6706 15.6888 23.3875 15.6888 26.7837C15.6888 30.1799 16.6638 33.2364 18.6248 35.2741C20.5858 37.3119 23.2809 38.3307 26.7209 38.3307C30.1609 38.3307 31.0592 37.7282 32.6916 36.534C34.313 35.3399 35.5071 33.6199 36.2521 31.374H24.0916V24.3187H44.9397V33.2255C44.2276 35.6138 43.0225 37.8377 41.3244 39.8973C39.6263 41.957 37.4681 43.6112 34.8498 44.882C32.2314 46.1529 29.2844 46.7883 25.9978 46.7883C22.7112 46.7883 18.6467 45.9338 15.6011 44.2357C12.5555 42.5376 10.1891 40.1712 8.4801 37.1475C6.78201 34.1238 5.92749 30.6619 5.92749 26.7837C5.92749 22.9055 6.77106 19.4326 8.4801 16.387C10.1782 13.3414 12.5446 10.975 15.5683 9.26599C18.5919 7.5679 22.0429 6.71338 25.9321 6.71338C29.8213 6.71338 34.6088 7.85274 37.8406 10.1315C41.0725 12.4102 43.2088 15.5654 44.2605 19.6079H33.6666L33.6776 19.6189Z" fill="#727597"/>
<path d="M33.7652 19.6853C33.0531 18.3816 32.0342 17.3737 30.7086 16.6835C29.383 15.9933 27.8274 15.6427 26.0307 15.6427C22.9303 15.6427 20.4434 16.6616 18.581 18.6993C16.7186 20.737 15.7764 23.4539 15.7764 26.8501C15.7764 30.2463 16.7514 33.3028 18.7125 35.3406C20.6735 37.3783 23.3685 38.3971 26.8085 38.3971C30.2485 38.3971 31.1469 37.7946 32.7792 36.6004C34.4006 35.4063 35.5948 33.6863 36.3397 31.4404H24.1792V24.3851H45.0274V33.2919C44.3153 35.6802 43.1102 37.9041 41.4121 39.9637C39.714 42.0234 37.5558 43.6776 34.9374 44.9485C32.3191 46.2193 29.3721 46.8547 26.0855 46.8547C22.7988 46.8547 18.7344 46.0002 15.6888 44.3021C12.6432 42.604 10.2768 40.2376 8.56775 37.2139C6.8587 34.1902 6.01514 30.7283 6.01514 26.8501C6.01514 22.9719 6.8587 19.499 8.56775 16.4534C10.2658 13.4078 12.6322 11.0414 15.6559 9.3324C18.6796 7.63431 22.1306 6.77979 26.0197 6.77979C29.9089 6.77979 34.6964 7.91915 37.9283 10.1979C41.1601 12.4766 43.2964 15.6318 44.3481 19.6743H33.7542L33.7652 19.6853Z" fill="#727597"/>
<path d="M33.8419 19.761C33.1298 18.4573 32.1109 17.4494 30.7853 16.7592C29.4597 16.069 27.904 15.7184 26.1073 15.7184C23.007 15.7184 20.5201 16.7373 18.6577 18.775C16.7952 20.8127 15.8531 23.5296 15.8531 26.9258C15.8531 30.322 16.8281 33.3785 18.7891 35.4162C20.7501 37.4539 23.4452 38.4728 26.8852 38.4728C30.3252 38.4728 31.2235 37.8703 32.8559 36.6761C34.4773 35.482 35.6714 33.762 36.4164 31.5161H24.2559V24.4608H45.104V33.3676C44.3919 35.7559 43.1868 37.9798 41.4887 40.0394C39.7907 42.099 37.6324 43.7533 35.0141 45.0241C32.3957 46.295 29.4487 46.9304 26.1621 46.9304C22.8755 46.9304 18.811 46.0759 15.7654 44.3778C12.7198 42.6797 10.3535 40.3133 8.64441 37.2896C6.93536 34.2659 6.0918 30.804 6.0918 26.9258C6.0918 23.0476 6.93536 19.5747 8.64441 16.5291C10.3425 13.4835 12.7089 11.1171 15.7326 9.40808C18.7563 7.70999 22.2072 6.85547 26.0964 6.85547C29.9856 6.85547 34.7731 7.99483 38.0049 10.2736C41.2368 12.5523 43.3731 15.7074 44.4248 19.75H33.8309L33.8419 19.761Z" fill="#727597"/>
<path d="M33.9186 19.8376C33.2065 18.5339 32.1877 17.526 30.8621 16.8358C29.5365 16.1456 27.9808 15.7951 26.1841 15.7951C23.0837 15.7951 20.5969 16.8139 18.7344 18.8516C16.872 20.8893 15.9299 23.6063 15.9299 27.0025C15.9299 30.3986 16.9049 33.4552 18.8659 35.4929C20.8269 37.5306 23.522 38.5495 26.962 38.5495C30.402 38.5495 31.3003 37.9469 32.9327 36.7528C34.5541 35.5586 35.7482 33.8386 36.4932 31.5928H24.3327V24.5375H45.1808V33.4442C44.4687 35.8325 43.2636 38.0565 41.5655 40.1161C39.8674 42.1757 37.7092 43.83 35.0909 45.1008C32.4725 46.3716 29.5255 47.007 26.2389 47.007C22.9523 47.007 18.8878 46.1525 15.8422 44.4544C12.7966 42.7563 10.4302 40.39 8.72119 37.3663C7.01215 34.3426 6.16858 30.8807 6.16858 27.0025C6.16858 23.1242 7.01215 19.6514 8.72119 16.6058C10.4193 13.5602 12.7856 11.1938 15.8093 9.48474C18.833 7.78665 22.284 6.93213 26.1732 6.93213C30.0623 6.93213 34.8499 8.07149 38.0817 10.3502C41.3135 12.6289 43.4499 15.7841 44.5016 19.8267H33.9077L33.9186 19.8376Z" fill="#727597"/>
<path d="M34.0063 19.9035C33.2942 18.5998 32.2753 17.5919 30.9497 16.9017C29.6241 16.2116 28.0685 15.861 26.2718 15.861C23.1714 15.861 20.6845 16.8798 18.8221 18.9175C16.9597 20.9552 16.0175 23.6722 16.0175 27.0684C16.0175 30.4645 16.9925 33.5211 18.9536 35.5588C20.9146 37.5965 23.6096 38.6154 27.0496 38.6154C30.4896 38.6154 31.3879 38.0128 33.0203 36.8187C34.6417 35.6246 35.8358 33.9046 36.5808 31.6587H24.4203V24.6034H45.2685V33.5102C44.5564 35.8984 43.3513 38.1224 41.6532 40.182C39.9551 42.2416 37.7969 43.8959 35.1785 45.1667C32.5602 46.4375 29.6132 47.073 26.3265 47.073C23.0399 47.073 18.9755 46.2184 15.9299 44.5203C12.8843 42.8223 10.5179 40.4559 8.80884 37.4322C7.09979 34.4085 6.25623 30.9466 6.25623 27.0684C6.25623 23.1902 7.09979 19.7173 8.80884 16.6717C10.5069 13.6261 12.8733 11.2597 15.897 9.55066C18.9207 7.85257 22.3716 6.99805 26.2608 6.99805C30.15 6.99805 34.9375 8.13741 38.1693 10.4161C41.4012 12.6949 43.5375 15.85 44.5892 19.8926H33.9953L34.0063 19.9035Z" fill="#727597"/>
<path d="M34.083 19.9802C33.3708 18.6765 32.352 17.6686 31.0264 16.9784C29.7008 16.2882 28.1451 15.9376 26.3484 15.9376C23.248 15.9376 20.7612 16.9565 18.8987 18.9942C17.0363 21.0319 16.0942 23.7488 16.0942 27.145C16.0942 30.5412 17.0692 33.5978 19.0302 35.6355C20.9912 37.6732 23.6863 38.692 27.1263 38.692C30.5663 38.692 31.4646 38.0895 33.097 36.8953C34.7184 35.7012 35.9125 33.9812 36.6575 31.7353H24.497V24.6801H45.3451V33.5868C44.633 35.9751 43.4279 38.199 41.7298 40.2587C40.0317 42.3183 37.8735 43.9725 35.2552 45.2434C32.6368 46.5142 29.6898 47.1496 26.4032 47.1496C23.1166 47.1496 19.0521 46.2951 16.0065 44.597C12.9609 42.8989 10.5945 40.5325 8.8855 37.5089C7.17645 34.4852 6.33289 31.0232 6.33289 27.145C6.33289 23.2668 7.17645 19.7939 8.8855 16.7483C10.5836 13.7027 12.95 11.3364 15.9737 9.62732C18.9973 7.92923 22.4483 7.07471 26.3375 7.07471C30.2266 7.07471 35.0142 8.21407 38.246 10.4928C41.4779 12.7715 43.6142 15.9267 44.6659 19.9692H34.072L34.083 19.9802Z" fill="#727597"/>
<path d="M34.1706 20.0568C33.4585 18.7532 32.4396 17.7453 31.114 17.0551C29.7884 16.3649 28.2328 16.0143 26.4361 16.0143C23.3357 16.0143 20.8488 17.0332 18.9864 19.0709C17.124 21.1086 16.1818 23.8255 16.1818 27.2217C16.1818 30.6179 17.1568 33.6744 19.1179 35.7121C21.0789 37.7498 23.7739 38.7687 27.2139 38.7687C30.6539 38.7687 31.5523 38.1662 33.1846 36.972C34.806 35.7779 36.0002 34.0579 36.7451 31.812H24.5846V24.7567H45.4328V33.6635C44.7207 36.0518 43.5156 38.2757 41.8175 40.3353C40.1194 42.3949 37.9612 44.0492 35.3428 45.32C32.7245 46.5909 29.7775 47.2263 26.4909 47.2263C23.2042 47.2263 19.1398 46.3718 16.0942 44.6737C13.0486 42.9756 10.6822 40.6092 8.97314 37.5855C7.2641 34.5618 6.42053 31.0999 6.42053 27.2217C6.42053 23.3435 7.2641 19.8706 8.97314 16.825C10.6712 13.7794 13.0376 11.413 16.0613 9.70398C19.085 8.00589 22.5359 7.15137 26.4251 7.15137C30.3143 7.15137 35.1018 8.29073 38.3337 10.5695C41.5655 12.8482 43.7018 16.0033 44.7535 20.0459H34.1596L34.1706 20.0568Z" fill="#727597"/>
<path d="M34.2473 20.1228C33.5352 18.8191 32.5163 17.8112 31.1907 17.121C29.8651 16.4308 28.3094 16.0802 26.5127 16.0802C23.4124 16.0802 20.9255 17.0991 19.0631 19.1368C17.2006 21.1745 16.2585 23.8914 16.2585 27.2876C16.2585 30.6838 17.2335 33.7403 19.1945 35.7781C21.1555 37.8158 23.8506 38.8346 27.2906 38.8346C30.7306 38.8346 31.6289 38.2321 33.2613 37.0379C34.8827 35.8438 36.0768 34.1238 36.8218 31.8779H24.6613V24.8226H45.5094V33.7294C44.7973 36.1177 43.5922 38.3416 41.8941 40.4012C40.196 42.4609 38.0378 44.1151 35.4195 45.386C32.8011 46.6568 29.8541 47.2922 26.5675 47.2922C23.2809 47.2922 19.2164 46.4377 16.1708 44.7396C13.1252 43.0415 10.7588 40.6751 9.0498 37.6514C7.34076 34.6277 6.49719 31.1658 6.49719 27.2876C6.49719 23.4094 7.34076 19.9365 9.0498 16.8909C10.7479 13.8453 13.1143 11.4789 16.138 9.7699C19.1617 8.07181 22.6126 7.21729 26.5018 7.21729C30.391 7.21729 35.1785 8.35665 38.4103 10.6354C41.6422 12.9141 43.7785 16.0693 44.8302 20.1118H34.2363L34.2473 20.1228Z" fill="#727597"/>
<path d="M34.3239 20.1994C33.6118 18.8957 32.593 17.8878 31.2674 17.1976C29.9418 16.5075 28.3861 16.1569 26.5894 16.1569C23.489 16.1569 21.0021 17.1757 19.1397 19.2134C17.2773 21.2511 16.3351 23.9681 16.3351 27.3643C16.3351 30.7604 17.3102 33.817 19.2712 35.8547C21.2322 37.8924 23.9272 38.9113 27.3672 38.9113C30.8072 38.9113 31.7056 38.3087 33.3379 37.1146C34.9593 35.9204 36.1535 34.2004 36.8984 31.9546H24.7379V24.8993H45.5861V33.8061C44.874 36.1943 43.6689 38.4183 41.9708 40.4779C40.2727 42.5375 38.1145 44.1918 35.4961 45.4626C32.8778 46.7334 29.9308 47.3689 26.6442 47.3689C23.3575 47.3689 19.2931 46.5143 16.2475 44.8162C13.2019 43.1182 10.8355 40.7518 9.12646 37.7281C7.41742 34.7044 6.57385 31.2425 6.57385 27.3643C6.57385 23.486 7.41742 20.0132 9.12646 16.9676C10.8246 13.922 13.1909 11.5556 16.2146 9.84656C19.2383 8.14847 22.6893 7.29395 26.5784 7.29395C30.4676 7.29395 35.2551 8.43331 38.487 10.712C41.7188 12.9908 43.8551 16.1459 44.9068 20.1885H34.313L34.3239 20.1994Z" fill="#727597"/>
<path d="M34.4117 20.2761C33.6996 18.9724 32.6807 17.9645 31.3551 17.2743C30.0295 16.5841 28.4739 16.2335 26.6772 16.2335C23.5768 16.2335 21.0899 17.2524 19.2275 19.2901C17.3651 21.3278 16.4229 24.0448 16.4229 27.4409C16.4229 30.8371 17.3979 33.8937 19.3589 35.9314C21.32 37.9691 24.015 38.9879 27.455 38.9879C30.895 38.9879 31.7933 38.3854 33.4257 37.1912C35.0471 35.9971 36.2412 34.2771 36.9862 32.0312H24.8257V24.976H45.6739V33.8827C44.9618 36.271 43.7567 38.4949 42.0586 40.5546C40.3605 42.6142 38.2023 44.2684 35.5839 45.5393C32.9656 46.8101 30.0186 47.4455 26.7319 47.4455C23.4453 47.4455 19.3809 46.591 16.3353 44.8929C13.2896 43.1948 10.9233 40.8284 9.21423 37.8048C7.50519 34.7811 6.66162 31.3191 6.66162 27.4409C6.66162 23.5627 7.50519 20.0898 9.21423 17.0442C10.9123 13.9986 13.2787 11.6323 16.3024 9.92322C19.3261 8.22513 22.777 7.37061 26.6662 7.37061C30.5554 7.37061 35.3429 8.50997 38.5747 10.7887C41.8066 13.0674 43.9429 16.2226 44.9946 20.2651H34.4007L34.4117 20.2761Z" fill="#727597"/>
<path d="M34.4882 20.342C33.7761 19.0383 32.7573 18.0304 31.4317 17.3402C30.1061 16.65 28.5504 16.2995 26.7537 16.2995C23.6533 16.2995 21.1664 17.3183 19.304 19.356C17.4416 21.3937 16.4994 24.1107 16.4994 27.5068C16.4994 30.903 17.4745 33.9596 19.4355 35.9973C21.3965 38.035 24.0915 39.0539 27.5315 39.0539C30.9715 39.0539 31.8699 38.4513 33.5022 37.2572C35.1236 36.063 36.3178 34.343 37.0627 32.0972H24.9022V25.0419H45.7504V33.9486C45.0383 36.3369 43.8332 38.5609 42.1351 40.6205C40.437 42.6801 38.2788 44.3344 35.6605 45.6052C33.0421 46.876 30.0951 47.5114 26.8085 47.5114C23.5219 47.5114 19.4574 46.6569 16.4118 44.9588C13.3662 43.2607 10.9998 40.8944 9.29077 37.8707C7.58173 34.847 6.73816 31.3851 6.73816 27.5068C6.73816 23.6286 7.58173 20.1558 9.29077 17.1102C10.9889 14.0646 13.3552 11.6982 16.3789 9.98914C19.4026 8.29105 22.8536 7.43652 26.7427 7.43652C30.6319 7.43652 35.4194 8.57589 38.6513 10.8546C41.8831 13.1333 44.0194 16.2885 45.0712 20.331H34.4773L34.4882 20.342Z" fill="#727597"/>
<path d="M34.5649 20.4187C33.8528 19.115 32.8339 18.1071 31.5083 17.4169C30.1827 16.7267 28.6271 16.3761 26.8304 16.3761C23.73 16.3761 21.2431 17.395 19.3807 19.4327C17.5183 21.4704 16.5761 24.1873 16.5761 27.5835C16.5761 30.9797 17.5511 34.0362 19.5121 36.074C21.4732 38.1117 24.1682 39.1305 27.6082 39.1305C31.0482 39.1305 31.9465 38.528 33.5789 37.3338C35.2003 36.1397 36.3944 34.4197 37.1394 32.1738H24.9789V25.1185H45.8271V34.0253C45.115 36.4136 43.9099 38.6375 42.2118 40.6971C40.5137 42.7568 38.3555 44.411 35.7371 45.6819C33.1188 46.9527 30.1718 47.5881 26.8851 47.5881C23.5985 47.5881 19.5341 46.7336 16.4885 45.0355C13.4428 43.3374 11.0765 40.971 9.36743 37.9473C7.65839 34.9236 6.81482 31.4617 6.81482 27.5835C6.81482 23.7053 7.65839 20.2324 9.36743 17.1868C11.0655 14.1412 13.4319 11.7748 16.4556 10.0658C19.4793 8.36771 22.9302 7.51318 26.8194 7.51318C30.7086 7.51318 35.4961 8.65255 38.7279 10.9313C41.9598 13.21 44.0961 16.3652 45.1478 20.4077H34.5539L34.5649 20.4187Z" fill="#727597"/>
<path d="M34.6527 20.4953C33.9406 19.1916 32.9217 18.1837 31.5961 17.4935C30.2705 16.8033 28.7148 16.4528 26.9181 16.4528C23.8177 16.4528 21.3309 17.4716 19.4684 19.5093C17.606 21.547 16.6639 24.264 16.6639 27.6602C16.6639 31.0563 17.6389 34.1129 19.5999 36.1506C21.5609 38.1883 24.256 39.2072 27.696 39.2072C31.136 39.2072 32.0343 38.6046 33.6667 37.4105C35.2881 36.2163 36.4822 34.4963 37.2272 32.2505H25.0667V25.1952H45.9148V34.1019C45.2027 36.4902 43.9976 38.7142 42.2995 40.7738C40.6014 42.8334 38.4432 44.4877 35.8249 45.7585C33.2065 47.0293 30.2595 47.6648 26.9729 47.6648C23.6863 47.6648 19.6218 46.8102 16.5762 45.1121C13.5306 43.4141 11.1642 41.0477 9.4552 38.024C7.74615 35.0003 6.90259 31.5384 6.90259 27.6602C6.90259 23.7819 7.74615 20.3091 9.4552 17.2635C11.1533 14.2179 13.5197 11.8515 16.5434 10.1425C19.567 8.44437 23.018 7.58984 26.9072 7.58984C30.7963 7.58984 35.5839 8.72921 38.8157 11.0079C42.0476 13.2867 44.1839 16.4418 45.2356 20.4844H34.6417L34.6527 20.4953Z" fill="#727597"/>
<path d="M31.3659 17.4277C30.6538 16.124 29.635 15.1161 28.3094 14.4259C26.9838 13.7358 25.4281 13.3852 23.6314 13.3852C20.531 13.3852 18.0442 14.404 16.1817 16.4417C14.3193 18.4794 13.3771 21.1964 13.3771 24.5926C13.3771 27.9888 14.3522 31.0453 16.3132 33.083C18.2742 35.1207 20.9693 36.1396 24.4093 36.1396C27.8493 36.1396 28.7476 35.537 30.38 34.3429C32.0014 33.1488 33.1955 31.4288 33.9405 29.1829H21.78V22.1276H42.6281V31.0344C41.916 33.4226 40.7109 35.6466 39.0128 37.7062C37.3147 39.7658 35.1565 41.4201 32.5382 42.6909C29.9198 43.9618 26.9728 44.5972 23.6862 44.5972C20.3996 44.5972 16.3351 43.7426 13.2895 42.0446C10.2439 40.3465 7.87753 37.9801 6.16849 34.9564C4.4704 31.9327 3.62683 28.4817 3.62683 24.5926C3.62683 20.7034 4.4704 17.2415 6.17944 14.1959C7.87753 11.1503 10.2439 8.78391 13.2676 7.07486C16.2913 5.38773 19.7422 4.5332 23.6314 4.5332C27.5206 4.5332 32.3081 5.67257 35.54 7.95129C38.7718 10.23 40.9081 13.3852 41.9598 17.4277H31.3659Z" fill="#FA8A5B"/>
</g>
<g clip-path="url(#clip1_5633_1537)">
<path d="M62.7239 19.2078C64.202 18.3593 65.8067 17.8926 67.5804 17.8926V26.7598H65.3C63.2307 26.7598 61.6682 27.2265 60.6124 28.1175C59.5567 29.0084 59.0499 30.5782 59.0499 32.8268V45.4701H50.7306V18.1896H59.0499V22.7292C60.0212 21.2443 61.2459 20.0563 62.6817 19.1654L62.7239 19.2078Z" fill="#727597"/>
<path d="M79.9116 18.1899V45.4704H71.5923V18.1899H79.9116Z" fill="#727597"/>
<path d="M99.5908 25.1482H95.1144V45.4707H86.7951V25.1482H83.7968V18.1902H86.7951V17.4265C86.7951 14.0748 87.7664 11.5292 89.6667 9.78965C91.5671 8.05014 94.3965 7.15918 98.0705 7.15918C101.745 7.15918 99.1263 7.15918 99.4219 7.20161V14.2869C97.8171 14.202 96.7192 14.4142 96.0857 14.9657C95.4523 15.5173 95.1144 16.4931 95.1144 17.9356V18.1902H99.5908V25.1482Z" fill="#727597"/>
<path d="M103.391 24.3843C104.447 22.2629 105.883 20.6507 107.699 19.5052C109.515 18.3597 111.542 17.8081 113.78 17.8081C116.018 17.8081 117.37 18.1899 118.805 18.9961C120.241 19.7597 121.339 20.8204 122.142 22.0932V18.2324H130.461V45.5129H122.142V41.652C121.339 42.9248 120.199 43.9431 118.763 44.7492C117.327 45.5129 115.638 45.9371 113.738 45.9371C111.838 45.9371 109.515 45.3432 107.699 44.1976C105.883 43.0521 104.447 41.3975 103.391 39.2761C102.336 37.1548 101.829 34.694 101.829 31.8514C101.829 29.0088 102.336 26.5905 103.391 24.4691V24.3843ZM120.41 26.8875C119.27 25.6995 117.876 25.0631 116.187 25.0631C114.498 25.0631 113.147 25.6571 111.964 26.845C110.824 28.033 110.233 29.6876 110.233 31.7666C110.233 33.8455 110.824 35.5001 111.964 36.7305C113.104 37.9609 114.498 38.5549 116.187 38.5549C117.876 38.5549 119.228 37.9609 120.41 36.7305C121.55 35.5425 122.142 33.8879 122.142 31.809C122.142 29.7301 121.55 28.0754 120.41 26.8875Z" fill="#727597"/>
<path d="M160.655 20.9897C162.556 23.0687 163.485 25.9113 163.485 29.5175V45.4701H155.208V30.6631C155.208 28.8387 154.743 27.4386 153.814 26.4204C152.885 25.4021 151.618 24.893 150.014 24.893C148.409 24.893 147.142 25.4021 146.213 26.4204C145.284 27.4386 144.819 28.8387 144.819 30.6631V45.4701H136.5V18.1896H144.819V21.7959C145.664 20.6079 146.804 19.6321 148.24 18.9533C149.676 18.232 151.28 17.8926 153.054 17.8926C156.221 17.8926 158.755 18.9108 160.655 20.9897Z" fill="#727597"/>
<path d="M72.2257 14.0747C71.2967 13.2261 70.8322 12.123 70.8322 10.8927C70.8322 9.66227 71.2967 8.51675 72.2257 7.62578C73.1548 6.77724 74.3373 6.31055 75.8153 6.31055C77.2934 6.31055 78.4336 6.73482 79.3626 7.62578C80.2917 8.47432 80.7562 9.57742 80.7562 10.8927C80.7562 12.2079 80.2917 13.2261 79.3626 14.0747C78.4336 14.9232 77.2511 15.3899 75.8153 15.3899C74.3795 15.3899 73.1548 14.9656 72.2257 14.0747Z" fill="#727597"/>
<path d="M174.465 44.1547C172.353 43.0092 170.664 41.397 169.439 39.2756C168.215 37.1543 167.623 34.6935 167.623 31.8509C167.623 29.0083 168.257 26.59 169.482 24.4262C170.706 22.3049 172.395 20.6502 174.549 19.5047C176.703 18.3592 179.11 17.8076 181.77 17.8076C184.431 17.8076 186.838 18.3592 188.992 19.5047C191.146 20.6502 192.835 22.2624 194.059 24.4262C195.284 26.5476 195.918 29.0083 195.918 31.8509C195.918 34.6935 195.284 37.1119 194.059 39.2756C192.793 41.397 191.103 43.0516 188.95 44.1972C186.796 45.3427 184.389 45.8942 181.728 45.8942C179.068 45.8942 176.661 45.3427 174.549 44.1972L174.465 44.1547ZM185.698 36.8573C186.796 35.6693 187.387 34.0147 187.387 31.8085C187.387 29.6023 186.838 27.9476 185.74 26.7597C184.642 25.5717 183.333 25.0202 181.728 25.0202C180.124 25.0202 178.772 25.6142 177.674 26.7597C176.618 27.9052 176.069 29.6023 176.069 31.8085C176.069 34.0147 176.576 35.6693 177.632 36.8573C178.688 38.0452 179.997 38.5968 181.602 38.5968C183.206 38.5968 184.558 38.0028 185.656 36.8573H185.698Z" fill="#727597"/>
</g>
<defs>
<clipPath id="clip0_5633_1537">
<rect width="42.3975" height="43.1315" fill="white" transform="translate(3.51733 4.5332)"/>
</clipPath>
<clipPath id="clip1_5633_1537">
<rect width="145.1" height="39.3786" fill="white" transform="translate(50.8995 6.34961)"/>
</clipPath>
</defs>
</svg>
