<svg width="321" height="241" viewBox="0 0 321 241" fill="none" xmlns="http://www.w3.org/2000/svg">
<path d="M55.5636 114.192C58.0948 73.2721 85.4098 36.1489 126.962 23.2823C168.515 10.4158 211.966 25.4971 237.277 57.8744L252.675 53.1285C251.093 45.3242 244.871 38.9964 236.645 37.6254C229.895 36.4653 224.2 31.8249 221.669 25.4971C218.083 16.4272 208.38 11.3649 198.889 13.4742C192.139 14.9507 185.178 12.9469 180.327 7.99009C173.577 1.02949 162.715 -0.0251508 154.699 5.66989C149.11 9.6775 141.833 10.4158 135.505 7.6737C126.541 3.87701 116.205 7.04092 110.932 15.2671C107.241 21.0676 100.808 24.5479 93.9524 24.4424C84.2497 24.337 75.8126 31.2975 74.2307 40.8947C73.0706 47.6444 68.4302 53.3395 62.1024 55.8706C53.0325 59.4563 47.9702 69.159 50.0795 78.6507C51.556 85.4004 49.5522 92.361 44.5954 97.2123C38.6894 103.013 37.1075 111.766 40.1659 119.043L55.5636 114.297V114.192ZM130.337 34.1451C165.668 23.1769 202.791 35.1997 225.571 61.5656L230.95 59.8782C207.009 30.7702 166.933 17.3764 128.861 29.1883C90.683 41.0002 65.2663 74.7486 61.9969 112.294L67.3755 110.606C71.1722 75.9087 95.007 45.1133 130.443 34.1451H130.337ZM271.87 118.094C271.87 118.094 271.87 117.989 271.764 117.883L258.687 121.891C258.054 164.709 230.211 204.047 187.182 217.441C144.048 230.835 98.9092 214.066 74.1252 179.052L61.0477 183.06C61.0477 183.06 61.0477 183.271 61.0477 183.376C60.9423 193.079 67.9029 201.516 77.5001 203.098C84.2497 204.258 89.9448 208.898 92.4759 215.226C96.0617 224.296 105.764 229.358 115.256 227.249C122.006 225.773 128.966 227.776 133.818 232.733C140.567 239.694 151.43 240.748 159.445 235.053C165.035 231.046 172.312 230.307 178.64 233.05C187.604 236.846 197.94 233.682 203.213 225.456C206.904 219.656 213.337 216.175 220.192 216.281C229.895 216.386 238.332 209.426 239.914 199.828C241.074 193.079 245.715 187.384 252.042 184.853C261.112 181.267 266.174 171.564 264.065 162.072C262.589 155.323 264.593 148.362 269.549 143.511C276.51 136.761 277.565 125.898 271.87 117.883V118.094ZM185.284 211.64C225.044 199.301 250.988 163.233 252.464 123.895L247.191 125.477C245.082 162.072 220.72 195.188 183.702 206.684C146.684 218.179 107.874 204.574 85.4098 175.572L80.1367 177.154C103.655 208.793 145.419 223.874 185.178 211.535L185.284 211.64Z" fill="#FA8A5B"/>
<path d="M141.091 70.0029L144.888 74.2215L150.478 73.2723L147.736 78.2291L150.372 83.1859L144.783 82.1312L140.881 86.2443L140.142 80.5493L135.08 78.0182L140.248 75.698L141.091 70.0029Z" fill="#FA8A5B"/>
<path d="M158.072 68.6318L160.814 71.5848L164.716 70.952L162.818 74.4323L164.611 78.0181L160.709 77.2799L157.861 80.1274L157.439 76.1198L153.748 74.3269L157.439 72.6395L158.072 68.6318Z" fill="#FA8A5B"/>
<path d="M126.326 78.5459L129.068 81.4989L132.97 80.7606L131.072 84.3464L132.865 87.8267L128.963 87.0885L126.115 89.936L125.693 85.9284L122.002 84.1355L125.693 82.448L126.326 78.5459Z" fill="#FA8A5B"/>
<path d="M171.363 167.767L167.461 163.548L161.871 164.497L164.719 159.541L162.082 154.584L167.566 155.638L171.574 151.631L172.207 157.22L177.374 159.752L172.207 162.177L171.363 167.767Z" fill="#FA8A5B"/>
<path d="M154.381 169.139L151.638 166.186L147.631 166.819L149.635 163.339L147.736 159.753L151.744 160.597L154.486 157.644L155.013 161.651L158.599 163.444L155.013 165.131L154.381 169.139Z" fill="#FA8A5B"/>
<path d="M186.127 159.33L183.385 156.378L179.377 157.01L181.381 153.53L179.482 149.944L183.49 150.682L186.338 147.835L186.759 151.843L190.345 153.635L186.759 155.323L186.127 159.33Z" fill="#FA8A5B"/>
<path d="M22.343 167.663L30.0419 165.132L32.0457 171.143L16.3316 176.311L8 150.894L16.0152 148.258L22.343 167.663Z" fill="#FA8A5B"/>
<path d="M49.5539 161.23L41.1168 163.972V168.191L32.7852 170.933L33.7343 142.458L42.9097 139.399L60.5221 161.758L52.085 164.5L49.5539 161.019V161.23ZM45.6517 155.852L41.0113 149.524V157.328L45.6517 155.852Z" fill="#FA8A5B"/>
<path d="M74.0244 129.274L76.1336 135.602L69.384 137.817L75.7118 156.906L67.6965 159.542L61.3687 140.454L54.7245 142.668L52.6152 136.34L74.0244 129.274Z" fill="#FA8A5B"/>
<path d="M86.2534 132.332L87.3081 135.495L95.2178 132.859L97.2216 138.87L89.3119 141.507L90.472 145.093L99.4364 142.14L101.546 148.468L84.566 154.057L76.2344 128.64L93.214 123.051L95.3233 129.379L86.3589 132.332H86.2534Z" fill="#FA8A5B"/>
<path d="M106.294 144.775C103.868 144.037 102.076 142.244 101.021 139.607L109.458 136.865C110.091 138.236 110.935 138.764 112.095 138.447C112.516 138.342 112.833 138.131 113.044 137.814C113.255 137.498 113.36 137.182 113.149 136.76C112.938 136.127 112.516 135.811 111.673 135.6C110.935 135.389 109.774 135.389 108.192 135.283C106.4 135.283 104.818 135.072 103.552 134.967C102.286 134.861 101.126 134.229 99.9663 133.49C98.8062 132.647 98.068 131.487 97.5406 129.799C97.0133 128.112 97.0133 126.635 97.4352 125.159C97.857 123.682 98.8062 122.417 100.072 121.362C101.337 120.307 102.919 119.464 104.712 118.831C107.876 117.776 110.513 117.671 112.833 118.515C115.153 119.358 116.735 121.046 117.684 123.682L109.142 126.53C108.931 125.792 108.509 125.37 108.087 125.159C107.665 124.948 107.138 124.948 106.716 125.159C106.4 125.264 106.189 125.475 105.978 125.792C105.872 126.108 105.872 126.424 105.978 126.846C106.189 127.374 106.611 127.795 107.349 127.901C108.087 128.112 109.247 128.217 110.829 128.217C112.622 128.217 114.098 128.428 115.364 128.639C116.63 128.85 117.79 129.272 118.844 130.01C119.899 130.748 120.743 131.803 121.164 133.385C121.692 134.967 121.797 136.443 121.375 137.92C121.059 139.396 120.215 140.767 118.95 141.928C117.684 143.088 116.102 144.037 114.098 144.67C111.04 145.619 108.298 145.83 105.872 144.986L106.294 144.775Z" fill="#FA8A5B"/>
<path d="M138.565 108.076L140.675 114.404L133.925 116.619L140.253 135.708L132.238 138.344L125.91 119.255L119.266 121.47L117.156 115.142L138.565 108.076Z" fill="#FA8A5B"/>
<path d="M170.835 111.978C170.518 113.56 169.78 114.931 168.515 116.197C167.354 117.462 165.667 118.411 163.663 119.044L160.499 120.099L163.136 128.219L155.121 130.856L146.789 105.439L157.968 101.748C161.132 100.693 163.769 100.693 165.878 101.748C167.987 102.803 169.569 104.596 170.413 107.338C170.94 108.92 171.046 110.501 170.729 112.083L170.835 111.978ZM162.398 109.869C161.87 108.287 160.816 107.759 159.128 108.392L156.914 109.13L158.496 113.771L160.71 113.033C162.398 112.505 162.925 111.451 162.398 109.869Z" fill="#FA8A5B"/>
<path d="M191.296 118.939L183.492 111.346L186.445 120.521L178.429 123.158L170.098 97.741L181.91 93.8388C184.019 93.206 185.812 92.9951 187.605 93.2061C189.292 93.417 190.769 94.0498 191.823 95.1044C192.878 96.159 193.827 97.4246 194.354 99.0066C194.882 100.694 194.987 102.381 194.354 103.963C193.827 105.545 192.772 107.022 191.19 108.182L199.944 116.092L191.19 118.939H191.296ZM181.699 106.073L184.863 105.018C185.601 104.807 186.128 104.385 186.445 103.963C186.761 103.541 186.761 102.909 186.445 102.17C186.234 101.538 185.812 101.01 185.284 100.799C184.757 100.589 184.124 100.589 183.386 100.799L180.222 101.854L181.593 106.178L181.699 106.073Z" fill="#FA8A5B"/>
<path d="M207.959 111.873C205.638 111.451 203.529 110.396 201.631 108.814C199.838 107.232 198.467 105.123 197.623 102.698C196.779 100.166 196.674 97.7407 197.201 95.4205C197.729 92.9949 198.783 90.9911 200.471 89.1982C202.158 87.4053 204.162 86.1397 206.482 85.4015C208.908 84.6633 211.228 84.4523 213.654 84.8742C215.974 85.296 218.083 86.3507 219.876 87.9326C221.669 89.5146 223.04 91.6239 223.778 94.0495C224.622 96.5806 224.727 99.0063 224.2 101.327C223.673 103.647 222.618 105.756 221.036 107.549C219.454 109.342 217.45 110.607 215.025 111.346C212.599 112.084 210.279 112.295 207.853 111.873H207.959ZM215.868 101.221C216.396 99.9555 216.396 98.3735 215.868 96.6861C215.341 94.8932 214.392 93.7331 213.232 92.9949C212.072 92.2566 210.595 92.1512 209.013 92.6785C207.431 93.2058 206.377 94.155 205.849 95.4205C205.322 96.6861 205.322 98.2681 205.849 99.9555C206.377 101.643 207.326 102.908 208.486 103.647C209.646 104.385 211.122 104.49 212.704 103.963C214.286 103.436 215.341 102.487 215.868 101.221Z" fill="#FA8A5B"/>
<path d="M240.335 74.6445L245.714 91.0969C246.663 94.1553 246.663 96.6864 245.608 98.7957C244.554 100.905 242.55 102.381 239.702 103.331C236.644 104.385 233.902 104.28 231.476 103.225C229.051 102.171 227.363 99.9558 226.309 96.6864L234.218 94.0498C234.535 95.1045 234.957 95.7373 235.484 96.0536C235.906 96.37 236.433 96.4755 237.066 96.2646C237.593 96.1591 237.91 95.8427 238.015 95.4209C238.226 94.999 238.121 94.4717 237.91 93.628L232.531 77.1757L240.441 74.5391L240.335 74.6445Z" fill="#FA8A5B"/>
<path d="M253.939 77.2808L254.994 80.4447L262.903 77.8081L264.907 83.8195L256.997 86.4561L258.158 90.0419L267.122 87.0889L269.231 93.4167L252.252 99.0063L243.92 73.5896L260.9 68L263.009 74.3278L254.044 77.2808H253.939Z" fill="#FA8A5B"/>
<path d="M266.596 72.6405C267.018 70.3203 267.967 68.3165 269.443 66.6291C271.025 64.9416 273.029 63.6761 275.56 62.8324C277.775 62.0941 279.884 61.8832 281.888 62.0941C283.892 62.3051 285.685 63.0433 287.267 64.2034C288.849 65.3635 290.114 66.84 291.169 68.7383L282.732 71.4804C282.099 70.7421 281.361 70.3203 280.411 70.1094C279.568 69.8984 278.619 69.8984 277.775 70.1094C276.404 70.5312 275.56 71.3749 275.138 72.6405C274.716 73.9061 274.716 75.3825 275.349 77.07C275.877 78.7574 276.72 80.0229 277.88 80.7612C279.04 81.4994 280.201 81.7104 281.572 81.183C282.521 80.8667 283.259 80.3393 283.786 79.7065C284.314 78.9683 284.63 78.1246 284.735 77.1754L293.173 74.4334C293.489 76.5426 293.278 78.5464 292.751 80.4448C292.118 82.3431 291.169 83.9251 289.692 85.2961C288.216 86.6672 286.423 87.7218 284.208 88.46C281.677 89.3037 279.251 89.5147 277.037 88.9874C274.822 88.5655 272.818 87.5109 271.131 85.8234C269.443 84.2415 268.178 82.1322 267.439 79.6011C266.596 77.07 266.385 74.6443 266.807 72.4296L266.596 72.6405Z" fill="#FA8A5B"/>
<path d="M310.892 51.4414L313.001 57.7692L306.251 59.984L312.579 79.0729L304.564 81.7095L298.236 62.6206L291.592 64.8353L289.482 58.5075L310.892 51.4414Z" fill="#FA8A5B"/>
</svg>
