<svg width="25" height="24" viewBox="0 0 25 24" fill="none" xmlns="http://www.w3.org/2000/svg">
<path d="M21.0643 8.50879C21.6517 8.50879 22.1279 8.03257 22.1279 7.44511V3.19059C22.1279 2.60316 21.6517 2.12695 21.0643 2.12695H16.8097C16.2223 2.12695 15.746 2.60316 15.746 3.19059V4.25422H9.36426V3.19059C9.36426 2.60316 8.88804 2.12695 8.30058 2.12695H4.04606C3.45863 2.12695 2.98242 2.60316 2.98242 3.19059V7.44511C2.98242 8.03257 3.45863 8.50879 4.04606 8.50879H5.10969V14.8906H4.04606C3.45863 14.8906 2.98242 15.3668 2.98242 15.9542V20.2088C2.98242 20.7962 3.45863 21.2724 4.04606 21.2724H8.30058C8.88804 21.2724 9.36426 20.7962 9.36426 20.2088V19.1451H15.746V20.2088C15.746 20.7962 16.2223 21.2724 16.8097 21.2724H21.0643C21.6517 21.2724 22.1279 20.7962 22.1279 20.2088V15.9542C22.1279 15.3668 21.6517 14.8906 21.0643 14.8906H20.0006V8.50879H21.0643Z" fill="black"/>
<path d="M17.873 4.25439H20.0003V6.38168H17.873V4.25439Z" fill="white"/>
<path d="M5.10938 4.25439H7.23666V6.38168H5.10938V4.25439Z" fill="white"/>
<path d="M7.23666 19.1449H5.10938V17.0176H7.23666V19.1449Z" fill="white"/>
<path d="M20.0003 19.1449H17.873V17.0176H20.0003V19.1449Z" fill="white"/>
<path d="M17.8747 14.8909H16.811C16.2236 14.8909 15.7474 15.3671 15.7474 15.9545V17.0182H9.36558V15.9545C9.36558 15.3671 8.88936 14.8909 8.30196 14.8909H7.23828V8.50908H8.30196C8.88936 8.50908 9.36558 8.03292 9.36558 7.44546V6.38184H15.7474V7.44546C15.7474 8.03292 16.2236 8.50908 16.811 8.50908H17.8747V14.8909Z" fill="white"/>
<mask id="mask0_4890_3902" style="mask-type:luminance" maskUnits="userSpaceOnUse" x="1" y="0" width="23" height="24">
<path d="M23.9836 0.32666H1.18359V23.1267H23.9836V0.32666Z" fill="white"/>
<path d="M21.0662 8.50879C21.6536 8.50879 22.1298 8.03257 22.1298 7.44511V3.19059C22.1298 2.60316 21.6536 2.12695 21.0662 2.12695H16.8117C16.2242 2.12695 15.748 2.60316 15.748 3.19059V4.25422H9.36621V3.19059C9.36621 2.60316 8.88999 2.12695 8.30253 2.12695H4.04801C3.46058 2.12695 2.98438 2.60316 2.98438 3.19059V7.44511C2.98438 8.03257 3.46058 8.50879 4.04801 8.50879H5.11164V14.8906H4.04801C3.46058 14.8906 2.98438 15.3668 2.98438 15.9542V20.2088C2.98438 20.7962 3.46058 21.2724 4.04801 21.2724H8.30253C8.88999 21.2724 9.36621 20.7962 9.36621 20.2088V19.1451H15.748V20.2088C15.748 20.7962 16.2242 21.2724 16.8117 21.2724H21.0662C21.6536 21.2724 22.1298 20.7962 22.1298 20.2088V15.9542C22.1298 15.3668 21.6536 14.8906 21.0662 14.8906H20.0025V8.50879H21.0662Z" fill="url(#paint0_linear_4890_3902)"/>
</mask>
<g mask="url(#mask0_4890_3902)">
<path d="M15.7472 4.25393V6.05395H17.5472V4.25393H15.7472ZM9.36543 4.25393H7.56543V6.05395H9.36543V4.25393ZM5.11086 8.50849H6.91089V6.70849H5.11086V8.50849ZM5.11086 14.8903V16.6903H6.91089V14.8903H5.11086ZM9.36543 19.1448V17.3448H7.56543V19.1448H9.36543ZM15.7472 19.1448H17.5472V17.3448H15.7472V19.1448ZM20.0017 14.8903H18.2017V16.6903H20.0017V14.8903ZM20.0017 8.50849V6.70849H18.2017V8.50849H20.0017ZM21.0654 10.3085C22.647 10.3085 23.929 9.02641 23.929 7.44481H20.329C20.329 7.03813 20.6587 6.70849 21.0654 6.70849V10.3085ZM23.929 7.44481V3.1903H20.329V7.44481H23.929ZM23.929 3.1903C23.929 1.60875 22.647 0.32666 21.0654 0.32666V3.92666C20.6587 3.92666 20.329 3.59698 20.329 3.1903H23.929ZM21.0654 0.32666H16.8109V3.92666H21.0654V0.32666ZM16.8109 0.32666C15.2293 0.32666 13.9472 1.60875 13.9472 3.1903H17.5472C17.5472 3.59698 17.2176 3.92666 16.8109 3.92666V0.32666ZM13.9472 3.1903V4.25393H17.5472V3.1903H13.9472ZM15.7472 2.45393H9.36543V6.05395H15.7472V2.45393ZM11.1654 4.25393V3.1903H7.56543V4.25393H11.1654ZM11.1654 3.1903C11.1654 1.60875 9.88335 0.32666 8.30175 0.32666V3.92666C7.89507 3.92666 7.56543 3.59698 7.56543 3.1903H11.1654ZM8.30175 0.32666H4.04723V3.92666H8.30175V0.32666ZM4.04723 0.32666C2.46569 0.32666 1.18359 1.60875 1.18359 3.1903H4.78359C4.78359 3.59698 4.45391 3.92666 4.04723 3.92666V0.32666ZM1.18359 3.1903V7.44481H4.78359V3.1903H1.18359ZM1.18359 7.44481C1.18359 9.02641 2.46569 10.3085 4.04723 10.3085V6.70849C4.45391 6.70849 4.78359 7.03813 4.78359 7.44481H1.18359ZM4.04723 10.3085H5.11086V6.70849H4.04723V10.3085ZM3.31086 8.50849V14.8903H6.91089V8.50849H3.31086ZM5.11086 13.0903H4.04723V16.6903H5.11086V13.0903ZM4.04723 13.0903C2.46569 13.0903 1.18359 14.3724 1.18359 15.954H4.78359C4.78359 16.3606 4.45391 16.6903 4.04723 16.6903V13.0903ZM1.18359 15.954V20.2085H4.78359V15.954H1.18359ZM1.18359 20.2085C1.18359 21.79 2.46569 23.0721 4.04723 23.0721V19.4721C4.45391 19.4721 4.78359 19.8018 4.78359 20.2085H1.18359ZM4.04723 23.0721H8.30175V19.4721H4.04723V23.0721ZM8.30175 23.0721C9.88335 23.0721 11.1654 21.79 11.1654 20.2085H7.56543C7.56543 19.8018 7.89507 19.4721 8.30175 19.4721V23.0721ZM11.1654 20.2085V19.1448H7.56543V20.2085H11.1654ZM9.36543 20.9448H15.7472V17.3448H9.36543V20.9448ZM13.9472 19.1448V20.2085H17.5472V19.1448H13.9472ZM13.9472 20.2085C13.9472 21.79 15.2293 23.0721 16.8109 23.0721V19.4721C17.2176 19.4721 17.5472 19.8018 17.5472 20.2085H13.9472ZM16.8109 23.0721H21.0654V19.4721H16.8109V23.0721ZM21.0654 23.0721C22.647 23.0721 23.929 21.79 23.929 20.2085H20.329C20.329 19.8018 20.6587 19.4721 21.0654 19.4721V23.0721ZM23.929 20.2085V15.954H20.329V20.2085H23.929ZM23.929 15.954C23.929 14.3724 22.647 13.0903 21.0654 13.0903V16.6903C20.6587 16.6903 20.329 16.3606 20.329 15.954H23.929ZM21.0654 13.0903H20.0017V16.6903H21.0654V13.0903ZM21.8017 14.8903V8.50849H18.2017V14.8903H21.8017ZM20.0017 10.3085H21.0654V6.70849H20.0017V10.3085Z" fill="url(#paint1_linear_4890_3902)"/>
</g>
<defs>
<linearGradient id="paint0_linear_4890_3902" x1="2.98438" y1="2.12695" x2="22.3693" y2="4.24707" gradientUnits="userSpaceOnUse">
<stop stop-color="#FF7448"/>
<stop offset="0.5" stop-color="#FF4848"/>
<stop offset="1" stop-color="#6248FF"/>
</linearGradient>
<linearGradient id="paint1_linear_4890_3902" x1="2.98359" y1="2.12666" x2="22.3686" y2="4.24677" gradientUnits="userSpaceOnUse">
<stop stop-color="#FF7448"/>
<stop offset="0.5" stop-color="#FF4848"/>
<stop offset="1" stop-color="#6248FF"/>
</linearGradient>
</defs>
</svg>
