<svg width="24" height="24" viewBox="0 0 24 24" fill="none" xmlns="http://www.w3.org/2000/svg">
<path fill-rule="evenodd" clip-rule="evenodd" d="M22.4809 6.1493L22.3133 5.8505C22.0969 5.4892 21.7918 5.18895 21.4268 4.97808L13.3897 0.353102C13.0257 0.14243 12.6127 0.0311424 12.1919 0.0303955H11.8446C11.4238 0.0311424 11.0107 0.14243 10.6468 0.353102L2.6096 4.99003C2.24666 5.19951 1.94517 5.50031 1.73524 5.86245L1.56754 6.16125C1.35642 6.52434 1.24489 6.93652 1.24414 7.35637V16.6183C1.24489 17.0381 1.35642 17.4503 1.56754 17.8133L1.73524 18.1122C1.9506 18.4701 2.25085 18.7697 2.6096 18.9845L10.6588 23.6096C11.0208 23.8246 11.4352 23.9362 11.8566 23.9322H12.1919C12.6127 23.9315 13.0257 23.8202 13.3897 23.6096L21.4268 18.9726C21.7934 18.7679 22.0961 18.466 22.3013 18.1002L22.4809 17.8014C22.6895 17.4373 22.8008 17.0258 22.8043 16.6063V7.34437C22.8036 6.92457 22.692 6.51239 22.4809 6.1493Z" fill="url(#paint0_linear_6049_8711)"/>
<path d="M12.0642 2.77588L4.35254 7.45937L12.3468 11.9813V21.1868L20.0583 16.5033V7.45937L12.0642 2.77588Z" fill="white"/>
<path fill-rule="evenodd" clip-rule="evenodd" d="M20.8356 7.05566L20.6943 6.80331C20.512 6.49818 20.255 6.24459 19.9473 6.06648L13.1745 2.16021C12.8678 1.98235 12.5197 1.88834 12.1651 1.8877H11.8724C11.5179 1.88834 11.1697 1.98235 10.863 2.16021L4.09016 6.07659C3.78428 6.25345 3.53019 6.50755 3.35328 6.81342L3.21197 7.06577C3.03411 7.37244 2.9401 7.72059 2.93945 8.07516V15.8977C2.9401 16.2523 3.03411 16.6004 3.21197 16.9071L3.35328 17.1595C3.53477 17.4618 3.78782 17.7148 4.09016 17.8962L10.8731 21.8025C11.1782 21.9841 11.5274 22.0784 11.8825 22.075H12.1651C12.5197 22.0744 12.8678 21.9804 13.1745 21.8025L19.9473 17.8862C20.2562 17.7133 20.5113 17.4583 20.6842 17.1494L20.8356 16.897C21.0114 16.5894 21.1052 16.2419 21.1081 15.8877V8.06506C21.1076 7.71048 21.0135 7.36233 20.8356 7.05566ZM11.8724 3.90643H12.1651L18.08 7.31812L12.0238 10.8105L5.96759 7.31812L11.8724 3.90643ZM13.0331 19.5516L18.9379 16.14L19.0894 15.8877V9.06429L13.0331 12.5668V19.5516Z" fill="black"/>
<defs>
<linearGradient id="paint0_linear_6049_8711" x1="1.64791" y1="6.49038" x2="23.2484" y2="12.5466" gradientUnits="userSpaceOnUse">
<stop offset="0.233827" stop-color="#F86F4D"/>
<stop offset="0.604167" stop-color="#B853B1"/>
<stop offset="0.958333" stop-color="#533BFA"/>
</linearGradient>
</defs>
</svg>
