<svg width="25" height="24" viewBox="0 0 25 24" fill="none" xmlns="http://www.w3.org/2000/svg">
<path fill-rule="evenodd" clip-rule="evenodd" d="M23.3311 6.1444L23.1628 5.84435C22.9455 5.48155 22.6392 5.18005 22.2727 4.9683L14.202 0.324051C13.8366 0.112501 13.4218 0.00075 12.9992 0H12.6505C12.228 0.00075 11.8131 0.112501 11.4477 0.324051L3.37701 4.9803C3.01256 5.19065 2.70981 5.4927 2.49901 5.85635L2.33061 6.1564C2.11861 6.521 2.00661 6.9349 2.00586 7.3565V16.657C2.00661 17.0786 2.11861 17.4924 2.33061 17.857L2.49901 18.1571C2.71526 18.5166 3.01676 18.8174 3.37701 19.0331L11.4597 23.6774C11.8233 23.8934 12.2394 24.0055 12.6625 24.0014H12.9992C13.4218 24.0007 13.8366 23.889 14.202 23.6774L22.2727 19.0212C22.6408 18.8156 22.9447 18.5124 23.1507 18.1451L23.3311 17.8451C23.5406 17.4794 23.6523 17.0662 23.6559 16.645V7.34445C23.6552 6.9229 23.5431 6.509 23.3311 6.1444Z" fill="url(#paint0_linear_5150_3822)"/>
<path d="M12.8707 2.75684L5.12695 7.45984L13.1545 12.0006V21.2445L20.8982 16.5415V7.45984L12.8707 2.75684Z" fill="white"/>
<path fill-rule="evenodd" clip-rule="evenodd" d="M21.6797 7.05473L21.5378 6.80133C21.3548 6.49493 21.0966 6.24028 20.7877 6.06143L13.9867 2.13888C13.6787 1.96028 13.3291 1.86588 12.9731 1.86523H12.6791C12.3231 1.86588 11.9735 1.96028 11.6655 2.13888L4.86448 6.07158C4.55733 6.24918 4.30218 6.50433 4.12453 6.81148L3.98263 7.06489C3.80403 7.37284 3.70963 7.72243 3.70898 8.07848V15.9336C3.70963 16.2897 3.80403 16.6392 3.98263 16.9472L4.12453 17.2006C4.30678 17.5042 4.56088 17.7583 4.86448 17.9405L11.6757 21.863C11.9821 22.0454 12.3327 22.1401 12.6893 22.1367H12.9731C13.3291 22.1361 13.6787 22.0417 13.9867 21.863L20.7877 17.9304C21.0979 17.7568 21.354 17.5007 21.5277 17.1905L21.6797 16.937C21.8562 16.6282 21.9504 16.2792 21.9534 15.9235V8.06833C21.9528 7.71228 21.8584 7.36268 21.6797 7.05473ZM12.6791 3.89238H12.9731L18.9126 7.31828L12.8312 10.8252L6.74973 7.31828L12.6791 3.89238ZM13.8447 19.6028L19.7741 16.1769L19.9262 15.9235V9.07173L13.8447 12.5888V19.6028Z" fill="black"/>
<defs>
<linearGradient id="paint0_linear_5150_3822" x1="2.41131" y1="6.4869" x2="24.1018" y2="12.5684" gradientUnits="userSpaceOnUse">
<stop offset="0.233827" stop-color="#F86F4D"/>
<stop offset="0.604167" stop-color="#B853B1"/>
<stop offset="0.958333" stop-color="#533BFA"/>
</linearGradient>
</defs>
</svg>
