<svg width="193" height="48" viewBox="0 0 193 48" fill="none" xmlns="http://www.w3.org/2000/svg">
<g style="mix-blend-mode:luminosity">
<g clip-path="url(#clip0_5039_1060)">
<path d="M28.3567 16.0148L52.3567 40.0148L44.3691 48.0024L20.3691 24.0024L28.3567 16.0148ZM20.3691 24.0024L44.3691 0.00244141L52.3567 7.99004L28.3567 31.99L20.3691 24.0024Z" fill="url(#paint0_linear_5039_1060)"/>
<path d="M60.3848 31.9847L36.3848 7.98467L44.3724 -0.00292969L68.3724 23.9971L60.3848 31.9847ZM68.3724 23.9971L44.3724 47.9971L36.3848 40.0095L60.3848 16.0095L68.3724 23.9971Z" fill="url(#paint1_linear_5039_1060)"/>
</g>
<path d="M90.6891 31.14C89.6625 31.14 88.7425 30.9733 87.9291 30.64C87.1158 30.3067 86.4625 29.8133 85.9691 29.16C85.4891 28.5067 85.2358 27.72 85.2091 26.8H88.8491C88.9025 27.32 89.0825 27.72 89.3891 28C89.6958 28.2667 90.0958 28.4 90.5891 28.4C91.0958 28.4 91.4958 28.2867 91.7891 28.06C92.0825 27.82 92.2291 27.4933 92.2291 27.08C92.2291 26.7333 92.1091 26.4467 91.8691 26.22C91.6425 25.9933 91.3558 25.8067 91.0091 25.66C90.6758 25.5133 90.1958 25.3467 89.5691 25.16C88.6625 24.88 87.9225 24.6 87.3491 24.32C86.7758 24.04 86.2825 23.6267 85.8691 23.08C85.4558 22.5333 85.2491 21.82 85.2491 20.94C85.2491 19.6333 85.7225 18.6133 86.6691 17.88C87.6158 17.1333 88.8491 16.76 90.3691 16.76C91.9158 16.76 93.1625 17.1333 94.1091 17.88C95.0558 18.6133 95.5625 19.64 95.6291 20.96H91.9291C91.9025 20.5067 91.7358 20.1533 91.4291 19.9C91.1225 19.6333 90.7291 19.5 90.2491 19.5C89.8358 19.5 89.5025 19.6133 89.2491 19.84C88.9958 20.0533 88.8691 20.3667 88.8691 20.78C88.8691 21.2333 89.0825 21.5867 89.5091 21.84C89.9358 22.0933 90.6025 22.3667 91.5091 22.66C92.4158 22.9667 93.1491 23.26 93.7091 23.54C94.2825 23.82 94.7758 24.2267 95.1891 24.76C95.6025 25.2933 95.8091 25.98 95.8091 26.82C95.8091 27.62 95.6025 28.3467 95.1891 29C94.7891 29.6533 94.2025 30.1733 93.4291 30.56C92.6558 30.9467 91.7425 31.14 90.6891 31.14ZM101.334 21.42C101.667 20.9 102.127 20.48 102.714 20.16C103.3 19.84 103.987 19.68 104.774 19.68C105.694 19.68 106.527 19.9133 107.274 20.38C108.02 20.8467 108.607 21.5133 109.034 22.38C109.474 23.2467 109.694 24.2533 109.694 25.4C109.694 26.5467 109.474 27.56 109.034 28.44C108.607 29.3067 108.02 29.98 107.274 30.46C106.527 30.9267 105.694 31.16 104.774 31.16C104 31.16 103.314 31 102.714 30.68C102.127 30.36 101.667 29.9467 101.334 29.44V36.32H97.9138V19.84H101.334V21.42ZM106.214 25.4C106.214 24.5467 105.974 23.88 105.494 23.4C105.027 22.9067 104.447 22.66 103.754 22.66C103.074 22.66 102.494 22.9067 102.014 23.4C101.547 23.8933 101.314 24.5667 101.314 25.42C101.314 26.2733 101.547 26.9467 102.014 27.44C102.494 27.9333 103.074 28.18 103.754 28.18C104.434 28.18 105.014 27.9333 105.494 27.44C105.974 26.9333 106.214 26.2533 106.214 25.4ZM114.908 16.2V31H111.488V16.2H114.908ZM119.106 18.68C118.506 18.68 118.013 18.5067 117.626 18.16C117.253 17.8 117.066 17.36 117.066 16.84C117.066 16.3067 117.253 15.8667 117.626 15.52C118.013 15.16 118.506 14.98 119.106 14.98C119.693 14.98 120.173 15.16 120.546 15.52C120.933 15.8667 121.126 16.3067 121.126 16.84C121.126 17.36 120.933 17.8 120.546 18.16C120.173 18.5067 119.693 18.68 119.106 18.68ZM120.806 19.84V31H117.386V19.84H120.806ZM122.605 25.4C122.605 24.2533 122.818 23.2467 123.245 22.38C123.685 21.5133 124.278 20.8467 125.025 20.38C125.772 19.9133 126.605 19.68 127.525 19.68C128.258 19.68 128.925 19.8333 129.525 20.14C130.138 20.4467 130.618 20.86 130.965 21.38V16.2H134.385V31H130.965V29.4C130.645 29.9333 130.185 30.36 129.585 30.68C128.998 31 128.312 31.16 127.525 31.16C126.605 31.16 125.772 30.9267 125.025 30.46C124.278 29.98 123.685 29.3067 123.245 28.44C122.818 27.56 122.605 26.5467 122.605 25.4ZM130.965 25.42C130.965 24.5667 130.725 23.8933 130.245 23.4C129.778 22.9067 129.205 22.66 128.525 22.66C127.845 22.66 127.265 22.9067 126.785 23.4C126.318 23.88 126.085 24.5467 126.085 25.4C126.085 26.2533 126.318 26.9333 126.785 27.44C127.265 27.9333 127.845 28.18 128.525 28.18C129.205 28.18 129.778 27.9333 130.245 27.44C130.725 26.9467 130.965 26.2733 130.965 25.42ZM147.379 25.24C147.379 25.56 147.359 25.8933 147.319 26.24H139.579C139.632 26.9333 139.852 27.4667 140.239 27.84C140.639 28.2 141.126 28.38 141.699 28.38C142.552 28.38 143.146 28.02 143.479 27.3H147.119C146.932 28.0333 146.592 28.6933 146.099 29.28C145.619 29.8667 145.012 30.3267 144.279 30.66C143.546 30.9933 142.726 31.16 141.819 31.16C140.726 31.16 139.752 30.9267 138.899 30.46C138.046 29.9933 137.379 29.3267 136.899 28.46C136.419 27.5933 136.179 26.58 136.179 25.42C136.179 24.26 136.412 23.2467 136.879 22.38C137.359 21.5133 138.026 20.8467 138.879 20.38C139.732 19.9133 140.712 19.68 141.819 19.68C142.899 19.68 143.859 19.9067 144.699 20.36C145.539 20.8133 146.192 21.46 146.659 22.3C147.139 23.14 147.379 24.12 147.379 25.24ZM143.879 24.34C143.879 23.7533 143.679 23.2867 143.279 22.94C142.879 22.5933 142.379 22.42 141.779 22.42C141.206 22.42 140.719 22.5867 140.319 22.92C139.932 23.2533 139.692 23.7267 139.599 24.34H143.879ZM157.983 16.96V26.52C157.983 28 157.563 29.14 156.723 29.94C155.897 30.74 154.777 31.14 153.363 31.14C151.883 31.14 150.697 30.72 149.803 29.88C148.91 29.04 148.463 27.8467 148.463 26.3H151.863C151.863 26.8867 151.983 27.3333 152.223 27.64C152.463 27.9333 152.81 28.08 153.263 28.08C153.677 28.08 153.997 27.9467 154.223 27.68C154.45 27.4133 154.563 27.0267 154.563 26.52V16.96H157.983ZM165.826 31.14C164.799 31.14 163.879 30.9733 163.066 30.64C162.253 30.3067 161.599 29.8133 161.106 29.16C160.626 28.5067 160.373 27.72 160.346 26.8H163.986C164.039 27.32 164.219 27.72 164.526 28C164.833 28.2667 165.233 28.4 165.726 28.4C166.233 28.4 166.633 28.2867 166.926 28.06C167.219 27.82 167.366 27.4933 167.366 27.08C167.366 26.7333 167.246 26.4467 167.006 26.22C166.779 25.9933 166.493 25.8067 166.146 25.66C165.813 25.5133 165.333 25.3467 164.706 25.16C163.799 24.88 163.059 24.6 162.486 24.32C161.913 24.04 161.419 23.6267 161.006 23.08C160.593 22.5333 160.386 21.82 160.386 20.94C160.386 19.6333 160.859 18.6133 161.806 17.88C162.753 17.1333 163.986 16.76 165.506 16.76C167.053 16.76 168.299 17.1333 169.246 17.88C170.193 18.6133 170.699 19.64 170.766 20.96H167.066C167.039 20.5067 166.873 20.1533 166.566 19.9C166.259 19.6333 165.866 19.5 165.386 19.5C164.973 19.5 164.639 19.6133 164.386 19.84C164.133 20.0533 164.006 20.3667 164.006 20.78C164.006 21.2333 164.219 21.5867 164.646 21.84C165.073 22.0933 165.739 22.3667 166.646 22.66C167.553 22.9667 168.286 23.26 168.846 23.54C169.419 23.82 169.913 24.2267 170.326 24.76C170.739 25.2933 170.946 25.98 170.946 26.82C170.946 27.62 170.739 28.3467 170.326 29C169.926 29.6533 169.339 30.1733 168.566 30.56C167.793 30.9467 166.879 31.14 165.826 31.14Z" fill="black"/>
</g>
<defs>
<linearGradient id="paint0_linear_5039_1060" x1="25.8906" y1="23.7275" x2="44.1666" y2="23.7275" gradientUnits="userSpaceOnUse">
<stop stop-color="#C0E900"/>
<stop offset="1" stop-color="#00C3F3"/>
</linearGradient>
<linearGradient id="paint1_linear_5039_1060" x1="41.6504" y1="23.9" x2="68.2957" y2="23.9" gradientUnits="userSpaceOnUse">
<stop stop-color="#C0E900"/>
<stop offset="1" stop-color="#00C3F3"/>
</linearGradient>
<clipPath id="clip0_5039_1060">
<rect width="48" height="48" fill="white" transform="translate(20.3691)"/>
</clipPath>
</defs>
</svg>
