<svg width="24" height="24" viewBox="0 0 24 24" fill="none" xmlns="http://www.w3.org/2000/svg">
<g clip-path="url(#clip0_6050_8949)">
<path d="M18.2182 1.92487C21.6138 4.02234 23.8765 7.77812 23.8765 12.0624C23.8765 18.6384 18.5455 23.9693 11.9695 23.9693C10.5354 23.9693 9.1606 23.7158 7.88773 23.2508L7.75174 23.2002L7.97318 23.1291L8.25783 23.0357L8.39827 22.9888L8.53745 22.9417L8.81204 22.8471L9.0816 22.7519L9.34614 22.6561L9.60565 22.5596L9.73352 22.5111L9.9855 22.4137C10.2516 22.3094 10.5091 22.204 10.7581 22.0975L10.9432 22.0174L11.1701 21.9166C11.2698 21.8717 11.368 21.8266 11.4648 21.7813L11.6088 21.7131L11.8206 21.6103L11.9246 21.5587L12.0274 21.5068L12.2292 21.4027C13.9233 20.514 15.0743 19.5487 15.6854 18.4903C16.9801 16.2477 15.8493 13.8512 12.6032 11.4081L12.3391 11.21L12.1786 11.0869L12.0228 10.9648L11.8717 10.8436L11.7252 10.7234L11.6537 10.6636L11.5833 10.604L11.446 10.4856L11.3461 10.3974L11.2487 10.3097L11.1229 10.1935L11.0016 10.0783L10.8849 9.96397L10.8282 9.90713L10.7727 9.85052L10.6649 9.73796C9.38176 8.37387 9.09522 7.20612 9.67777 6.19711C9.97428 5.68355 10.4883 5.17865 11.219 4.68692L11.3077 4.62798L11.4474 4.53808C11.5106 4.49819 11.5752 4.45839 11.6413 4.41868L11.7415 4.3592L11.8958 4.27023L12.0549 4.18159L12.1775 4.11533L12.3028 4.04926L12.4741 3.96146C12.6044 3.89573 12.7387 3.83031 12.8772 3.76518L13.0171 3.70016L13.2078 3.61378L13.305 3.57073L13.503 3.48491L13.6038 3.44214L13.809 3.3569L13.9135 3.31442L14.126 3.22976L14.2341 3.18759L14.4539 3.10353L14.6785 3.01988L14.7926 2.97821L15.0245 2.89519L15.2613 2.81259L15.5028 2.73042L15.6254 2.6895L15.8743 2.60799L16.1279 2.52692L16.3864 2.4463L16.6497 2.36615L16.9179 2.28646L17.2599 2.1875L17.6094 2.0893L18.0388 1.97246L18.2182 1.92487ZM11.9695 0.155396C13.4175 0.155396 14.8051 0.413867 16.0888 0.887189L16.2259 0.938722L16.1389 0.965045L15.7148 1.09577L15.576 1.13969L15.302 1.22803L15.033 1.31706L14.769 1.40679L14.51 1.49721L14.2559 1.58834L14.1308 1.63418L13.8234 1.74954L13.5238 1.86604L13.2897 1.96006L13.1746 2.00735L12.948 2.10248C10.6322 3.08934 9.11456 4.19588 8.38881 5.45292C7.1221 7.64692 8.27103 10.0121 11.5174 12.4546L11.7816 12.6527L11.942 12.7758L12.0977 12.8981L12.1738 12.9589L12.3225 13.0798L12.431 13.1699L12.5368 13.2596L12.6739 13.3784L12.7407 13.4374L12.8708 13.5549C12.9418 13.62 13.0107 13.6846 13.0775 13.7489L13.176 13.845L13.3179 13.988L13.4528 14.1298C14.7305 15.5034 15.0036 16.6945 14.3964 17.7461C14.0035 18.4266 13.2535 19.0964 12.1479 19.7467L12.0464 19.8058L11.8819 19.8989L11.7125 19.9918C11.6171 20.0434 11.5193 20.0948 11.4194 20.146L11.2677 20.2228L11.0812 20.3147L10.8898 20.4063L10.6935 20.4975L10.5935 20.543L10.3899 20.6338L10.1813 20.7243L9.96795 20.8144L9.85942 20.8593L9.6387 20.9489L9.5265 20.9936L9.41309 21.0382L9.1826 21.1271L8.94723 21.2156L8.70698 21.3038L8.46185 21.3916L8.21184 21.479L8.08501 21.5226L7.82769 21.6095L7.6972 21.6527L7.43257 21.739L7.16306 21.8249L6.81933 21.9316L6.46798 22.0377L6.18143 22.1221L5.78151 22.2372C2.35221 20.1471 0.0625 16.3721 0.0625 12.0624C0.0625 5.48633 5.39343 0.155396 11.9695 0.155396Z" fill="#0080FF"/>
</g>
<defs>
<clipPath id="clip0_6050_8949">
<rect width="24" height="24" fill="white"/>
</clipPath>
</defs>
</svg>
