<svg width="256" height="256" viewBox="0 0 256 256" fill="none" xmlns="http://www.w3.org/2000/svg">
<g clip-path="url(#clip0_4796_3152)">
<path d="M159.366 86.5356C155.957 80.294 151.079 75.4685 144.732 72.164C138.386 68.8596 130.938 67.1812 122.336 67.1812C107.492 67.1812 95.5858 72.0591 86.6691 81.815C77.7525 91.5709 73.2417 104.579 73.2417 120.839C73.2417 137.098 77.9098 151.732 87.2985 161.488C96.6872 171.244 109.59 176.122 126.06 176.122C142.529 176.122 146.83 173.237 154.645 167.52C162.408 161.803 168.125 153.568 171.692 142.816H113.472V109.037H213.286V151.68C209.876 163.114 204.107 173.762 195.977 183.622C187.847 193.483 177.514 201.403 164.978 207.488C152.442 213.572 138.333 216.614 122.598 216.614C106.863 216.614 87.4034 212.523 72.8221 204.393C58.2407 196.263 46.9114 184.934 38.729 170.457C30.5991 155.981 26.5604 139.459 26.5604 120.839C26.5604 102.218 30.5991 85.644 38.7815 71.0626C46.9114 56.4812 58.2407 45.1518 72.7172 36.9694C87.1936 28.892 103.716 24.8008 122.336 24.8008C140.956 24.8008 163.877 30.2557 179.35 41.1655C194.823 52.0753 205.051 67.1812 210.086 86.5356H159.366Z" fill="#727597"/>
<path d="M159.734 86.8523C156.325 80.6107 151.447 75.7852 145.1 72.4807C138.754 69.1763 131.306 67.4979 122.704 67.4979C107.86 67.4979 95.9537 72.3758 87.037 82.1317C78.1204 91.8876 73.6096 104.895 73.6096 121.155C73.6096 137.415 78.2777 152.049 87.6664 161.805C97.0552 171.561 109.958 176.439 126.428 176.439C142.897 176.439 147.198 173.554 155.013 167.837C162.776 162.12 168.493 153.885 172.06 143.132H113.839V109.354H213.653V151.996C210.244 163.431 204.475 174.078 196.345 183.939C188.215 193.8 177.882 201.72 165.346 207.804C152.81 213.889 138.701 216.931 122.966 216.931C107.231 216.931 87.7714 212.84 73.19 204.71C58.6087 196.58 47.2793 185.25 39.0969 170.774C31.0195 156.35 26.9283 139.775 26.9283 121.208C26.9283 102.64 30.9671 86.0131 39.1494 71.4317C47.2793 56.8503 58.6087 45.5209 73.0851 37.3386C87.5615 29.2086 104.136 25.1699 122.704 25.1699C141.271 25.1699 164.245 30.6248 179.718 41.5346C195.191 52.4445 205.419 67.5503 210.454 86.9048H159.734V86.8523Z" fill="#727597"/>
<path d="M160.154 87.2182C156.744 80.9766 151.866 76.1511 145.52 72.8467C139.173 69.5422 131.725 67.8638 123.123 67.8638C108.28 67.8638 96.3734 72.7418 87.4567 82.4976C78.5401 92.2535 74.0293 105.261 74.0293 121.521C74.0293 137.781 78.6974 152.415 88.0861 162.171C97.4748 171.927 110.378 176.805 126.847 176.805C143.317 176.805 147.618 173.92 155.433 168.203C163.196 162.485 168.913 154.251 172.48 143.498H114.259V109.72H214.073V152.362C210.664 163.797 204.894 174.444 196.764 184.305C188.634 194.166 178.302 202.086 165.766 208.17C153.23 214.255 139.121 217.297 123.386 217.297C107.65 217.297 88.191 213.206 73.6097 205.076C59.0283 196.946 47.699 185.616 39.5166 171.14C31.3867 156.716 27.348 140.141 27.348 121.521C27.348 102.901 31.3867 86.3266 39.5691 71.7452C47.699 57.1638 59.0283 45.8344 73.5048 37.652C87.9812 29.5746 104.503 25.4834 123.123 25.4834C141.743 25.4834 164.664 30.9383 180.137 41.8481C195.61 52.7579 205.838 67.8638 210.874 87.2182H160.154Z" fill="#727597"/>
<path d="M160.52 87.5845C157.111 81.3428 152.233 76.5173 145.886 73.2129C139.54 69.9085 132.092 68.23 123.49 68.23C108.646 68.23 96.7398 73.108 87.8232 82.8639C78.9065 92.6197 74.3957 105.628 74.3957 121.887C74.3957 138.147 79.0639 152.781 88.4526 162.537C97.8413 172.293 110.744 177.171 127.214 177.171C143.683 177.171 147.984 174.286 155.799 168.569C163.562 162.852 169.279 154.617 172.846 143.864H114.626V110.086H214.44V152.729C211.03 164.163 205.261 174.81 197.131 184.671C189.001 194.532 178.668 202.452 166.132 208.536C153.597 214.621 139.487 217.663 123.752 217.663C108.017 217.663 88.5575 213.572 73.9761 205.442C59.3948 197.312 48.0654 185.983 39.883 171.506C31.7532 157.03 27.662 140.455 27.662 121.887C27.662 103.32 31.7007 86.6928 39.883 72.1114C48.0129 57.53 59.3423 46.2006 73.8188 38.0182C88.3477 29.9408 104.87 25.8496 123.49 25.8496C142.11 25.8496 165.031 31.3045 180.504 42.2143C195.977 53.1241 206.205 68.23 211.24 87.5845H160.52Z" fill="#727597"/>
<path d="M160.887 87.9016C157.478 81.66 152.6 76.8345 146.253 73.5301C139.907 70.2256 132.459 68.5472 123.857 68.5472C109.013 68.5472 97.107 73.4252 88.1903 83.181C79.2737 92.9369 74.7629 105.945 74.7629 122.205C74.7629 138.464 79.431 153.098 88.8197 162.854C98.2085 172.61 111.111 177.488 127.581 177.488C144.051 177.488 148.352 174.603 156.167 168.886C163.929 163.169 169.647 154.934 173.213 144.182H114.993V110.403H214.807V153.046C211.397 164.48 205.628 175.128 197.498 184.988C189.368 194.849 179.035 202.769 166.5 208.854C153.964 214.938 139.854 217.98 124.119 217.98C108.384 217.98 88.9246 213.889 74.3433 205.759C59.762 197.629 48.4326 186.3 40.2502 171.823C32.1203 157.347 28.0292 140.772 28.0292 122.205C28.0292 103.637 32.0679 87.01 40.2502 72.4286C48.3801 57.8472 59.7095 46.5178 74.186 38.3354C88.7148 30.258 105.289 26.2192 123.909 26.2192C142.529 26.2192 165.45 31.6741 180.923 42.584C196.397 53.4938 206.624 68.5997 211.66 87.9541H160.94L160.887 87.9016Z" fill="#727597"/>
<path d="M161.307 88.2676C157.898 82.0259 153.02 77.2004 146.673 73.896C140.326 70.5916 132.878 68.9131 124.277 68.9131C109.433 68.9131 97.5266 73.7911 88.6099 83.547C79.6933 93.3029 75.1825 106.311 75.1825 122.571C75.1825 138.83 79.8506 153.464 89.2393 163.22C98.628 172.976 111.531 177.854 128.001 177.854C144.47 177.854 148.771 174.969 156.586 169.252C164.349 163.535 170.066 155.3 173.633 144.547H115.412V110.769H215.226V153.412C211.817 164.846 206.047 175.494 197.918 185.354C189.788 195.215 179.455 203.135 166.919 209.22C154.383 215.304 140.274 218.346 124.539 218.346C108.803 218.346 89.3442 214.255 74.7629 206.125C60.1815 197.995 48.8522 186.666 40.6698 172.189C32.4875 157.713 28.5012 141.191 28.5012 122.571C28.5012 103.95 32.5399 87.3759 40.7223 72.7945C48.8522 58.2131 60.1815 46.8837 74.658 38.7014C89.1344 30.6239 105.656 26.5327 124.277 26.5327C142.897 26.5327 165.818 31.9876 181.291 42.8974C196.764 53.8072 206.992 68.9131 212.027 88.2676H161.307Z" fill="#727597"/>
<path d="M161.675 88.634C158.265 82.3923 153.387 77.5668 147.041 74.2624C140.694 70.958 133.246 69.2795 124.644 69.2795C109.801 69.2795 97.8943 74.1575 88.9777 83.9134C80.061 93.6693 75.5503 106.677 75.5503 122.937C75.5503 139.197 80.2184 153.831 89.6071 163.586C98.9958 173.342 111.899 178.22 128.368 178.22C144.838 178.22 149.139 175.335 156.954 169.618C164.717 163.901 170.434 155.666 174.001 144.914H115.78V111.135H215.594V153.778C212.185 165.212 206.415 175.86 198.285 185.721C190.155 195.582 179.823 203.502 167.287 209.586C154.751 215.67 140.642 218.712 124.907 218.712C109.171 218.712 89.712 214.621 75.1307 206.491C60.5493 198.361 49.2199 187.032 41.0376 172.556C32.9077 158.079 28.8165 141.505 28.8165 122.937C28.8165 104.369 32.8552 87.7423 41.0376 73.1609C49.1675 58.5795 60.4969 47.2501 74.9733 39.0678C89.4497 30.9379 105.972 26.8467 124.592 26.8467C143.212 26.8467 166.133 32.3016 181.606 43.2114C197.079 54.1212 207.307 69.2271 212.342 88.5815H161.622L161.675 88.634Z" fill="#727597"/>
<path d="M162.093 88.9504C158.684 82.7087 153.806 77.8832 147.46 74.5788C141.113 71.2744 133.665 69.5959 125.063 69.5959C110.22 69.5959 98.3132 74.4739 89.3965 84.2298C80.4799 93.9857 75.9691 106.994 75.9691 123.253C75.9691 139.513 80.6372 154.147 90.0259 163.903C99.4146 173.659 112.318 178.537 128.787 178.537C145.257 178.537 149.558 175.652 157.373 169.935C165.136 164.218 170.853 155.983 174.419 145.23H116.199V111.452H216.013V154.095C212.604 165.529 206.834 176.176 198.704 186.037C190.574 195.898 180.241 203.818 167.706 209.902C155.17 215.987 141.061 219.029 125.325 219.029C109.59 219.029 90.1308 214.938 75.5495 206.808C60.9681 198.678 49.6387 187.348 41.4564 172.872C33.3265 158.395 29.2354 141.821 29.2354 123.253C29.2354 104.686 33.2741 88.0587 41.4564 73.4773C49.5863 58.8959 60.9157 47.5665 75.3921 39.3842C89.8686 31.2543 106.391 27.1631 125.011 27.1631C143.631 27.1631 166.552 32.618 182.025 43.5278C197.498 54.4376 207.726 69.5435 212.761 88.8979H162.041L162.093 88.9504Z" fill="#727597"/>
<path d="M162.461 89.3166C159.051 83.0749 154.174 78.2494 147.827 74.945C141.48 71.6406 134.032 69.9622 125.43 69.9622C110.587 69.9622 98.6805 74.8401 89.7638 84.596C80.8472 94.3519 76.3364 107.36 76.3364 123.62C76.3364 139.879 81.0045 154.513 90.3933 164.269C99.782 174.025 112.685 178.903 129.154 178.903C145.624 178.903 149.925 176.018 157.74 170.301C165.503 164.584 171.22 156.349 174.787 145.597H116.566V111.818H216.38V154.461C212.971 165.895 207.201 176.543 199.071 186.403C190.942 196.264 180.609 204.184 168.073 210.269C155.537 216.353 141.428 219.395 125.693 219.395C109.957 219.395 90.4982 215.304 75.9168 207.174C61.3355 199.044 50.0061 187.715 41.8238 173.238C33.6414 158.762 29.6552 142.24 29.6552 123.62C29.6552 104.999 33.6939 88.4249 41.8762 73.8435C50.0061 59.2622 61.3355 47.9327 75.8119 39.7504C90.2884 31.6205 106.81 27.5293 125.43 27.5293C144.05 27.5293 166.972 32.9842 182.445 43.894C197.918 54.8038 208.145 69.9097 213.181 89.2641H162.461V89.3166Z" fill="#727597"/>
<path d="M162.828 89.6828C159.419 83.4411 154.541 78.6156 148.194 75.3112C141.847 72.0068 134.399 70.3284 125.797 70.3284C110.954 70.3284 99.0475 75.2063 90.1309 84.9622C81.2142 94.7181 76.7035 107.726 76.7035 123.986C76.7035 140.246 81.3716 154.879 90.7603 164.635C100.149 174.391 113.052 179.269 129.522 179.269C145.991 179.269 150.292 176.384 158.107 170.667C165.87 164.95 171.587 156.715 175.154 145.963H116.933V112.184H216.747V154.827C213.338 166.261 207.568 176.909 199.439 186.77C191.309 196.63 180.976 204.55 168.44 210.635C155.904 216.719 141.795 219.761 126.06 219.761C110.324 219.761 90.8652 215.67 76.2839 207.54C61.7025 199.41 50.3731 188.081 42.1908 173.604C34.0609 159.128 29.9697 142.553 29.9697 123.986C29.9697 105.418 34.0084 88.7911 42.1908 74.2097C50.3207 59.6284 61.6501 48.2989 76.1265 40.1166C90.6029 31.9867 107.125 27.8955 125.745 27.8955C144.365 27.8955 167.286 33.3504 182.759 44.2602C198.232 55.17 208.46 70.2759 213.495 89.6303H162.775L162.828 89.6828Z" fill="#727597"/>
<path d="M163.248 90.0002C159.839 83.7585 154.961 78.933 148.614 75.6286C142.268 72.3242 134.82 70.6458 126.218 70.6458C111.374 70.6458 99.4678 75.5237 90.5512 85.2796C81.6345 95.0355 77.1238 108.043 77.1238 124.303C77.1238 140.563 81.7919 155.197 91.1806 164.953C100.569 174.709 113.472 179.586 129.942 179.586C146.411 179.586 150.712 176.702 158.528 170.985C166.29 165.267 172.007 157.033 175.574 146.28H117.354V112.502H217.168V155.144C213.758 166.579 207.989 177.226 199.859 187.087C191.729 196.948 181.396 204.868 168.86 210.952C156.325 217.036 142.215 220.079 126.48 220.079C110.745 220.079 91.2855 215.987 76.7041 207.858C62.1228 199.728 50.7934 188.398 42.6111 173.922C34.4812 159.445 30.39 142.871 30.39 124.303C30.39 105.735 34.4287 89.1085 42.6111 74.5271C50.741 59.9457 62.0703 48.6163 76.5468 40.434C91.0232 32.3041 107.545 28.2129 126.165 28.2129C144.785 28.2129 167.706 33.6678 183.179 44.5776C198.652 55.4874 208.88 70.5933 213.916 89.9477H163.196L163.248 90.0002Z" fill="#727597"/>
<path d="M163.615 90.3659C160.206 84.1242 155.328 79.2987 148.982 75.9943C142.635 72.6899 135.187 71.0115 126.585 71.0115C111.741 71.0115 99.8351 75.8894 90.9185 85.6453C82.0018 95.4012 77.4911 108.409 77.4911 124.669C77.4911 140.929 82.1592 155.562 91.5479 165.318C100.937 175.074 113.84 179.952 130.309 179.952C146.779 179.952 151.08 177.067 158.895 171.35C166.658 165.633 172.375 157.398 175.941 146.646H117.721V112.867H217.535V155.51C214.126 166.944 208.356 177.592 200.226 187.453C192.096 197.313 181.763 205.234 169.228 211.318C156.692 217.402 142.583 220.444 126.847 220.444C111.112 220.444 91.6528 216.353 77.0715 208.223C62.4901 200.093 51.1607 188.764 42.9784 174.287C34.8485 159.811 30.7573 143.237 30.7573 124.669C30.7573 106.101 34.796 89.4742 42.9784 74.8929C51.1083 60.3115 62.4377 48.9821 76.9141 40.7997C91.3905 32.6698 107.913 28.5786 126.533 28.5786C145.153 28.5786 168.074 34.0335 183.547 44.9433C199.02 55.8531 209.248 70.959 214.283 90.3134H163.563L163.615 90.3659Z" fill="#727597"/>
<path d="M163.982 90.7321C160.573 84.4904 155.695 79.6649 149.348 76.3605C143.002 73.0561 135.554 71.3777 126.952 71.3777C112.108 71.3777 100.202 76.2556 91.2852 86.0115C82.3685 95.7674 77.8578 108.775 77.8578 125.035C77.8578 141.295 82.5259 155.929 91.9146 165.685C101.303 175.44 114.206 180.318 130.676 180.318C147.145 180.318 151.446 177.434 159.262 171.716C167.024 165.999 172.741 157.764 176.308 147.012H118.088V113.234H217.902V155.876C214.492 167.311 208.723 177.958 200.593 187.819C192.463 197.68 182.13 205.6 169.594 211.684C157.059 217.768 142.949 220.811 127.214 220.811C111.479 220.811 92.0195 216.719 77.4382 208.59C62.8568 200.46 51.5274 189.13 43.3451 174.654C35.1627 160.177 31.124 143.603 31.124 125.035C31.124 106.467 35.1627 89.8404 43.3451 75.2591C51.475 60.6777 62.8044 49.3483 77.2808 41.1659C91.7572 33.036 108.279 28.9448 126.899 28.9448C145.519 28.9448 168.44 34.3997 183.913 45.3095C199.386 56.2193 209.614 71.3252 214.65 90.6797H163.93L163.982 90.7321Z" fill="#727597"/>
<path d="M164.401 91.0475C160.992 84.8059 156.114 79.9804 149.767 76.676C143.421 73.3715 135.973 71.6931 127.371 71.6931C112.527 71.6931 100.621 76.5711 91.7043 86.3269C82.7876 96.0828 78.2768 109.091 78.2768 125.35C78.2768 141.61 82.945 156.244 92.3337 166C101.722 175.756 114.625 180.634 131.095 180.634C147.564 180.634 151.865 177.749 159.681 172.032C167.443 166.315 173.16 158.08 176.727 147.327H118.507V113.549H218.321V156.192C214.911 167.626 209.142 178.274 201.012 188.134C192.882 197.995 182.549 205.915 170.013 212C157.478 218.084 143.368 221.126 127.633 221.126C111.898 221.126 92.4386 217.035 77.8572 208.905C63.2759 200.775 51.9465 189.446 43.7641 174.969C35.6343 160.493 31.5431 143.918 31.5431 125.35C31.5431 106.783 35.5818 90.1559 43.7641 75.5745C51.894 60.9931 63.2234 49.6637 77.6999 41.4813C92.1763 33.3514 108.698 29.2603 127.318 29.2603C145.938 29.2603 168.859 34.7152 184.333 45.625C199.806 56.5348 210.033 71.6407 215.069 90.9951H164.349L164.401 91.0475Z" fill="#727597"/>
<path d="M164.769 91.4137C161.359 85.1721 156.481 80.3466 150.135 77.0422C143.788 73.7378 136.34 72.0593 127.738 72.0593C112.895 72.0593 100.988 76.9373 92.0718 86.6932C83.1552 96.449 78.6444 109.457 78.6444 125.717C78.6444 141.977 83.3125 156.61 92.7012 166.366C102.09 176.122 114.993 181 131.462 181C147.932 181 152.233 178.115 160.048 172.398C167.811 166.681 173.528 158.446 177.095 147.694H118.874V113.915H218.688V156.558C215.279 167.992 209.509 178.64 201.379 188.501C193.25 198.361 182.917 206.281 170.381 212.366C157.845 218.45 143.736 221.492 128.001 221.492C112.265 221.492 92.8061 217.401 78.2248 209.271C63.6434 201.141 52.314 189.812 44.1317 175.335C36.0018 160.859 31.9106 144.284 31.9106 125.717C31.9106 107.149 35.9494 90.5221 44.1317 75.9407C52.2616 61.3593 63.591 50.0299 78.0674 41.8475C92.5439 33.7176 109.066 29.6265 127.686 29.6265C146.306 29.6265 169.227 35.0814 184.7 45.9912C200.173 56.901 210.401 72.0069 215.436 91.3613H164.716L164.769 91.4137Z" fill="#727597"/>
<path d="M165.189 91.7829C161.779 85.5412 156.901 80.7157 150.555 77.4113C144.208 74.1069 136.76 72.4285 128.158 72.4285C113.315 72.4285 101.408 77.3064 92.4917 87.0623C83.5751 96.8182 79.0643 109.826 79.0643 126.086C79.0643 142.346 83.7324 156.979 93.1211 166.735C102.51 176.491 115.413 181.369 131.882 181.369C148.352 181.369 152.653 178.484 160.468 172.767C168.231 167.05 173.948 158.815 177.515 148.063H119.294V114.284H219.108V156.927C215.699 168.361 209.929 179.009 201.799 188.87C193.669 198.73 183.337 206.651 170.801 212.735C158.265 218.819 144.156 221.861 128.421 221.861C112.685 221.861 93.226 217.77 78.6447 209.64C64.0634 201.51 52.734 190.181 44.5516 175.705C36.3693 161.228 32.3306 144.654 32.3306 126.086C32.3306 107.518 36.3693 90.8912 44.5516 76.3098C52.6815 61.7285 64.0109 50.399 78.4873 42.2167C92.9638 34.0868 109.486 29.9956 128.106 29.9956C146.726 29.9956 169.647 35.4505 185.12 46.3603C200.593 57.2701 210.821 72.376 215.856 91.7304H165.136L165.189 91.7829Z" fill="#727597"/>
<path d="M165.556 92.0973C162.146 85.8557 157.268 81.0302 150.922 77.7258C144.575 74.4214 137.127 72.7429 128.525 72.7429C113.682 72.7429 101.775 77.6209 92.8587 87.3768C83.942 97.1326 79.4313 110.14 79.4313 126.4C79.4313 142.66 84.0994 157.294 93.4881 167.05C102.877 176.806 115.78 181.684 132.249 181.684C148.719 181.684 153.02 178.799 160.835 173.082C168.598 167.365 174.315 159.13 177.882 148.377H119.661V114.599H219.475V157.241C216.066 168.676 210.296 179.323 202.166 189.184C194.036 199.045 183.704 206.965 171.168 213.049C158.632 219.134 144.523 222.176 128.788 222.176C113.052 222.176 93.593 218.085 79.0116 209.955C64.4303 201.825 53.1009 190.495 44.9186 176.019C36.7362 161.542 32.6975 144.968 32.6975 126.4C32.6975 107.833 36.7362 91.2057 44.9186 76.6243C53.0485 62.0429 64.3778 50.7135 78.8543 42.5311C93.3307 34.4012 109.853 30.3101 128.473 30.3101C147.093 30.3101 170.014 35.765 185.487 46.6748C200.96 57.5846 211.188 72.6905 216.223 92.0449H165.503L165.556 92.0973Z" fill="#727597"/>
<path d="M165.922 92.4636C162.513 86.2219 157.635 81.3964 151.289 78.092C144.942 74.7876 137.494 73.1091 128.892 73.1091C114.049 73.1091 102.142 77.9871 93.2255 87.743C84.3088 97.4988 79.7981 110.507 79.7981 126.767C79.7981 143.026 84.4662 157.66 93.8549 167.416C103.244 177.172 116.147 182.05 132.616 182.05C149.086 182.05 153.387 179.165 161.202 173.448C168.965 167.731 174.682 159.496 178.248 148.743H120.028V114.965H219.842V157.608C216.433 169.042 210.663 179.69 202.533 189.55C194.403 199.411 184.07 207.331 171.535 213.416C158.999 219.5 144.89 222.542 129.154 222.542C113.419 222.542 93.9598 218.451 79.3785 210.321C64.7971 202.191 53.4677 190.862 45.2854 176.385C37.1555 161.909 33.0643 145.334 33.0643 126.767C33.0643 108.199 37.103 91.5719 45.2854 76.9905C53.4153 62.4091 64.7447 51.0797 79.2211 42.8974C93.6976 34.7674 110.22 30.6763 128.84 30.6763C147.46 30.6763 170.381 36.1312 185.854 47.041C201.327 57.9508 211.555 73.0567 216.59 92.4111H165.87L165.922 92.4636Z" fill="#727597"/>
<path d="M166.342 92.8317C162.933 86.59 158.055 81.7646 151.708 78.4601C145.362 75.1557 137.914 73.4773 129.312 73.4773C114.468 73.4773 102.562 78.3552 93.6451 88.1111C84.7284 97.867 80.2176 110.875 80.2176 127.135C80.2176 143.394 84.8858 158.028 94.2745 167.784C103.663 177.54 116.566 182.418 133.036 182.418C149.505 182.418 153.806 179.533 161.621 173.816C169.384 168.099 175.101 159.864 178.668 149.112H120.447V115.333H220.261V157.976C216.852 169.41 211.083 180.058 202.953 189.919C194.823 199.779 184.49 207.699 171.954 213.784C159.418 219.868 145.309 222.91 129.574 222.91C113.839 222.91 94.3794 218.819 79.798 210.689C65.2167 202.559 53.8873 191.23 45.7049 176.753C37.5226 162.277 33.4839 145.702 33.4839 127.135C33.4839 108.567 37.5226 91.94 45.7049 77.3587C53.8348 62.7773 65.1642 51.4479 79.6407 43.2655C94.1171 35.1356 110.639 31.0444 129.259 31.0444C147.879 31.0444 170.8 36.4993 186.273 47.4091C201.746 58.319 211.974 73.4248 217.01 92.7793H166.29L166.342 92.8317Z" fill="#727597"/>
<path d="M166.71 93.1457C163.3 86.904 158.423 82.0785 152.076 78.7741C145.729 75.4697 138.281 73.7913 129.679 73.7913C114.836 73.7913 102.93 78.6692 94.0129 88.4251C85.0962 98.181 80.5854 111.189 80.5854 127.449C80.5854 143.708 85.2536 158.342 94.6423 168.098C104.031 177.854 116.934 182.732 133.403 182.732C149.873 182.732 154.174 179.847 161.989 174.13C169.752 168.413 175.469 160.178 179.036 149.426H120.815V115.647H220.629V158.29C217.22 169.724 211.45 180.372 203.32 190.232C195.191 200.093 184.858 208.013 172.322 214.098C159.786 220.182 145.677 223.224 129.942 223.224C114.206 223.224 94.7472 219.133 80.1658 211.003C65.5845 202.873 54.2551 191.544 46.0727 177.067C37.8904 162.591 33.8517 146.016 33.8517 127.449C33.8517 108.881 37.8904 92.254 46.0727 77.6726C54.2026 63.0913 65.532 51.7618 80.0085 43.5795C94.4849 35.4496 111.007 31.3584 129.627 31.3584C148.247 31.3584 171.168 36.8133 186.641 47.7231C202.114 58.6329 212.342 73.7388 217.377 93.0932H166.657L166.71 93.1457Z" fill="#727597"/>
<path d="M167.077 93.5109C163.668 87.2692 158.79 82.4438 152.443 79.1393C146.097 75.8349 138.649 74.1565 130.047 74.1565C115.203 74.1565 103.297 79.0344 94.38 88.7903C85.4634 98.5462 80.9526 111.554 80.9526 127.814C80.9526 144.074 85.6207 158.708 95.0094 168.463C104.398 178.219 117.301 183.097 133.771 183.097C150.24 183.097 154.541 180.212 162.356 174.495C170.119 168.778 175.836 160.543 179.403 149.791H121.182V116.012H220.996V158.655C217.587 170.089 211.818 180.737 203.688 190.598C195.558 200.459 185.225 208.379 172.689 214.463C160.153 220.547 146.044 223.589 130.309 223.589C114.574 223.589 95.1143 219.498 80.533 211.368C65.9517 203.238 54.6223 191.909 46.4399 177.433C38.2576 162.956 34.2189 146.382 34.2189 127.814C34.2189 109.246 38.2576 92.6192 46.4399 78.0379C54.5698 63.4565 65.8992 52.1271 80.3756 43.9447C94.8521 35.8148 111.374 31.7236 129.994 31.7236C148.614 31.7236 171.535 37.1785 187.008 48.0883C202.481 58.9982 212.709 74.104 217.745 93.4585H167.024L167.077 93.5109Z" fill="#727597"/>
<path d="M167.496 93.8796C164.087 87.6379 159.209 82.8124 152.862 79.508C146.516 76.2036 139.068 74.5251 130.466 74.5251C115.622 74.5251 103.716 79.4031 94.7991 89.159C85.8825 98.9149 81.3717 111.923 81.3717 128.183C81.3717 144.442 86.0398 159.076 95.4285 168.832C104.817 178.588 117.72 183.466 134.19 183.466C150.659 183.466 154.96 180.581 162.775 174.864C170.538 169.147 176.255 160.912 179.822 150.159H121.602V116.381H221.416V159.024C218.006 170.458 212.237 181.106 204.107 190.966C195.977 200.827 185.644 208.747 173.108 214.832C160.573 220.916 146.463 223.958 130.728 223.958C114.993 223.958 95.5334 219.867 80.9521 211.737C66.3707 203.607 55.0413 192.278 46.859 177.801C38.6767 163.325 34.6379 146.75 34.6379 128.183C34.6379 109.615 38.6767 92.9879 46.859 78.4065C54.9889 63.8251 66.3183 52.4957 80.7947 44.3134C95.2712 36.1835 111.793 32.0923 130.413 32.0923C149.033 32.0923 171.954 37.5472 187.427 48.457C202.9 59.3668 213.128 74.4727 218.164 93.8271H167.444L167.496 93.8796Z" fill="#727597"/>
<path d="M167.863 94.1955C164.453 87.9538 159.575 83.1283 153.229 79.8239C146.882 76.5195 139.434 74.8411 130.832 74.8411C115.989 74.8411 104.082 79.719 95.1658 89.4749C86.2492 99.2308 81.7384 112.239 81.7384 128.498C81.7384 144.758 86.4065 159.392 95.7952 169.148C105.184 178.904 118.087 183.782 134.556 183.782C151.026 183.782 155.327 180.897 163.142 175.18C170.905 169.463 176.622 161.228 180.189 150.475H121.968V116.697H221.782V159.34C218.373 170.774 212.603 181.421 204.473 191.282C196.344 201.143 186.011 209.063 173.475 215.147C160.939 221.232 146.83 224.274 131.095 224.274C115.359 224.274 95.9001 220.183 81.3188 212.053C66.7374 203.923 55.408 192.594 47.2257 178.117C39.0434 163.641 35.0046 147.066 35.0046 128.498C35.0046 109.931 39.0434 93.3038 47.2257 78.7224C55.3556 64.1411 66.685 52.8116 81.1614 44.6293C95.6379 36.4994 112.16 32.4082 130.78 32.4082C149.4 32.4082 172.321 37.8631 187.794 48.7729C203.267 59.6827 213.495 74.7886 218.53 94.143H167.81L167.863 94.1955Z" fill="#727597"/>
<path d="M168.283 94.5622C164.874 88.3205 159.996 83.495 153.649 80.1906C147.303 76.8862 139.855 75.2078 131.253 75.2078C116.409 75.2078 104.503 80.0857 95.586 89.8416C86.6693 99.5975 82.1585 112.605 82.1585 128.865C82.1585 145.125 86.8267 159.759 96.2154 169.515C105.604 179.271 118.507 184.148 134.977 184.148C151.446 184.148 155.747 181.264 163.562 175.547C171.325 169.829 177.042 161.595 180.609 150.842H122.388V117.064H222.202V159.706C218.793 171.141 213.023 181.788 204.894 191.649C196.764 201.51 186.431 209.43 173.895 215.514C161.359 221.599 147.25 224.641 131.515 224.641C115.78 224.641 96.3203 220.549 81.7389 212.42C67.1576 204.29 55.8282 192.96 47.6459 178.484C39.516 164.007 35.4248 147.433 35.4248 128.865C35.4248 110.297 39.4635 93.6705 47.6459 79.0891C55.7757 64.5078 67.1051 53.1783 81.5816 44.996C96.058 36.8661 112.58 32.7749 131.2 32.7749C149.82 32.7749 172.741 38.2298 188.214 49.1396C203.687 60.0494 213.915 75.1553 218.95 94.5097H168.23L168.283 94.5622Z" fill="#727597"/>
<path d="M168.65 94.9289C165.241 88.6872 160.363 83.8617 154.017 80.5573C147.67 77.2529 140.222 75.5745 131.62 75.5745C116.777 75.5745 104.87 80.4524 95.9535 90.2083C87.0369 99.9642 82.5261 112.972 82.5261 129.232C82.5261 145.492 87.1942 160.125 96.5829 169.881C105.972 179.637 118.875 184.515 135.344 184.515C151.814 184.515 156.115 181.63 163.93 175.913C171.693 170.196 177.41 161.961 180.976 151.209H122.756V117.43H222.57V160.073C219.161 171.507 213.391 182.155 205.261 192.016C197.131 201.876 186.798 209.797 174.263 215.881C161.727 221.965 147.618 225.007 131.882 225.007C116.147 225.007 96.6878 220.916 82.1065 212.786C67.5251 204.656 56.1958 193.327 48.0134 178.85C39.8311 164.374 35.7924 147.8 35.7924 129.232C35.7924 110.664 39.8311 94.0372 48.0134 79.4558C56.1433 64.8745 67.4727 53.545 81.9491 45.3627C96.4256 37.2328 112.948 33.1416 131.568 33.1416C150.188 33.1416 173.109 38.5965 188.582 49.5063C204.055 60.4161 214.283 75.522 219.318 94.8764H168.598L168.65 94.9289Z" fill="#727597"/>
<path d="M169.017 95.2433C165.608 89.0017 160.73 84.1762 154.383 80.8718C148.037 77.5673 140.589 75.8889 131.987 75.8889C117.143 75.8889 105.237 80.7669 96.3202 90.5227C87.4036 100.279 82.8928 113.286 82.8928 129.546C82.8928 145.806 87.5609 160.44 96.9496 170.196C106.338 179.952 119.241 184.83 135.711 184.83C152.18 184.83 156.481 181.945 164.297 176.228C172.059 170.511 177.776 162.276 181.343 151.523H123.123V117.745H222.937V160.387C219.527 171.822 213.758 182.469 205.628 192.33C197.498 202.191 187.165 210.111 174.629 216.195C162.094 222.28 147.984 225.322 132.249 225.322C116.514 225.322 97.0545 221.231 82.4732 213.101C67.8918 204.971 56.5625 193.641 48.3801 179.165C40.1978 164.688 36.1591 148.114 36.1591 129.546C36.1591 110.979 40.1978 94.3517 48.3801 79.7703C56.51 65.1889 67.8394 53.8595 82.3158 45.6771C96.7923 37.5472 113.314 33.4561 131.934 33.4561C150.554 33.4561 173.475 38.911 188.948 49.8208C204.422 60.7306 214.649 75.8365 219.685 95.1909H168.965L169.017 95.2433Z" fill="#727597"/>
<path d="M169.437 95.6105C166.027 89.3689 161.149 84.5434 154.803 81.2389C148.456 77.9345 141.008 76.2561 132.406 76.2561C117.563 76.2561 105.656 81.134 96.7397 90.8899C87.823 100.646 83.3122 113.654 83.3122 129.913C83.3122 146.173 87.9804 160.807 97.3691 170.563C106.758 180.319 119.661 185.197 136.13 185.197C152.6 185.197 156.901 182.312 164.716 176.595C172.479 170.878 178.196 162.643 181.763 151.89H123.542V118.112H223.356V160.755C219.947 172.189 214.177 182.837 206.047 192.697C197.917 202.558 187.585 210.478 175.049 216.563C162.513 222.647 148.404 225.689 132.669 225.689C116.933 225.689 97.474 221.598 82.8926 213.468C68.3113 205.338 56.9819 194.009 48.7995 179.532C40.6172 165.056 36.5785 148.481 36.5785 129.913C36.5785 111.346 40.6172 94.7189 48.7995 80.1375C56.9294 65.5561 68.2588 54.2267 82.7353 46.0443C97.2117 37.9144 113.734 33.8232 132.354 33.8232C150.974 33.8232 173.895 39.2781 189.368 50.188C204.841 61.0978 215.069 76.2036 220.104 95.5581H169.384L169.437 95.6105Z" fill="#727597"/>
<path d="M169.804 95.9782C166.395 89.7365 161.517 84.911 155.17 81.6066C148.824 78.3022 141.376 76.6238 132.774 76.6238C117.93 76.6238 106.024 81.5017 97.1071 91.2576C88.1904 101.013 83.6797 114.021 83.6797 130.281C83.6797 146.541 88.3478 161.175 97.7365 170.931C107.125 180.687 120.028 185.565 136.498 185.565C152.967 185.565 157.268 182.68 165.083 176.963C172.846 171.245 178.563 163.011 182.13 152.258H123.909V118.48H223.724V161.122C220.314 172.557 214.545 183.204 206.415 193.065C198.285 202.926 187.952 210.846 175.416 216.93C162.88 223.015 148.771 226.057 133.036 226.057C117.301 226.057 97.8414 221.966 83.2601 213.836C68.6787 205.706 57.3493 194.376 49.167 179.9C40.9846 165.423 36.9459 148.849 36.9459 130.281C36.9459 111.714 40.9846 95.0865 49.167 80.5052C57.2969 65.9238 68.6263 54.5944 83.1027 46.412C97.5791 38.2821 114.101 34.1909 132.721 34.1909C151.341 34.1909 174.262 39.6458 189.735 50.5556C205.208 61.4654 215.436 76.5713 220.472 95.9258H169.752L169.804 95.9782Z" fill="#727597"/>
<path d="M170.223 96.2917C166.814 90.05 161.936 85.2245 155.59 81.9201C149.243 78.6157 141.795 76.9373 133.193 76.9373C118.35 76.9373 106.443 81.8152 97.5265 91.5711C88.6099 101.327 84.0991 114.335 84.0991 130.595C84.0991 146.854 88.7672 161.488 98.1559 171.244C107.545 181 120.448 185.878 136.917 185.878C153.387 185.878 157.688 182.993 165.503 177.276C173.266 171.559 178.983 163.324 182.549 152.572H124.329V118.793H224.143V161.436C220.734 172.87 214.964 183.518 206.834 193.378C198.704 203.239 188.371 211.159 175.836 217.244C163.3 223.328 149.191 226.37 133.455 226.37C117.72 226.37 98.2608 222.279 83.6795 214.149C69.0981 206.019 57.7688 194.69 49.5864 180.213C41.4041 165.737 37.3654 149.162 37.3654 130.595C37.3654 112.027 41.4041 95.4 49.5864 80.8186C57.7163 66.2373 69.0457 54.9078 83.5221 46.7255C97.9986 38.5956 114.521 34.5044 133.141 34.5044C151.761 34.5044 174.682 39.9593 190.155 50.8691C205.628 61.7789 215.856 76.8848 220.891 96.2392H170.171L170.223 96.2917Z" fill="#727597"/>
<path d="M170.591 96.6594C167.182 90.4177 162.304 85.5922 155.958 82.2878C149.611 78.9834 142.163 77.3049 133.561 77.3049C118.717 77.3049 106.811 82.1829 97.8944 91.9388C88.9778 101.695 84.467 114.702 84.467 130.962C84.467 147.222 89.1351 161.856 98.5238 171.612C107.913 181.368 120.815 186.246 137.285 186.246C153.755 186.246 158.056 183.361 165.871 177.644C173.634 171.927 179.351 163.692 182.917 152.939H124.697V119.161H224.511V161.804C221.102 173.238 215.332 183.885 207.202 193.746C199.072 203.607 188.739 211.527 176.204 217.611C163.668 223.696 149.559 226.738 133.823 226.738C118.088 226.738 98.6288 222.647 84.0474 214.517C69.4661 206.387 58.1367 195.057 49.9543 180.581C41.772 166.104 37.7333 149.53 37.7333 130.962C37.7333 112.395 41.772 95.7677 49.9543 81.1863C58.0842 66.6049 69.4136 55.2755 83.8901 47.0932C98.3665 38.9632 114.889 34.8721 133.509 34.8721C152.129 34.8721 175.05 40.327 190.523 51.2368C205.996 62.1466 216.224 77.2525 221.259 96.6069H170.539L170.591 96.6594Z" fill="#727597"/>
<path d="M170.958 97.0265C167.548 90.7849 162.67 85.9594 156.324 82.655C149.977 79.3506 142.529 77.6721 133.927 77.6721C119.084 77.6721 107.177 82.5501 98.2608 92.3059C89.3441 102.062 84.8333 115.07 84.8333 131.33C84.8333 147.589 89.5015 162.223 98.8902 171.979C108.279 181.735 121.182 186.613 137.651 186.613C154.121 186.613 158.422 183.728 166.237 178.011C174 172.294 179.717 164.059 183.284 153.306H125.063V119.528H224.877V162.171C221.468 173.605 215.698 184.253 207.568 194.113C199.439 203.974 189.106 211.894 176.57 217.979C164.034 224.063 149.925 227.105 134.19 227.105C118.454 227.105 98.9951 223.014 84.4137 214.884C69.8324 206.754 58.503 195.425 50.3207 180.948C42.1908 166.472 38.0996 149.897 38.0996 131.33C38.0996 112.762 42.1383 96.1349 50.3207 81.5535C58.4506 66.9721 69.7799 55.6427 84.2564 47.4603C98.7328 39.3304 115.255 35.2393 133.875 35.2393C152.495 35.2393 175.416 40.6942 190.889 51.604C206.362 62.5138 216.59 77.6197 221.625 96.9741H170.905L170.958 97.0265Z" fill="#727597"/>
<path d="M171.377 97.341C167.968 91.0993 163.09 86.2738 156.744 82.9694C150.397 79.665 142.949 77.9866 134.347 77.9866C119.504 77.9866 107.597 82.8645 98.6806 92.6204C89.7639 102.376 85.2531 115.384 85.2531 131.644C85.2531 147.904 89.9213 162.538 99.31 172.293C108.699 182.049 121.602 186.927 138.071 186.927C154.541 186.927 158.842 184.043 166.657 178.325C174.42 172.608 180.137 164.373 183.703 153.621H125.483V119.842H225.297V162.485C221.888 173.919 216.118 184.567 207.988 194.428C199.858 204.289 189.526 212.209 176.99 218.293C164.454 224.377 150.345 227.419 134.609 227.419C118.874 227.419 99.4149 223.328 84.8335 215.198C70.2522 207.068 58.9228 195.739 50.7405 181.263C42.5581 166.786 38.5194 150.212 38.5194 131.644C38.5194 113.076 42.5581 96.4493 50.7405 81.8679C58.8704 67.2866 70.1997 55.9572 84.6762 47.7748C99.1526 39.6449 115.675 35.5537 134.295 35.5537C152.915 35.5537 175.836 41.0086 191.309 51.9184C206.782 62.8282 217.01 77.9341 222.045 97.2885H171.325L171.377 97.341Z" fill="#727597"/>
<path d="M171.745 97.7087C168.335 91.467 163.457 86.6415 157.111 83.3371C150.764 80.0327 143.316 78.3542 134.714 78.3542C119.871 78.3542 107.964 83.2322 99.0476 92.9881C90.131 102.744 85.6202 115.752 85.6202 132.012C85.6202 148.271 90.2883 162.905 99.677 172.661C109.066 182.417 121.969 187.295 138.438 187.295C154.908 187.295 159.209 184.41 167.024 178.693C174.787 172.976 180.504 164.741 184.071 153.989H125.85V120.21H225.664V162.853C222.255 174.287 216.485 184.935 208.355 194.795C200.225 204.656 189.893 212.576 177.357 218.661C164.821 224.745 150.712 227.787 134.976 227.787C119.241 227.787 99.782 223.696 85.2006 215.566C70.6193 207.436 59.2899 196.107 51.1075 181.63C42.9252 167.154 38.8865 150.579 38.8865 132.012C38.8865 113.444 42.9252 96.817 51.1075 82.2356C59.2374 67.6542 70.5668 56.3248 85.0433 48.1425C99.5197 40.0126 116.042 35.9214 134.662 35.9214C153.282 35.9214 176.203 41.3763 191.676 52.2861C207.149 63.1959 217.377 78.3018 222.412 97.6562H171.692L171.745 97.7087Z" fill="#727597"/>
<path d="M172.112 98.0768C168.703 91.8352 163.825 87.0097 157.479 83.7053C151.132 80.4008 143.684 78.7224 135.082 78.7224C120.238 78.7224 108.332 83.6004 99.4154 93.3562C90.4988 103.112 85.988 116.12 85.988 132.38C85.988 148.64 90.6561 163.273 100.045 173.029C109.434 182.785 122.336 187.663 138.806 187.663C155.276 187.663 159.577 184.778 167.392 179.061C175.155 173.344 180.872 165.109 184.438 154.357H126.218V120.578H226.032V163.221C222.623 174.655 216.853 185.303 208.723 195.164C200.593 205.024 190.26 212.945 177.725 219.029C165.189 225.113 151.08 228.155 135.344 228.155C119.609 228.155 100.15 224.064 85.5684 215.934C70.9871 207.804 59.6577 196.475 51.4753 181.998C43.293 167.522 39.2543 150.947 39.2543 132.38C39.2543 113.812 43.293 97.1852 51.4753 82.6038C59.6052 68.0224 70.9346 56.693 85.411 48.5106C99.8875 40.3807 116.41 36.2896 135.03 36.2896C153.65 36.2896 176.571 41.7445 192.044 52.6543C207.517 63.5641 217.745 78.67 222.78 98.0244H172.06L172.112 98.0768Z" fill="#727597"/>
<path d="M172.532 98.3898C169.123 92.1482 164.245 87.3227 157.898 84.0182C151.552 80.7138 144.104 79.0354 135.502 79.0354C120.658 79.0354 108.752 83.9133 99.835 93.6692C90.9183 103.425 86.4076 116.433 86.4076 132.693C86.4076 148.953 91.0757 163.586 100.464 173.342C109.853 183.098 122.756 187.976 139.226 187.976C155.695 187.976 159.996 185.091 167.811 179.374C175.574 173.657 181.291 165.422 184.858 154.67H126.637V120.891H226.451V163.534C223.042 174.968 217.273 185.616 209.143 195.477C201.013 205.337 190.68 213.258 178.144 219.342C165.608 225.426 151.499 228.468 135.764 228.468C120.029 228.468 100.569 224.377 85.988 216.247C71.4066 208.117 60.0772 196.788 51.8949 182.311C43.7125 167.835 39.6738 151.26 39.6738 132.693C39.6738 114.125 43.7125 97.4982 51.8949 82.9168C60.0248 68.3354 71.3542 57.006 85.8306 48.8236C100.307 40.6937 116.829 36.6025 135.449 36.6025C154.069 36.6025 176.99 42.0574 192.463 52.9673C207.936 63.8771 218.164 78.9829 223.199 98.3374H172.479L172.532 98.3898Z" fill="#727597"/>
<path d="M172.898 98.7575C169.489 92.5158 164.611 87.6903 158.265 84.3859C151.918 81.0815 144.47 79.4031 135.868 79.4031C121.024 79.4031 109.118 84.281 100.201 94.0369C91.2848 103.793 86.774 116.801 86.774 133.06C86.774 149.32 91.4422 163.954 100.831 173.71C110.22 183.466 123.122 188.344 139.592 188.344C156.062 188.344 160.363 185.459 168.178 179.742C175.941 174.025 181.658 165.79 185.224 155.037H127.004V121.259H226.818V163.902C223.409 175.336 217.639 185.984 209.509 195.844C201.379 205.705 191.046 213.625 178.511 219.71C165.975 225.794 151.866 228.836 136.13 228.836C120.395 228.836 100.936 224.745 86.3544 216.615C71.7731 208.485 60.4437 197.156 52.2613 182.679C44.079 168.203 40.0403 151.628 40.0403 133.06C40.0403 114.493 44.079 97.8658 52.2613 83.2845C60.3912 68.7031 71.7206 57.3737 86.1971 49.1913C100.674 41.0614 117.196 36.9702 135.816 36.9702C154.436 36.9702 177.357 42.4251 192.83 53.3349C208.303 64.2447 218.531 79.3506 223.566 98.705H172.846L172.898 98.7575Z" fill="#727597"/>
<path d="M173.318 99.1252C169.909 92.8835 165.031 88.058 158.684 84.7536C152.338 81.4492 144.89 79.7708 136.288 79.7708C121.444 79.7708 109.538 84.6487 100.621 94.4046C91.7044 104.16 87.1936 117.168 87.1936 133.428C87.1936 149.688 91.8617 164.322 101.25 174.078C110.639 183.834 123.542 188.711 140.012 188.711C156.481 188.711 160.782 185.827 168.597 180.11C176.36 174.392 182.077 166.158 185.644 155.405H127.423V121.627H227.237V164.269C223.828 175.704 218.059 186.351 209.929 196.212C201.799 206.073 191.466 213.993 178.93 220.077C166.394 226.161 152.285 229.204 136.55 229.204C120.815 229.204 101.355 225.112 86.774 216.983C72.1926 208.853 60.8632 197.523 52.6809 183.047C44.4986 168.57 40.4598 151.996 40.4598 133.428C40.4598 114.86 44.4986 98.2335 52.6809 83.6521C60.8108 69.0707 72.1402 57.7413 86.6166 49.559C101.093 41.4291 117.615 37.3379 136.235 37.3379C154.855 37.3379 177.776 42.7928 193.249 53.7026C208.722 64.6124 218.95 79.7183 223.985 99.0727H173.265L173.318 99.1252Z" fill="#727597"/>
<path d="M173.685 99.4401C170.276 93.1984 165.398 88.373 159.051 85.0685C152.705 81.7641 145.257 80.0857 136.655 80.0857C121.811 80.0857 109.905 84.9636 100.988 94.7195C92.0715 104.475 87.5608 117.483 87.5608 133.743C87.5608 150.003 92.2289 164.637 101.618 174.393C111.006 184.148 123.909 189.026 140.379 189.026C156.848 189.026 161.149 186.142 168.965 180.424C176.727 174.707 182.444 166.472 186.011 155.72H127.791V121.942H227.605V164.584C224.195 176.019 218.426 186.666 210.296 196.527C202.166 206.388 191.833 214.308 179.297 220.392C166.762 226.476 152.652 229.519 136.917 229.519C121.182 229.519 101.723 225.427 87.1412 217.298C72.5598 209.168 61.2304 197.838 53.0481 183.362C44.8657 168.885 40.827 152.311 40.827 133.743C40.827 115.175 44.8657 98.5484 53.0481 83.9671C61.178 69.3857 72.5074 58.0563 86.9838 49.8739C101.46 41.744 117.982 37.6528 136.602 37.6528C155.222 37.6528 178.143 43.1077 193.616 54.0175C209.089 64.9274 219.317 80.0332 224.353 99.3877H173.633L173.685 99.4401Z" fill="#727597"/>
<path d="M174.053 99.8068C170.644 93.5651 165.766 88.7396 159.419 85.4352C153.073 82.1308 145.625 80.4524 137.023 80.4524C122.179 80.4524 110.273 85.3303 101.356 95.0862C92.4397 104.842 87.9289 117.85 87.9289 134.11C87.9289 150.37 92.5971 165.003 101.986 174.759C111.374 184.515 124.277 189.393 140.747 189.393C157.217 189.393 161.518 186.508 169.333 180.791C177.095 175.074 182.813 166.839 186.379 156.087H128.159V122.308H227.973V164.951C224.563 176.385 218.794 187.033 210.664 196.894C202.534 206.754 192.201 214.675 179.666 220.759C167.13 226.843 153.02 229.885 137.285 229.885C121.55 229.885 102.091 225.794 87.5093 217.664C72.928 209.534 61.5986 198.205 53.4162 183.728C45.2339 169.252 41.1952 152.677 41.1952 134.11C41.1952 115.542 45.2339 98.9151 53.4162 84.3338C61.5461 69.7524 72.8755 58.423 87.352 50.2406C101.828 42.1107 118.35 38.0195 136.971 38.0195C155.591 38.0195 178.512 43.4744 193.985 54.3842C209.458 65.2941 219.686 80.3999 224.721 99.7544H174.001L174.053 99.8068Z" fill="#727597"/>
<path d="M174.472 100.174C171.063 93.9323 166.185 89.1068 159.839 85.8024C153.492 82.498 146.044 80.8196 137.442 80.8196C122.598 80.8196 110.692 85.6975 101.775 95.4534C92.8588 105.209 88.348 118.217 88.348 134.477C88.348 150.737 93.0161 165.371 102.405 175.126C111.794 184.882 124.696 189.76 141.166 189.76C157.636 189.76 161.937 186.876 169.752 181.158C177.514 175.441 183.232 167.206 186.798 156.454H128.578V122.675H228.392V165.318C224.983 176.752 219.213 187.4 211.083 197.261C202.953 207.122 192.62 215.042 180.085 221.126C167.549 227.21 153.44 230.252 137.704 230.252C121.969 230.252 102.51 226.161 87.9284 218.031C73.347 209.901 62.0177 198.572 53.8353 184.096C45.653 169.619 41.6143 153.045 41.6143 134.477C41.6143 115.909 45.653 99.2823 53.8353 84.701C61.9652 70.1196 73.2946 58.7902 87.771 50.6078C102.247 42.4779 118.77 38.3867 137.39 38.3867C156.01 38.3867 178.931 43.8416 194.404 54.7514C209.877 65.6612 220.105 80.7671 225.14 100.122H174.42L174.472 100.174Z" fill="#727597"/>
<path d="M174.839 100.487C171.43 94.2458 166.552 89.4203 160.205 86.1159C153.859 82.8115 146.411 81.1331 137.809 81.1331C122.965 81.1331 111.059 86.011 102.142 95.7669C93.2256 105.523 88.7148 118.531 88.7148 134.79C88.7148 151.05 93.3829 165.684 102.772 175.44C112.16 185.196 125.063 190.074 141.533 190.074C158.002 190.074 162.303 187.189 170.119 181.472C177.881 175.755 183.598 167.52 187.165 156.767H128.945V122.989H228.759V165.632C225.349 177.066 219.58 187.713 211.45 197.574C203.32 207.435 192.987 215.355 180.451 221.439C167.916 227.524 153.806 230.566 138.071 230.566C122.336 230.566 102.877 226.475 88.2952 218.345C73.7139 210.215 62.3845 198.886 54.2021 184.409C46.0198 169.933 41.9811 153.358 41.9811 134.79C41.9811 116.223 46.0198 99.5958 54.2021 85.0144C62.332 70.4331 73.6614 59.1036 88.1379 50.9213C102.614 42.7914 119.136 38.7002 137.756 38.7002C156.376 38.7002 179.298 44.1551 194.771 55.0649C210.244 65.9747 220.471 81.0806 225.507 100.435H174.787L174.839 100.487Z" fill="#727597"/>
<path d="M175.206 100.857C171.797 94.6154 166.919 89.7899 160.573 86.4855C154.226 83.1811 146.778 81.5027 138.176 81.5027C123.332 81.5027 111.426 86.3806 102.509 96.1365C93.5928 105.892 89.082 118.9 89.082 135.16C89.082 151.42 93.7501 166.054 103.139 175.81C112.528 185.565 125.43 190.443 141.9 190.443C158.37 190.443 162.671 187.559 170.486 181.841C178.248 176.124 183.966 167.889 187.532 157.137H129.312V123.359H229.126V166.001C225.717 177.436 219.947 188.083 211.817 197.944C203.687 207.805 193.354 215.725 180.819 221.809C168.283 227.893 154.174 230.936 138.438 230.936C122.703 230.936 103.244 226.844 88.6624 218.715C74.0811 210.585 62.7517 199.255 54.5693 184.779C46.387 170.302 42.3483 153.728 42.3483 135.16C42.3483 116.592 46.387 99.9654 54.5693 85.3841C62.6992 70.8027 74.0286 59.4733 88.505 51.2909C102.981 43.161 119.504 39.0698 138.124 39.0698C156.744 39.0698 179.665 44.5247 195.138 55.4345C210.611 66.3443 220.839 81.4502 225.874 100.805H175.154L175.206 100.857Z" fill="#727597"/>
<path d="M175.626 101.223C172.217 94.9816 167.339 90.1562 160.992 86.8517C154.646 83.5473 147.198 81.8689 138.596 81.8689C123.752 81.8689 111.846 86.7468 102.929 96.5027C94.0126 106.259 89.5018 119.266 89.5018 135.526C89.5018 151.786 94.1699 166.42 103.559 176.176C112.947 185.932 125.85 190.81 142.32 190.81C158.789 190.81 163.09 187.925 170.906 182.208C178.668 176.491 184.385 168.256 187.952 157.503H129.732V123.725H229.546V166.367C226.136 177.802 220.367 188.449 212.237 198.31C204.107 208.171 193.774 216.091 181.238 222.175C168.703 228.26 154.593 231.302 138.858 231.302C123.123 231.302 103.664 227.211 89.0822 219.081C74.5008 210.951 63.1715 199.621 54.9891 185.145C46.8068 170.668 42.7681 154.094 42.7681 135.526C42.7681 116.959 46.8068 100.332 54.9891 85.7503C63.119 71.1689 74.4484 59.8395 88.9248 51.6571C103.401 43.5272 119.923 39.436 138.543 39.436C157.163 39.436 180.084 44.8909 195.557 55.8007C211.031 66.7106 221.258 81.8164 226.294 101.171H175.574L175.626 101.223Z" fill="#727597"/>
<path d="M159.89 86.5312C156.481 80.2896 151.603 75.4641 145.257 72.1597C138.91 68.8552 131.462 67.1768 122.86 67.1768C108.016 67.1768 96.1101 72.0547 87.1934 81.8106C78.2768 91.5665 73.766 104.574 73.766 120.834C73.766 137.094 78.4341 151.728 87.8228 161.484C97.2115 171.24 110.114 176.118 126.584 176.118C143.054 176.118 147.355 173.233 155.17 167.516C162.932 161.798 168.65 153.564 172.216 142.811H113.996V109.033H213.81V151.675C210.4 163.11 204.631 173.757 196.501 183.618C188.371 193.479 178.038 201.399 165.503 207.483C152.967 213.568 138.858 216.61 123.122 216.61C107.387 216.61 87.9277 212.519 73.3464 204.389C58.765 196.259 47.4357 184.929 39.2533 170.453C31.1234 155.976 27.0847 139.454 27.0847 120.834C27.0847 102.214 31.1234 85.6396 39.3058 71.0582C47.4357 56.4768 58.765 45.1474 73.2415 36.965C87.7179 28.8876 104.24 24.7964 122.86 24.7964C141.48 24.7964 164.401 30.2513 179.874 41.1611C195.347 52.0709 205.575 67.1768 210.61 86.5312H159.89Z" fill="#FA8A5B"/>
</g>
<defs>
<clipPath id="clip0_4796_3152">
<rect width="202.985" height="206.5" fill="white" transform="translate(26.5604 24.7964)"/>
</clipPath>
</defs>
</svg>
