<svg width="200" height="48" viewBox="0 0 200 48" fill="none" xmlns="http://www.w3.org/2000/svg">
<g style="mix-blend-mode:luminosity">
<g clip-path="url(#clip0_4947_5615)">
<path fill-rule="evenodd" clip-rule="evenodd" d="M62.1218 9.76367L48.0681 37.2374H34.8676L40.7491 25.851H40.4852C35.633 32.1498 28.3934 36.2964 18.0781 37.2374V26.0087C18.0781 26.0087 24.6771 25.6189 28.5564 21.5403H18.0781V9.76389H29.8546V19.4499L30.1189 19.4488L34.9312 9.76389H43.8374V19.3884L44.1017 19.388L49.0945 9.76367H62.1218Z" fill="#146EF5"/>
<path d="M138.746 34.2057H142.539V12.4355H138.746V34.2057Z" fill="black"/>
<path fill-rule="evenodd" clip-rule="evenodd" d="M117.837 33.9836C118.662 34.3262 119.5 34.4976 120.352 34.4976C121.76 34.4976 123.019 34.155 124.131 33.4695C125.242 32.7842 126.104 31.8396 126.715 30.6354C127.326 29.4222 127.632 28.0467 127.632 26.5092C127.632 24.9718 127.317 23.5964 126.687 22.3831C126.057 21.1698 125.182 20.2297 124.061 19.5628C122.941 18.8867 121.667 18.5533 120.241 18.5626C119.333 18.5626 118.462 18.7385 117.629 19.0905C116.795 19.4424 116.101 19.9426 115.545 20.5909C115.502 20.6403 115.46 20.6901 115.42 20.7405V12.4497H111.613V34.206H115.392L115.385 32.1735C115.482 32.2933 115.587 32.4104 115.698 32.5249C116.3 33.1455 117.013 33.6316 117.837 33.9836ZM121.727 30.4688C121.107 30.8485 120.398 31.0384 119.602 31.0384C118.814 31.0384 118.092 30.8438 117.434 30.4549C116.777 30.0565 116.253 29.5148 115.864 28.8294C115.485 28.144 115.295 27.3659 115.295 26.4953C115.286 25.6247 115.471 24.8467 115.85 24.1614C116.24 23.4667 116.763 22.9295 117.42 22.5498C118.078 22.1608 118.805 21.9709 119.602 21.9802C120.398 21.9709 121.107 22.1562 121.727 22.5359C122.357 22.9064 122.839 23.4389 123.172 24.1336C123.515 24.819 123.686 25.6062 123.686 26.4953C123.686 27.3846 123.515 28.1718 123.172 28.8571C122.839 29.5426 122.357 30.0797 121.727 30.4688Z" fill="black"/>
<path d="M67.6055 13.7554H71.9401L75.8175 27.9159L79.9424 13.7554H83.5546L88.028 27.6317L91.7513 13.7554H95.7246L89.8619 34.2057H86.1247L81.5757 20.6496L77.4 34.2057H73.6211L67.6055 13.7554Z" fill="black"/>
<path fill-rule="evenodd" clip-rule="evenodd" d="M102.127 34.5649C100.617 34.5742 99.2554 34.2407 98.0421 33.5647C96.838 32.8792 95.8888 31.9298 95.194 30.7166C94.5087 29.5033 94.166 28.1186 94.166 26.5625C94.166 25.0528 94.518 23.6868 95.2219 22.4642C95.9257 21.2416 96.8797 20.2877 98.0838 19.6023C99.2879 18.9169 100.631 18.5742 102.113 18.5742C103.78 18.5742 105.239 18.9447 106.489 19.6856C107.749 20.4266 108.689 21.4778 109.309 22.8393C109.939 24.1915 110.166 25.7429 109.99 27.4934H98.0897C98.123 28.1908 98.297 28.8253 98.6117 29.3967C98.9637 30.0265 99.4545 30.5174 100.084 30.8693C100.714 31.2213 101.418 31.3973 102.196 31.3973C102.789 31.388 103.34 31.2862 103.849 31.0917C104.359 30.888 104.789 30.6147 105.141 30.2719C105.503 29.9293 105.757 29.5404 105.906 29.1051H109.879C109.638 30.1701 109.156 31.1195 108.434 31.953C107.711 32.7774 106.804 33.421 105.711 33.8841C104.618 34.3472 103.423 34.5742 102.127 34.5649ZM98.6256 23.6729C98.4037 24.0599 98.2498 24.4767 98.1642 24.9233H106.053C105.995 24.3591 105.821 23.8451 105.53 23.3811C105.197 22.8347 104.743 22.4133 104.169 22.1169C103.595 21.8112 102.946 21.6584 102.224 21.6584C101.455 21.6584 100.756 21.8344 100.126 22.1864C99.4962 22.5383 98.996 23.0338 98.6256 23.6729Z" fill="black"/>
<path d="M130.426 18.8926C130.426 17.6515 130.708 16.5494 131.273 15.5861C131.838 14.6136 132.63 13.8588 133.649 13.3216C134.677 12.7751 135.876 12.4926 137.247 12.4741V15.8501C136.608 15.8593 136.061 15.9936 135.608 16.253C135.163 16.503 134.82 16.8689 134.579 17.3505C134.358 17.7939 134.238 18.3079 134.221 18.8926H137.164V22.1019H134.218V34.2026H130.426V22.1019H127.98V18.8926H130.426Z" fill="black"/>
<path fill-rule="evenodd" clip-rule="evenodd" d="M152.189 34.5368C150.642 34.5368 149.257 34.1987 148.034 33.5227C146.821 32.8373 145.867 31.8926 145.173 30.6885C144.487 29.4752 144.145 28.0999 144.145 26.5623C144.145 25.0157 144.487 23.6356 145.173 22.4223C145.867 21.1997 146.821 20.2504 148.034 19.5742C149.257 18.8981 150.642 18.5601 152.189 18.5601C153.744 18.5601 155.134 18.8981 156.356 19.5742C157.588 20.2504 158.547 21.1951 159.232 22.4084C159.917 23.6217 160.265 25.0063 160.274 26.5623C160.265 28.0999 159.917 29.4752 159.232 30.6885C158.556 31.8926 157.602 32.8373 156.37 33.5227C155.138 34.1987 153.744 34.5368 152.189 34.5368ZM152.189 31.0498C153.004 31.0498 153.726 30.8645 154.356 30.4941C154.986 30.1143 155.472 29.5864 155.815 28.9102C156.157 28.2249 156.328 27.4422 156.328 26.5623C156.328 25.6732 156.157 24.8859 155.815 24.2006C155.472 23.5152 154.986 22.9873 154.356 22.6168C153.726 22.237 153.004 22.0472 152.189 22.0472C151.383 22.0472 150.665 22.237 150.035 22.6168C149.415 22.9873 148.933 23.5152 148.59 24.2006C148.248 24.8859 148.081 25.6732 148.09 26.5623C148.09 27.4422 148.261 28.2249 148.604 28.9102C148.956 29.5864 149.438 30.1143 150.049 30.4941C150.67 30.8645 151.383 31.0498 152.189 31.0498Z" fill="black"/>
<path d="M164.37 18.895H160.146L164.717 34.205H168.413L171.419 24.4265L174.664 34.205H178.304L182.889 18.895H179.069L176.468 28.4245L173.594 18.895H169.899L167.039 28.6344L164.37 18.895Z" fill="black"/>
</g>
</g>
<defs>
<clipPath id="clip0_4947_5615">
<rect width="164.842" height="29" fill="white" transform="translate(18.0781 9)"/>
</clipPath>
</defs>
</svg>
