<svg width="195" height="42" viewBox="0 0 195 42" fill="none" xmlns="http://www.w3.org/2000/svg">
<g style="mix-blend-mode:luminosity" clip-path="url(#clip0_5039_1112)">
<g clip-path="url(#clip1_5039_1112)">
<path d="M56.9739 28.5931L56.9526 28.5255L70.4053 16.2099V10.2759H48.8228V16.2099H61.714L61.7353 16.2667L48.4141 28.5931V34.527H70.6221V28.5931H56.9739Z" fill="#201515"/>
<path d="M83.8833 9.71191C81.3939 9.71191 79.365 10.0873 77.7968 10.8383C76.336 11.4927 75.1055 12.571 74.2648 13.9332C73.4607 15.3043 72.9557 16.8301 72.7831 18.4103L79.3318 19.3306C79.5687 17.9353 80.0425 16.9464 80.7532 16.3636C81.561 15.7541 82.5565 15.4462 83.5673 15.4931C84.8965 15.4931 85.8606 15.8484 86.4595 16.559C87.0534 17.2697 87.3553 18.254 87.3553 19.5509V20.1976H81.0587C77.8536 20.1976 75.5511 20.9083 74.1512 22.3296C72.7511 23.7509 72.0523 25.6271 72.0547 27.958C72.0547 30.3458 72.7535 32.1225 74.1512 33.2879C75.5488 34.4534 77.3065 35.0325 79.4242 35.0254C82.0513 35.0254 84.0722 34.1217 85.4861 32.3143C86.3216 31.2036 86.9179 29.9321 87.2379 28.5798H87.4758L88.3784 34.5138H94.3122V19.4869C94.3122 16.3814 93.4941 13.9759 91.8572 12.2703C90.2203 10.5647 87.5621 9.71191 83.8833 9.71191ZM85.9588 28.2351C85.017 29.0204 83.7839 29.4112 82.249 29.4112C80.9841 29.4112 80.1052 29.1898 79.6125 28.7468C79.3725 28.5372 79.1815 28.2773 79.0531 27.9857C78.9248 27.694 78.8623 27.3776 78.8699 27.059C78.8559 26.7585 78.9032 26.4584 79.0089 26.1768C79.1145 25.8952 79.2764 25.638 79.4846 25.4209C79.7098 25.2097 79.9755 25.0464 80.2656 24.9407C80.5557 24.8351 80.8642 24.7893 81.1724 24.8062H87.3658V25.2148C87.3783 25.7924 87.2577 26.3652 87.0142 26.8889C86.7701 27.4125 86.4092 27.8732 85.9588 28.2351Z" fill="#201515"/>
<path d="M130.192 10.2759H123.182V34.5306H130.192V10.2759Z" fill="#201515"/>
<path d="M171.586 10.2759C169.606 10.2759 168.045 10.9747 166.903 12.3723C166.083 13.3767 165.46 14.8608 165.034 16.8246H164.828L163.911 10.2759H157.924V34.527H164.935V22.0905C164.935 20.5224 165.302 19.3202 166.036 18.484C166.771 17.6477 168.125 17.2297 170.101 17.2297H172.762V10.2759H171.586Z" fill="#201515"/>
<path d="M150.962 11.0692C149.325 10.0956 147.26 9.60995 144.769 9.61231C140.846 9.61231 137.776 10.7293 135.559 12.9631C133.341 15.1969 132.233 18.2764 132.233 22.2016C132.176 24.5747 132.694 26.9262 133.743 29.0559C134.703 30.9536 136.197 32.5286 138.042 33.5863C139.899 34.6594 142.108 35.1971 144.669 35.1995C146.884 35.1995 148.734 34.8584 150.219 34.1762C151.616 33.5634 152.831 32.6031 153.751 31.3868C154.627 30.1928 155.277 28.849 155.67 27.4213L149.63 25.73C149.375 26.6583 148.886 27.5053 148.208 28.1888C147.526 28.8711 146.383 29.2122 144.779 29.2122C142.872 29.2122 141.451 28.6662 140.515 27.5742C139.836 26.7853 139.41 25.6589 139.222 24.1986H155.762C155.83 23.5163 155.865 22.9442 155.865 22.4823V20.9722C155.905 18.9434 155.487 16.9319 154.64 15.0879C153.847 13.4082 152.565 12.0073 150.962 11.0692ZM144.566 15.3935C147.409 15.3935 149.02 16.7923 149.402 19.5899H139.346C139.506 18.6565 139.893 17.7767 140.472 17.028C141.394 15.936 142.759 15.3911 144.566 15.3935Z" fill="#201515"/>
<path d="M126.764 0.502275C126.236 0.484338 125.711 0.572604 125.218 0.761831C124.726 0.951059 124.277 1.23738 123.896 1.60378C123.522 1.9737 123.229 2.41742 123.035 2.90677C122.841 3.39612 122.751 3.9204 122.77 4.44641C122.751 4.97582 122.842 5.50345 123.036 5.99637C123.23 6.48929 123.524 6.93694 123.898 7.31134C124.273 7.68575 124.721 7.9789 125.214 8.17253C125.707 8.36616 126.235 8.45612 126.764 8.43673C127.29 8.45661 127.814 8.36672 128.304 8.17284C128.793 7.9789 129.237 7.68519 129.607 7.31035C129.974 6.93166 130.259 6.48275 130.448 5.99058C130.637 5.4984 130.724 4.97315 130.705 4.44641C130.729 3.92279 130.644 3.39986 130.455 2.91102C130.265 2.42218 129.976 1.97818 129.606 1.60736C129.235 1.23654 128.792 0.947052 128.303 0.757385C127.814 0.567719 127.291 0.48205 126.768 0.505832L126.764 0.502275Z" fill="#201515"/>
<path d="M112.269 9.6123C109.881 9.6123 107.962 10.362 106.512 11.8615C105.439 12.9725 104.651 14.6307 104.149 16.8361H103.926L103.009 10.2874H97.0215V41.4994H104.032V28.6437H104.288C104.502 29.5008 104.802 30.3342 105.183 31.131C105.776 32.4289 106.749 33.5166 107.973 34.2508C109.241 34.9432 110.671 35.2876 112.116 35.2492C115.051 35.2492 117.285 34.1063 118.82 31.8203C120.355 29.5344 121.123 26.3447 121.123 22.2514C121.123 18.2977 120.38 15.2028 118.896 12.9666C117.41 10.7304 115.201 9.6123 112.269 9.6123ZM112.979 27.1868C112.162 28.3712 110.883 28.9634 109.141 28.9634C108.424 28.9966 107.708 28.8582 107.055 28.5598C106.401 28.2613 105.827 27.8114 105.382 27.2472C104.475 26.1078 104.023 24.5479 104.025 22.5676V22.1056C104.025 20.0945 104.477 18.5547 105.382 17.4864C106.287 16.418 107.54 15.8898 109.141 15.9016C110.914 15.9016 112.201 16.4642 113.004 17.5894C113.807 18.7146 114.209 20.284 114.209 22.2975C114.214 24.3797 113.806 26.0095 112.986 27.1868H112.979Z" fill="#201515"/>
<path d="M45.7176 28.5933H21.4629V34.5343H45.7176V28.5933Z" fill="#FF4F00"/>
</g>
</g>
<defs>
<clipPath id="clip0_5039_1112">
<rect width="193.75" height="41" fill="white" transform="translate(0.369141 0.5)"/>
</clipPath>
<clipPath id="clip1_5039_1112">
<rect width="153.75" height="41" fill="white" transform="translate(20.3691 0.5)"/>
</clipPath>
</defs>
</svg>
